<svg width="18" height="19" viewBox="0 0 18 19" fill="none" xmlns="http://www.w3.org/2000/svg">
<path d="M14.7037 9.50004C14.7037 9.83004 14.4337 10.1 14.1037 10.1H5.34371L8.05871 12.83C8.29871 13.07 8.29871 13.445 8.05871 13.685C7.93871 13.805 7.78871 13.865 7.63871 13.865C7.48871 13.865 7.32371 13.805 7.21871 13.685L3.48371 9.93504C3.24371 9.69504 3.24371 9.32004 3.48371 9.09504L7.21871 5.34504C7.45871 5.10504 7.83371 5.10504 8.07371 5.34504C8.31371 5.58504 8.31371 5.96004 8.07371 6.20004L5.34371 8.90004H14.1037C14.4337 8.90004 14.7037 9.17004 14.7037 9.50004Z" fill="#373737"/>
</svg>
