<svg width="24" height="24" viewBox="0 0 24 24" fill="none" xmlns="http://www.w3.org/2000/svg">
<path d="M12.5602 4.63497L17.5602 9.61496C17.7202 9.77496 17.8002 9.97497 17.8002 10.175C17.8002 10.375 17.7202 10.575 17.5602 10.735C17.2402 11.055 16.7401 11.055 16.4201 10.735L12.7802 7.11496L12.7802 18.795C12.7802 19.235 12.4202 19.595 11.9802 19.595C11.5402 19.595 11.1802 19.235 11.1802 18.795L11.1802 7.11496L7.54016 10.735C7.22016 11.055 6.72016 11.055 6.40016 10.735C6.08016 10.415 6.08016 9.91497 6.40016 9.59497L11.4002 4.61496C11.7402 4.31496 12.2602 4.31497 12.5602 4.63497Z" fill="#373737"/>
</svg>
