<svg width="27" height="25" viewBox="0 0 27 25" fill="none" xmlns="http://www.w3.org/2000/svg">
<g opacity="0.6">
<path d="M23.8809 6.56584L13.7246 0.92775C13.6706 0.897751 13.6093 0.881958 13.5469 0.881958C13.4845 0.881958 13.4232 0.897751 13.3691 0.92775L3.21289 6.56584C3.15885 6.59583 3.11398 6.63898 3.08278 6.69094C3.05158 6.7429 3.03516 6.80184 3.03516 6.86183V18.1382C3.03516 18.1982 3.05158 18.2571 3.08278 18.3091C3.11398 18.3611 3.15885 18.4042 3.21289 18.4342L13.3691 24.0723C13.4232 24.1023 13.4845 24.118 13.5469 24.118C13.6093 24.118 13.6706 24.1023 13.7246 24.0723L23.8809 18.434C23.9349 18.4041 23.9798 18.3609 24.011 18.3089C24.0422 18.257 24.0586 18.1981 24.0586 18.1381V6.86183C24.0586 6.80184 24.0422 6.7429 24.011 6.69094C23.9798 6.63898 23.9349 6.59583 23.8809 6.56584ZM13.5469 1.61833L17.8137 3.98703L8.36912 9.23014L4.10227 6.86144L13.5469 1.61833ZM13.1914 23.1844L3.74609 17.9409V7.45304L13.1914 12.6966V23.1844ZM13.5469 12.1045L9.08011 9.62477L18.5247 4.38171L22.9915 6.86144L13.5469 12.1045ZM23.3477 17.9409L13.9023 23.1844V12.6966L23.3477 7.45304V17.9409Z" fill="black"/>
<path d="M23.8809 6.56584L13.7246 0.92775C13.6706 0.897751 13.6093 0.881958 13.5469 0.881958C13.4845 0.881958 13.4232 0.897751 13.3691 0.92775L3.21289 6.56584C3.15885 6.59583 3.11398 6.63898 3.08278 6.69094C3.05158 6.7429 3.03516 6.80184 3.03516 6.86183V18.1382C3.03516 18.1982 3.05158 18.2571 3.08278 18.3091C3.11398 18.3611 3.15885 18.4042 3.21289 18.4342L13.3691 24.0723C13.4232 24.1023 13.4845 24.118 13.5469 24.118C13.6093 24.118 13.6706 24.1023 13.7246 24.0723L23.8809 18.434C23.9349 18.4041 23.9798 18.3609 24.011 18.3089C24.0422 18.257 24.0586 18.1981 24.0586 18.1381V6.86183C24.0586 6.80184 24.0422 6.7429 24.011 6.69094C23.9798 6.63898 23.9349 6.59583 23.8809 6.56584ZM13.5469 1.61833L17.8137 3.98703L8.36912 9.23014L4.10227 6.86144L13.5469 1.61833ZM13.1914 23.1844L3.74609 17.9409V7.45304L13.1914 12.6966V23.1844ZM13.5469 12.1045L9.08011 9.62477L18.5247 4.38171L22.9915 6.86144L13.5469 12.1045ZM23.3477 17.9409L13.9023 23.1844V12.6966L23.3477 7.45304V17.9409Z" fill="black"/>
</g>
</svg>
