<svg width="17" height="18" viewBox="0 0 17 18" fill="none" xmlns="http://www.w3.org/2000/svg">
<path fill-rule="evenodd" clip-rule="evenodd" d="M3.5 0.25C2.67157 0.25 2 0.921573 2 1.75V2.25H1.3C1.12725 2.25 0.966736 2.33917 0.875472 2.48585L0.0754717 3.77156C0.0261442 3.85084 0 3.94234 0 4.03571V6.75C0 7.02614 0.223858 7.25 0.5 7.25C0.776142 7.25 1 7.02614 1 6.75V4.17857L1.57778 3.25H2V14.75C2 15.5784 2.67157 16.25 3.5 16.25L3.5 16.75C3.5 17.3023 3.94772 17.75 4.5 17.75C5.05228 17.75 5.5 17.3023 5.5 16.75V16.25H11.5V16.75C11.5 17.3023 11.9477 17.75 12.5 17.75C13.0523 17.75 13.5 17.3023 13.5 16.75V16.25C14.3284 16.25 15 15.5784 15 14.75V3.25H15.4222L16 4.17857V6.75C16 7.02614 16.2239 7.25 16.5 7.25C16.7761 7.25 17 7.02614 17 6.75V4.03571C17 3.94234 16.9739 3.85084 16.9245 3.77156L16.1245 2.48585C16.0333 2.33917 15.8728 2.25 15.7 2.25H15V1.75C15 0.921573 14.3284 0.25 13.5 0.25H3.5ZM3 1.75C3 1.47386 3.22386 1.25 3.5 1.25H13.5C13.7761 1.25 14 1.47386 14 1.75V9.75H3V1.75ZM3 10.75V13.3049L5.98651 13.6534C6.17542 13.6754 6.33547 13.8027 6.39944 13.9818L6.85236 15.25H10.1476L10.6006 13.9818C10.6645 13.8027 10.8246 13.6754 11.0135 13.6534L14 13.3049V10.75H3ZM14 14.3117L11.4378 14.6106L11.2095 15.25H13.5C13.7761 15.25 14 15.0261 14 14.75V14.3117ZM3 14.75V14.3117L5.56216 14.6106L5.7905 15.25H3.5C3.22386 15.25 3 15.0261 3 14.75Z" fill="#8D8D8D"/>
</svg>
