<svg width="21" height="21" viewBox="0 0 21 21" fill="none" xmlns="http://www.w3.org/2000/svg">
<path fill-rule="evenodd" clip-rule="evenodd" d="M8.2454 0.238162C6.78613 0.555624 6.04306 0.874576 4.74425 1.74106C1.89316 3.64285 0.0102476 7.09422 2.33568e-05 10.4375C-0.0034397 11.6026 0.378651 13.4743 0.839567 14.5498C1.22776 15.4552 1.21407 15.6079 0.422022 19.2207L0.0318505 21L0.385577 20.9959C0.580168 20.9937 1.83182 20.7401 3.16724 20.4328L5.595 19.8737L6.84121 20.2709C11.1046 21.6296 14.9222 20.7694 17.8946 17.78C19.9809 15.6821 21 13.2895 21 10.4896C21 8.78564 20.7355 7.68015 19.9113 5.93792C18.9741 3.95717 17.1212 2.08947 15.1537 1.14255C12.8432 0.0304372 10.5686 -0.267163 8.2454 0.238162ZM12.2073 1.86867C15.2627 2.41587 18.0419 4.89185 18.9641 7.88821C19.3521 9.14929 19.4004 11.3904 19.0666 12.6414C18.2291 15.7811 15.5683 18.3282 12.3247 19.0959C10.5716 19.5107 8.82884 19.3183 6.81153 18.4871L5.9578 18.1352L4.19148 18.4965C3.22001 18.6952 2.38739 18.8198 2.34121 18.7733C2.29488 18.7269 2.41295 17.908 2.60358 16.9536L2.95005 15.2183L2.48304 14.178C0.904871 10.6626 1.57472 6.97737 4.28201 4.28274C6.54421 2.03105 8.9766 1.29019 12.2073 1.86867ZM6.46736 6.33897C5.88046 6.87888 5.85144 6.95486 5.85144 7.95276C5.85144 9.4156 6.44593 10.5669 8.05311 12.217C10.3932 14.6195 13.3621 15.5184 14.8386 14.2714C15.3915 13.8045 15.626 12.9951 15.3168 12.621C15.2009 12.4808 14.6652 12.1427 14.1263 11.8697L13.1468 11.3735L12.4444 12.0652L11.7423 12.7571L11.1056 12.4593C10.3433 12.1028 8.24259 10.0578 8.24259 9.67249C8.24259 9.52286 8.40734 9.17676 8.60869 8.90349C8.97396 8.40744 8.97412 8.40495 8.67102 7.54459C8.27904 6.43166 7.8079 5.7724 7.40437 5.7724C7.22792 5.7724 6.80625 6.0273 6.46736 6.33897Z" fill="#373737"/>
</svg>
