<svg width="18" height="19" viewBox="0 0 18 19" fill="none" xmlns="http://www.w3.org/2000/svg">
<path fill-rule="evenodd" clip-rule="evenodd" d="M5.25 4.60156C5.25 2.5305 6.92893 0.851562 9 0.851562C11.0711 0.851562 12.75 2.5305 12.75 4.60156V5.20156H11.25V4.60156C11.25 3.35892 10.2426 2.35156 9 2.35156C7.75736 2.35156 6.75 3.35892 6.75 4.60156V5.20156H5.25V4.60156ZM1.52971 6.40156H0L0.3 7.90156L2.4 18.4016H15.6L17.7 7.90156L18 6.40156H16.4703H1.52971ZM1.82971 7.90156L3.62971 16.9016H14.3703L16.1703 7.90156H1.82971ZM8.0242 14.5369L12.4989 10.0622L11.4382 9.00156L7.91288 12.5269L5.93706 10.9462L5.00002 12.1175L8.0242 14.5369Z" fill="#373737"/>
</svg>
