<svg width="13" height="14" viewBox="0 0 13 14" fill="none" xmlns="http://www.w3.org/2000/svg">
<path fill-rule="evenodd" clip-rule="evenodd" d="M6.50065 1.74967C3.60116 1.74967 1.25065 4.10018 1.25065 6.99967C1.25065 9.89917 3.60116 12.2497 6.50065 12.2497C9.40015 12.2497 11.7507 9.89917 11.7507 6.99967C11.7507 4.10018 9.40015 1.74967 6.50065 1.74967ZM0.0839844 6.99967C0.0839844 3.45585 2.95682 0.583008 6.50065 0.583008C10.0445 0.583008 12.9173 3.45585 12.9173 6.99967C12.9173 10.5435 10.0445 13.4163 6.50065 13.4163C2.95682 13.4163 0.0839844 10.5435 0.0839844 6.99967Z" fill="#868686"/>
<path fill-rule="evenodd" clip-rule="evenodd" d="M6.50065 2.91634C6.82282 2.91634 7.08398 3.17751 7.08398 3.49967V6.63915L9.09486 7.64459C9.38301 7.78867 9.49981 8.13906 9.35573 8.42722C9.21166 8.71537 8.86126 8.83217 8.57311 8.68809L6.23978 7.52142C6.04215 7.42261 5.91732 7.22062 5.91732 6.99967V3.49967C5.91732 3.17751 6.17848 2.91634 6.50065 2.91634Z" fill="#868686"/>
</svg>
