<svg width="18" height="18" viewBox="0 0 18 18" fill="none" xmlns="http://www.w3.org/2000/svg">
<g clip-path="url(#clip0_1012_24619)">
<path d="M0.159125 17.8404C0.265179 17.9464 0.404166 17.9995 0.543153 17.9995C0.682141 17.9995 0.821128 17.9464 0.927182 17.8404L9.00004 9.76756L17.0729 17.8405C17.1789 17.9465 17.318 17.9995 17.457 17.9995C17.5959 17.9995 17.7349 17.9465 17.841 17.8405C18.0531 17.6284 18.0531 17.2845 17.841 17.0724L9.76809 8.99951L17.841 0.926646C18.0531 0.714539 18.0531 0.3707 17.841 0.158592C17.6289 -0.0535152 17.2851 -0.0535152 17.0729 0.158592L9.00004 8.23146L0.927139 0.158679C0.71503 -0.0534283 0.37119 -0.0534283 0.159081 0.158679C-0.0530271 0.370744 -0.0530271 0.714626 0.159081 0.926733L8.23198 8.99955L0.159125 17.0724C-0.0529837 17.2845 -0.0529837 17.6284 0.159125 17.8404Z" fill="#868686"/>
</g>
<defs>
<clipPath id="clip0_1012_24619">
<rect width="18" height="18" fill="white"/>
</clipPath>
</defs>
</svg>
