<svg width="14" height="14" viewBox="0 0 14 14" fill="none" xmlns="http://www.w3.org/2000/svg">
<path fill-rule="evenodd" clip-rule="evenodd" d="M1.91875 1.91679C2.02909 1.80645 2.17875 1.74446 2.3348 1.74446H7.5848C7.74084 1.74446 7.8905 1.80645 8.00084 1.91679C8.11119 2.02714 8.17318 2.17679 8.17318 2.33284V2.91618C8.17318 3.23555 8.43208 3.49446 8.75146 3.49446C9.07084 3.49446 9.32975 3.23555 9.32975 2.91618V2.33284C9.32975 1.87005 9.1459 1.42622 8.81866 1.09898C8.49142 0.771733 8.04759 0.587891 7.5848 0.587891H2.3348C1.87201 0.587891 1.42817 0.771733 1.10093 1.09898C0.773686 1.42622 0.589844 1.87005 0.589844 2.33284V7.58284C0.589844 8.04563 0.773686 8.48947 1.10093 8.81671C1.42817 9.14395 1.87201 9.32779 2.3348 9.32779H2.91813C3.23751 9.32779 3.49641 9.06889 3.49641 8.74951C3.49641 8.43013 3.23751 8.17122 2.91813 8.17122H2.3348C2.17875 8.17122 2.02909 8.10923 1.91875 7.99889C1.8084 7.88855 1.74641 7.73889 1.74641 7.58284V2.33284C1.74641 2.17679 1.8084 2.02714 1.91875 1.91679ZM5.83055 6.41585C5.83055 6.0909 6.09398 5.82747 6.41894 5.82747H11.6689C11.9939 5.82747 12.2573 6.0909 12.2573 6.41585V11.6659C12.2573 11.9908 11.9939 12.2542 11.6689 12.2542H6.41894C6.09398 12.2542 5.83055 11.9908 5.83055 11.6659V6.41585ZM6.41894 4.6709C5.45523 4.6709 4.67398 5.45214 4.67398 6.41585V11.6659C4.67398 12.6296 5.45523 13.4108 6.41894 13.4108H11.6689C12.6326 13.4108 13.4139 12.6296 13.4139 11.6659V6.41585C13.4139 5.45214 12.6326 4.6709 11.6689 4.6709H6.41894Z" fill="#373737"/>
</svg>
