<svg width="22" height="18" viewBox="0 0 22 18" fill="none" xmlns="http://www.w3.org/2000/svg">
<path fill-rule="evenodd" clip-rule="evenodd" d="M1.52044 2.75395C1.639 2.04569 2.25992 1.5 3.00005 1.5H19C19.7402 1.5 20.3611 2.04569 20.4797 2.75395L11 9.38967L1.52044 2.75395ZM0.500058 2.99212C0.499989 2.99679 0.499985 3.00146 0.500046 3.00612V15C0.500046 16.3761 1.6239 17.5 3.00005 17.5H19C20.3762 17.5 21.5 16.3761 21.5 15V3.00618M20.5 3.96033V15C20.5 15.8239 19.8239 16.5 19 16.5H3.00005C2.17619 16.5 1.50005 15.8239 1.50005 15V3.96033L10.7133 10.4096C10.8855 10.5301 11.1146 10.5301 11.2868 10.4096L20.5 3.96033ZM21.5 2.99206C21.4957 1.61954 20.3735 0.5 19 0.5H3.00005C1.62653 0.5 0.504336 1.61957 0.500058 2.99212" fill="#373737"/>
</svg>
