<svg width="107" height="108" viewBox="0 0 107 108" fill="none" xmlns="http://www.w3.org/2000/svg">
<path d="M57.959 9.41602H26.7507C24.3858 9.41602 22.1178 10.3554 20.4456 12.0276C18.7734 13.6998 17.834 15.9678 17.834 18.3327V89.666C17.834 92.0309 18.7734 94.2989 20.4456 95.9711C22.1178 97.6433 24.3858 98.5827 26.7507 98.5827H80.2506C82.6155 98.5827 84.8835 97.6433 86.5557 95.9711C88.2279 94.2989 89.1673 92.0309 89.1673 89.666V40.6244L57.959 9.41602Z" stroke="#A7A7A7" stroke-linecap="round" stroke-linejoin="round"/>
<path d="M57.959 9.41602V40.6243H89.1673" stroke="#A7A7A7" stroke-linecap="round" stroke-linejoin="round"/>
<circle cx="87.5" cy="94" r="13.5" fill="#94C05B"/>
<path d="M87.4102 97.8047H88.6992L88.7812 85.5H87.3281L87.4102 97.8047ZM88.9336 101.73C88.9336 101.473 88.8516 101.254 88.6875 101.074C88.5156 100.887 88.2773 100.793 87.9727 100.793C87.6758 100.793 87.4414 100.887 87.2695 101.074C87.0898 101.254 87 101.473 87 101.73C87 101.996 87.0898 102.219 87.2695 102.398C87.4414 102.57 87.6758 102.656 87.9727 102.656C88.2773 102.656 88.5156 102.57 88.6875 102.398C88.8516 102.219 88.9336 101.996 88.9336 101.73Z" fill="white"/>
</svg>
