<svg width="14" height="15" viewBox="0 0 14 15" fill="none" xmlns="http://www.w3.org/2000/svg">
<path fill-rule="evenodd" clip-rule="evenodd" d="M5.83301 2.24996C5.83301 1.92779 5.57184 1.66663 5.24967 1.66663H2.91634C2.45221 1.66663 2.00709 1.851 1.6789 2.17919C1.35071 2.50738 1.16634 2.9525 1.16634 3.41663V11.5833C1.16634 12.0474 1.35072 12.4925 1.6789 12.8207C2.00709 13.1489 2.45221 13.3333 2.91634 13.3333H5.24967C5.57184 13.3333 5.83301 13.0721 5.83301 12.75C5.83301 12.4278 5.57184 12.1666 5.24967 12.1666H2.91634C2.76163 12.1666 2.61326 12.1052 2.50386 11.9958C2.39446 11.8864 2.33301 11.738 2.33301 11.5833V3.41663C2.33301 3.26192 2.39446 3.11354 2.50386 3.00415C2.61326 2.89475 2.76163 2.83329 2.91634 2.83329H5.24967C5.57184 2.83329 5.83301 2.57213 5.83301 2.24996Z" fill="#A7A7A7"/>
<path fill-rule="evenodd" clip-rule="evenodd" d="M8.57915 4.17085C8.35134 3.94305 7.98199 3.94305 7.75419 4.17085L4.83752 7.08752C4.60971 7.31533 4.60971 7.68467 4.83752 7.91248L7.75419 10.8291C7.98199 11.057 8.35134 11.057 8.57915 10.8291C8.80695 10.6013 8.80695 10.232 8.57915 10.0042L6.07496 7.5L8.57915 4.99581C8.80695 4.76801 8.80695 4.39866 8.57915 4.17085Z" fill="#A7A7A7"/>
<path fill-rule="evenodd" clip-rule="evenodd" d="M12.833 7.49996C12.833 7.17779 12.5718 6.91663 12.2497 6.91663H5.24967C4.92751 6.91663 4.66634 7.17779 4.66634 7.49996C4.66634 7.82213 4.92751 8.08329 5.24967 8.08329H12.2497C12.5718 8.08329 12.833 7.82213 12.833 7.49996Z" fill="#A7A7A7"/>
</svg>
