<svg width="15" height="14" viewBox="0 0 15 14" fill="none" xmlns="http://www.w3.org/2000/svg">
<path fill-rule="evenodd" clip-rule="evenodd" d="M1.13817 1.50445C1.23376 1.29844 1.44022 1.16663 1.66733 1.16663L13.334 1.16663C13.5611 1.16663 13.7676 1.29844 13.8631 1.50445C13.9587 1.71046 13.9261 1.95322 13.7794 2.12663L9.25066 7.48188L9.25066 12.25C9.25066 12.4521 9.14598 12.6399 8.974 12.7462C8.80203 12.8525 8.58728 12.8621 8.40645 12.7717L6.07312 11.605C5.87549 11.5062 5.75066 11.3042 5.75066 11.0833V7.48188L1.22191 2.12663C1.07526 1.95322 1.04259 1.71046 1.13817 1.50445ZM2.92459 2.33329L6.77941 6.89162C6.86846 6.99693 6.91733 7.13038 6.91733 7.26829V10.7228L8.08399 11.3061V7.26829C8.08399 7.13038 8.13286 6.99693 8.22191 6.89162L12.0767 2.33329L2.92459 2.33329Z" fill="#373737"/>
</svg>
