<svg width="22" height="22" viewBox="0 0 22 22" fill="none" xmlns="http://www.w3.org/2000/svg">
<path fill-rule="evenodd" clip-rule="evenodd" d="M11.4994 3.25904C12.2162 1.95583 13.472 0.5 15.5 0.5C16.2956 0.5 17.0587 0.81607 17.6213 1.37868C18.1839 1.94129 18.5 2.70435 18.5 3.5C18.5 4.23983 18.2267 4.95148 17.7361 5.5H21C21.2761 5.5 21.5 5.72386 21.5 6V11C21.5 11.2761 21.2761 11.5 21 11.5H19.5V21C19.5 21.2761 19.2761 21.5 19 21.5H11H3C2.72386 21.5 2.5 21.2761 2.5 21V11.5H1C0.723858 11.5 0.5 11.2761 0.5 11V6C0.5 5.72386 0.723858 5.5 1 5.5H4.26393C3.77328 4.95148 3.5 4.23983 3.5 3.5C3.5 2.70435 3.81607 1.94129 4.37868 1.37868C4.94129 0.81607 5.70435 0.5 6.5 0.5C8.52805 0.5 9.78384 1.95583 10.5006 3.25904C10.7015 3.62432 10.8665 3.98818 11 4.32315C11.1335 3.98818 11.2985 3.62432 11.4994 3.25904ZM10.5 6.5H6.5H1.5V10.5H3H10.5V6.5ZM10.3527 5.5C10.3401 5.45821 10.3267 5.41473 10.3124 5.3697C10.1704 4.92134 9.94772 4.32883 9.62439 3.74096C8.96616 2.54417 7.97195 1.5 6.5 1.5C5.96957 1.5 5.46086 1.71071 5.08579 2.08579C4.71071 2.46086 4.5 2.96957 4.5 3.5C4.5 4.03043 4.71071 4.53914 5.08579 4.91421C5.46086 5.28929 5.96957 5.5 6.5 5.5H10.3527ZM16.9142 4.91421C16.5391 5.28929 16.0304 5.5 15.5 5.5H11.6473C11.6599 5.45821 11.6733 5.41473 11.6876 5.3697C11.8296 4.92134 12.0523 4.32883 12.3756 3.74096C13.0338 2.54417 14.028 1.5 15.5 1.5C16.0304 1.5 16.5391 1.71071 16.9142 2.08579C17.2893 2.46086 17.5 2.96957 17.5 3.5C17.5 4.03043 17.2893 4.53914 16.9142 4.91421ZM11.5 10.5V6.5H15.5H20.5V10.5H19H11.5ZM11.5 20.5H18.5V11.5H11.5V20.5ZM10.5 11.5V20.5H3.5V11.5H10.5Z" fill="#373737"/>
</svg>
