<svg width="11" height="11" viewBox="0 0 11 11" fill="none" xmlns="http://www.w3.org/2000/svg">
<g clip-path="url(#clip0_1501_69948)">
<path d="M5.92541 9.96605C8.25947 9.96605 10.1516 8.07392 10.1516 5.73986C10.1516 3.4058 8.25947 1.51367 5.92541 1.51367C3.59135 1.51367 1.69922 3.4058 1.69922 5.73986C1.69922 8.07392 3.59135 9.96605 5.92541 9.96605Z" stroke="#373737" stroke-width="0.845238" stroke-linecap="round" stroke-linejoin="round"/>
<path d="M1.69922 5.74023H10.1516" stroke="#373737" stroke-width="0.845238" stroke-linecap="round" stroke-linejoin="round"/>
<path d="M5.92876 1.51367C6.98585 2.67095 7.58659 4.17281 7.61923 5.73986C7.58659 7.30692 6.98585 8.80877 5.92876 9.96605C4.87167 8.80877 4.27093 7.30692 4.23828 5.73986C4.27093 4.17281 4.87167 2.67095 5.92876 1.51367V1.51367Z" stroke="#373737" stroke-width="0.845238" stroke-linecap="round" stroke-linejoin="round"/>
</g>
<defs>
<clipPath id="clip0_1501_69948">
<rect width="10.1429" height="10.1429" fill="white" transform="translate(0.855469 0.667969)"/>
</clipPath>
</defs>
</svg>
