<svg width="14" height="14" viewBox="0 0 14 14" fill="none" xmlns="http://www.w3.org/2000/svg">
<g opacity="0.2">
<path fill-rule="evenodd" clip-rule="evenodd" d="M7.00065 1.74967C4.10116 1.74967 1.75065 4.10018 1.75065 6.99967C1.75065 9.89917 4.10116 12.2497 7.00065 12.2497C9.90015 12.2497 12.2507 9.89917 12.2507 6.99967C12.2507 4.10018 9.90015 1.74967 7.00065 1.74967ZM0.583984 6.99967C0.583984 3.45585 3.45682 0.583008 7.00065 0.583008C10.5445 0.583008 13.4173 3.45585 13.4173 6.99967C13.4173 10.5435 10.5445 13.4163 7.00065 13.4163C3.45682 13.4163 0.583984 10.5435 0.583984 6.99967Z" fill="black"/>
<path fill-rule="evenodd" clip-rule="evenodd" d="M7.00065 6.41634C7.32282 6.41634 7.58398 6.67751 7.58398 6.99967V9.33301C7.58398 9.65517 7.32282 9.91634 7.00065 9.91634C6.67848 9.91634 6.41732 9.65517 6.41732 9.33301V6.99967C6.41732 6.67751 6.67848 6.41634 7.00065 6.41634Z" fill="black"/>
<path d="M7.58398 4.66634C7.58398 4.98851 7.32282 5.24967 7.00065 5.24967C6.67848 5.24967 6.41732 4.98851 6.41732 4.66634C6.41732 4.34417 6.67848 4.08301 7.00065 4.08301C7.32282 4.08301 7.58398 4.34417 7.58398 4.66634Z" fill="black"/>
</g>
</svg>
