<svg width="12" height="13" viewBox="0 0 12 13" fill="none" xmlns="http://www.w3.org/2000/svg">
<path d="M1.54026 0H10.4599C11.3069 0 12 0.679398 12 1.66846V11.3315C12 12.3206 11.3069 13 10.4599 13H1.54026C0.692938 13 0 12.3206 0 11.3315V1.66846C0 0.679398 0.692938 0 1.54026 0ZM8.74156 1.44436C8.44438 1.44436 8.20153 1.70757 8.20153 2.02965V3.43049C8.20153 3.75244 8.44438 4.01579 8.74156 4.01579H10.0979C10.3951 4.01579 10.6382 3.75244 10.6382 3.43049V2.02965C10.6382 1.70757 10.3951 1.44436 10.0979 1.44436H8.74156ZM10.6438 5.49765H9.58766C9.68758 5.8511 9.74167 6.2255 9.74167 6.61285C9.74167 8.77518 8.07142 10.528 6.01146 10.528C3.95162 10.528 2.28162 8.77518 2.28162 6.61285C2.28162 6.22524 2.33559 5.85097 2.43563 5.49765H1.33351V10.989C1.33351 11.2732 1.54814 11.5059 1.81058 11.5059H10.167C10.4294 11.5059 10.6441 11.2733 10.6441 10.989V5.49765H10.6438ZM6.01134 3.94198C4.68041 3.94198 3.60133 5.07453 3.60133 6.47177C3.60133 7.86901 4.68041 9.00156 6.01134 9.00156C7.34238 9.00156 8.42159 7.86901 8.42159 6.47177C8.42159 5.07453 7.34251 3.94198 6.01134 3.94198Z" fill="#373737"/>
</svg>
