<svg width="13" height="9" viewBox="0 0 13 9" fill="none" xmlns="http://www.w3.org/2000/svg">
<path fill-rule="evenodd" clip-rule="evenodd" d="M3.33333 0.5C3.33333 0.223858 3.55719 0 3.83333 0H12.5C12.7761 0 13 0.223858 13 0.5C13 0.776142 12.7761 1 12.5 1H3.83333C3.55719 1 3.33333 0.776142 3.33333 0.5ZM3.33333 4.5C3.33333 4.22386 3.55719 4 3.83333 4H12.5C12.7761 4 13 4.22386 13 4.5C13 4.77614 12.7761 5 12.5 5H3.83333C3.55719 5 3.33333 4.77614 3.33333 4.5ZM0.5 8C0.223858 8 0 8.22386 0 8.5C0 8.77614 0.223858 9 0.5 9H0.506667C0.782809 9 1.00667 8.77614 1.00667 8.5C1.00667 8.22386 0.782809 8 0.506667 8H0.5ZM3.83333 8C3.55719 8 3.33333 8.22386 3.33333 8.5C3.33333 8.77614 3.55719 9 3.83333 9H12.5C12.7761 9 13 8.77614 13 8.5C13 8.22386 12.7761 8 12.5 8H3.83333ZM0.5 4C0.223858 4 0 4.22386 0 4.5C0 4.77614 0.223858 5 0.5 5H0.506667C0.782809 5 1.00667 4.77614 1.00667 4.5C1.00667 4.22386 0.782809 4 0.506667 4H0.5ZM0.5 0C0.223858 0 0 0.223858 0 0.5C0 0.776142 0.223858 1 0.5 1H0.506667C0.782809 1 1.00667 0.776142 1.00667 0.5C1.00667 0.223858 0.782809 0 0.506667 0H0.5Z" fill="#373737"/>
</svg>
