<svg viewBox="0 0 80 79" fill="none" xmlns="http://www.w3.org/2000/svg">
<path d="M20 68.9062C25.5228 68.9062 30 64.4991 30 59.0625C30 53.6259 25.5228 49.2188 20 49.2188C14.4772 49.2188 10 53.6259 10 59.0625C10 64.4991 14.4772 68.9062 20 68.9062Z" stroke="#101423" stroke-linecap="round" stroke-linejoin="round"/>
<path d="M60 29.5312C60 37.3634 56.8393 44.8748 51.2132 50.413C45.5871 55.9512 37.9565 59.0625 30 59.0625" stroke="#101423" stroke-linecap="round" stroke-linejoin="round"/>
<path d="M60 29.5312C65.5228 29.5312 70 25.1241 70 19.6875C70 14.2509 65.5228 9.84375 60 9.84375C54.4772 9.84375 50 14.2509 50 19.6875C50 25.1241 54.4772 29.5312 60 29.5312Z" stroke="#101423" stroke-linecap="round" stroke-linejoin="round"/>
<path d="M20 9.84375V49.2188" stroke="#101423" stroke-linecap="round" stroke-linejoin="round"/>
<circle cx="60" cy="20" r="0.75" fill="#373737" stroke="#101423"/>
<circle cx="20" cy="58.75" r="0.75" fill="#373737" stroke="#101423"/>
</svg>
