<svg viewBox="0 0 80 80" fill="none" xmlns="http://www.w3.org/2000/svg">
<path d="M73.3333 10H53.3333C49.7971 10 46.4057 11.4048 43.9052 13.9052C41.4048 16.4057 40 19.7971 40 23.3333V70C40 67.3478 41.0536 64.8043 42.9289 62.9289C44.8043 61.0536 47.3478 60 50 60H73.3333V10Z" stroke="#373737" stroke-linecap="round" stroke-linejoin="round"/>
<path d="M6.66797 10H26.668C30.2042 10 33.5956 11.4048 36.0961 13.9052C38.5965 16.4057 40.0013 19.7971 40.0013 23.3333V70C40.0013 67.3478 38.9477 64.8043 37.0724 62.9289C35.197 61.0536 32.6535 60 30.0013 60H6.66797V10Z" stroke="#373737" stroke-linecap="round" stroke-linejoin="round"/>
</svg>
