<svg viewBox="0 0 80 80" fill="none" xmlns="http://www.w3.org/2000/svg">
<path d="M70.6987 52.9669C68.5781 57.9819 65.2614 62.401 61.0383 65.8379C56.8153 69.2749 51.8146 71.625 46.4735 72.6829C41.1324 73.7407 35.6135 73.4741 30.3992 71.9062C25.185 70.3384 20.4342 67.5172 16.5621 63.6891C12.6901 59.8611 9.81479 55.1428 8.18752 49.9468C6.56026 44.7507 6.23061 39.2352 7.2274 33.8824C8.22419 28.5295 10.5171 23.5024 13.9056 19.2404C17.2941 14.9784 21.675 11.6113 26.6654 9.43359" stroke="#373737" stroke-linecap="round" stroke-linejoin="round"/>
<path d="M73.3333 39.9993C73.3333 35.622 72.4711 31.2874 70.796 27.2432C69.1208 23.199 66.6655 19.5244 63.5702 16.4291C60.4749 13.3338 56.8003 10.8785 52.7561 9.20336C48.7119 7.52821 44.3774 6.66602 40 6.66602V39.9993H73.3333Z" stroke="#373737" stroke-linecap="round" stroke-linejoin="round"/>
</svg>
