<svg width="19" height="20" viewBox="0 0 19 20" fill="none" xmlns="http://www.w3.org/2000/svg">
<path fill-rule="evenodd" clip-rule="evenodd" d="M18 10C18 14.6944 14.1944 18.5 9.5 18.5C4.80558 18.5 1 14.6944 1 10C1 5.30558 4.80558 1.5 9.5 1.5C14.1944 1.5 18 5.30558 18 10ZM19 10C19 15.2467 14.7467 19.5 9.5 19.5C4.25329 19.5 0 15.2467 0 10C0 4.75329 4.25329 0.5 9.5 0.5C14.7467 0.5 19 4.75329 19 10ZM7.5 6.5H7V7V11.3636V15H8V11.8636H11.3182C12.7993 11.8636 14 10.6629 14 9.18182C14 7.70069 12.7993 6.5 11.3182 6.5H7.5ZM11.3182 10.8636H8V7.5H11.3182C12.247 7.5 13 8.25298 13 9.18182C13 10.1107 12.247 10.8636 11.3182 10.8636Z" fill="#1B1B1B"/>
</svg>
