<svg width="16" height="17" viewBox="0 0 16 17" fill="none" xmlns="http://www.w3.org/2000/svg">
<path fill-rule="evenodd" clip-rule="evenodd" d="M4.80299 4.69863C4.80299 3.15078 6.05777 1.896 7.60562 1.896C9.15347 1.896 10.4083 3.15078 10.4083 4.69863C10.4083 6.24648 9.15347 7.50126 7.60562 7.50126C6.05777 7.50126 4.80299 6.24648 4.80299 4.69863ZM7.60562 0.395996C5.22935 0.395996 3.30299 2.32235 3.30299 4.69863C3.30299 6.11213 3.9846 7.36644 5.03707 8.15079C2.61496 9.2713 0.93457 11.7229 0.93457 14.5671V16.146V16.896H1.68457H14.3161H15.0661V16.146V14.5671C15.0661 11.5228 13.141 8.92822 10.4417 7.93436C11.3407 7.14576 11.9083 5.98848 11.9083 4.69863C11.9083 2.32235 9.9819 0.395996 7.60562 0.395996ZM2.43457 14.5671C2.43457 11.4932 4.92646 9.00126 8.00036 9.00126C11.0743 9.00126 13.5661 11.4931 13.5661 14.5671V15.396H2.43457V14.5671Z" fill="#373737"/>
</svg>
