<svg width="11" height="13" viewBox="0 0 11 13" fill="none" xmlns="http://www.w3.org/2000/svg">
<path fill-rule="evenodd" clip-rule="evenodd" d="M3 3.5C3 2.11929 4.11929 1 5.5 1C6.88071 1 8 2.11929 8 3.5C8 4.88071 6.88071 6 5.5 6C4.11929 6 3 4.88071 3 3.5ZM5.5 0C3.567 0 2 1.567 2 3.5C2 5.433 3.567 7 5.5 7C7.433 7 9 5.433 9 3.5C9 1.567 7.433 0 5.5 0ZM1 12.5C1 10.6654 2.90484 9 5.5 9C8.09516 9 10 10.6654 10 12.5C10 12.7761 10.2239 13 10.5 13C10.7761 13 11 12.7761 11 12.5C11 9.91637 8.42768 8 5.5 8C2.57232 8 0 9.91637 0 12.5C0 12.7761 0.223858 13 0.5 13C0.776142 13 1 12.7761 1 12.5Z" fill="#373737"/>
</svg>
