<svg width="40" height="55" viewBox="0 0 40 55" fill="none" xmlns="http://www.w3.org/2000/svg">
<path d="M39.5 54H0.5V1H25.8037L39.5 13.718V54Z" stroke="#373737"/>
<path d="M16.6215 26.2902C16.3692 25.9385 16.056 25.7101 15.682 25.605C15.4386 25.535 14.9163 25.5 14.1148 25.5H12V32.5H13.3179V29.8595H14.1772C14.7738 29.8595 15.2294 29.826 15.5441 29.7592C15.7756 29.705 16.0034 29.5945 16.2275 29.4273C16.4516 29.2602 16.6364 29.0302 16.7818 28.7373C16.9273 28.4445 17 28.0832 17 27.6535C16.9999 27.0964 16.8737 26.642 16.6215 26.2902ZM15.4928 28.2169C15.3934 28.3729 15.2561 28.4875 15.081 28.5607C14.9058 28.634 14.5586 28.6706 14.0391 28.6706H13.3179V26.6842H13.9545C14.4295 26.6842 14.7456 26.7001 14.9028 26.732C15.1165 26.7733 15.2932 26.8768 15.4326 27.0423C15.5722 27.2079 15.6419 27.418 15.6419 27.6726C15.642 27.8795 15.5922 28.0609 15.4928 28.2169Z" fill="#94C05B"/>
<path d="M23.7657 27.4124C23.6095 26.9651 23.3816 26.5871 23.0822 26.2783C22.7828 25.9695 22.4231 25.7547 22.0033 25.6337C21.6909 25.5445 21.2368 25.5 20.6412 25.5H18V32.5H20.7193C21.2531 32.5 21.6794 32.4507 21.9984 32.3519C22.4248 32.2183 22.7633 32.032 23.0138 31.7933C23.3458 31.4781 23.6013 31.0659 23.7803 30.5566C23.9268 30.1395 24 29.643 24 29.0668C24 28.4111 23.9219 27.8596 23.7657 27.4124ZM22.3596 30.2869C22.262 30.6005 22.1359 30.8257 21.9813 30.9625C21.8267 31.0994 21.6322 31.1965 21.3979 31.2537C21.2189 31.2983 20.9276 31.3206 20.524 31.3206H19.4451V26.6842H20.0944C20.6834 26.6842 21.079 26.7065 21.2807 26.7511C21.5508 26.8083 21.7738 26.9182 21.9495 27.0806C22.1253 27.2429 22.262 27.4689 22.3596 27.7586C22.4573 28.0482 22.5061 28.4636 22.5061 29.0048C22.5061 29.546 22.4573 29.9733 22.3596 30.2869Z" fill="#94C05B"/>
<path d="M29 26.6842V25.5H25V32.5H26.1781V29.5253H28.6139V28.3411H26.1781V26.6842H29Z" fill="#94C05B"/>
</svg>
