<svg width="17" height="16" viewBox="0 0 17 16" fill="none" xmlns="http://www.w3.org/2000/svg">
<path fill-rule="evenodd" clip-rule="evenodd" d="M12.1707 7.16093C12.1707 9.9695 9.89394 12.2463 7.08537 12.2463C4.2768 12.2463 2 9.9695 2 7.16093C2 4.35236 4.2768 2.07556 7.08537 2.07556C9.89394 2.07556 12.1707 4.35236 12.1707 7.16093ZM11.5343 12.0163C10.3625 13.0906 8.80049 13.7463 7.08537 13.7463C3.44837 13.7463 0.5 10.7979 0.5 7.16093C0.5 3.52393 3.44837 0.57556 7.08537 0.57556C10.7224 0.57556 13.6707 3.52393 13.6707 7.16093C13.6707 8.5426 13.2452 9.82489 12.5181 10.8839L15.9928 13.9126C16.305 14.1848 16.3375 14.6586 16.0654 14.9708C15.7932 15.283 15.3194 15.3155 15.0072 15.0434L11.5343 12.0163Z" fill="#373737"/>
</svg>
