<svg width="14" height="14" viewBox="0 0 14 14" fill="none" xmlns="http://www.w3.org/2000/svg">
<g clip-path="url(#clip0_1084_26752)">
<path fill-rule="evenodd" clip-rule="evenodd" d="M2.33333 7.58329C2.6555 7.58329 2.91667 7.84446 2.91667 8.16663L2.91667 12.25C2.91667 12.5721 2.6555 12.8333 2.33333 12.8333C2.01117 12.8333 1.75 12.5721 1.75 12.25L1.75 8.16663C1.75 7.84446 2.01117 7.58329 2.33333 7.58329Z" fill="#373737"/>
<path fill-rule="evenodd" clip-rule="evenodd" d="M2.33333 1.16663C2.6555 1.16663 2.91667 1.42779 2.91667 1.74996L2.91667 5.83329C2.91667 6.15546 2.6555 6.41663 2.33333 6.41663C2.01117 6.41663 1.75 6.15546 1.75 5.83329L1.75 1.74996C1.75 1.42779 2.01117 1.16663 2.33333 1.16663Z" fill="#373737"/>
<path fill-rule="evenodd" clip-rule="evenodd" d="M7 6.41663C7.32217 6.41663 7.58333 6.67779 7.58333 6.99996L7.58333 12.25C7.58333 12.5721 7.32217 12.8333 7 12.8333C6.67783 12.8333 6.41667 12.5721 6.41667 12.25L6.41667 6.99996C6.41667 6.67779 6.67783 6.41663 7 6.41663Z" fill="#373737"/>
<path fill-rule="evenodd" clip-rule="evenodd" d="M7 1.16663C7.32217 1.16663 7.58333 1.42779 7.58333 1.74996V4.66663C7.58333 4.98879 7.32217 5.24996 7 5.24996C6.67783 5.24996 6.41667 4.98879 6.41667 4.66663V1.74996C6.41667 1.42779 6.67783 1.16663 7 1.16663Z" fill="#373737"/>
<path fill-rule="evenodd" clip-rule="evenodd" d="M11.6667 8.74996C11.9888 8.74996 12.25 9.01113 12.25 9.33329V12.25C12.25 12.5721 11.9888 12.8333 11.6667 12.8333C11.3445 12.8333 11.0833 12.5721 11.0833 12.25V9.33329C11.0833 9.01113 11.3445 8.74996 11.6667 8.74996Z" fill="#373737"/>
<path fill-rule="evenodd" clip-rule="evenodd" d="M11.6667 1.16663C11.9888 1.16663 12.25 1.42779 12.25 1.74996V6.99996C12.25 7.32213 11.9888 7.58329 11.6667 7.58329C11.3445 7.58329 11.0833 7.32213 11.0833 6.99996V1.74996C11.0833 1.42779 11.3445 1.16663 11.6667 1.16663Z" fill="#373737"/>
<path fill-rule="evenodd" clip-rule="evenodd" d="M0 8.16663C0 7.84446 0.261167 7.58329 0.583333 7.58329L4.08333 7.58329C4.4055 7.58329 4.66667 7.84446 4.66667 8.16663C4.66667 8.48879 4.4055 8.74996 4.08333 8.74996H0.583333C0.261167 8.74996 0 8.48879 0 8.16663Z" fill="#373737"/>
<path fill-rule="evenodd" clip-rule="evenodd" d="M4.66667 4.66663C4.66667 4.34446 4.92783 4.08329 5.25 4.08329L8.75 4.08329C9.07217 4.08329 9.33333 4.34446 9.33333 4.66663C9.33333 4.98879 9.07217 5.24996 8.75 5.24996H5.25C4.92783 5.24996 4.66667 4.98879 4.66667 4.66663Z" fill="#373737"/>
<path fill-rule="evenodd" clip-rule="evenodd" d="M9.33333 9.33329C9.33333 9.01113 9.5945 8.74996 9.91667 8.74996L13.4167 8.74996C13.7388 8.74996 14 9.01113 14 9.33329C14 9.65546 13.7388 9.91663 13.4167 9.91663H9.91667C9.5945 9.91663 9.33333 9.65546 9.33333 9.33329Z" fill="#373737"/>
</g>
<defs>
<clipPath id="clip0_1084_26752">
<rect width="14" height="14" fill="white"/>
</clipPath>
</defs>
</svg>
