<svg width="16" height="16" viewBox="0 0 16 16" fill="none" xmlns="http://www.w3.org/2000/svg">
<path d="M14.0212 4.00684L13.6897 4.33834C13.4189 4.60919 13.0588 4.75834 12.6757 4.75834C12.2926 4.75834 11.9326 4.60919 11.6617 4.33834C11.3908 4.0675 11.2417 3.70738 11.2417 3.32434C11.2417 2.94131 11.3908 2.58119 11.6617 2.31031L11.9932 1.97881L10.0143 0L0 10.0143L1.97881 11.9932L2.31031 11.6617C2.58116 11.3908 2.94128 11.2417 3.32434 11.2417C3.70741 11.2417 4.06747 11.3908 4.33834 11.6617C4.60919 11.9325 4.75834 12.2926 4.75834 12.6757C4.75834 13.0587 4.60919 13.4188 4.33834 13.6897L4.00684 14.0212L5.98566 16L16 5.98566L14.0212 4.00684ZM5.30031 13.9886C5.55772 13.6029 5.696 13.1499 5.696 12.6757C5.696 12.0422 5.44931 11.4466 5.00134 10.9987C4.55341 10.5507 3.95781 10.304 3.32434 10.304C2.85009 10.304 2.39709 10.4423 2.01137 10.6997L1.326 10.0143L10.0143 1.326L10.6997 2.01137C10.4423 2.39709 10.304 2.85009 10.304 3.32434C10.304 3.95784 10.5507 4.55341 10.9987 5.00134C11.4466 5.44931 12.0422 5.696 12.6757 5.696C13.1499 5.696 13.6029 5.55772 13.9886 5.30031L14.674 5.98566L5.98566 14.674L5.30031 13.9886Z" fill="#373737"/>
<path d="M9.34268 5.99472L8.67969 6.65771L9.34533 7.32336L10.0083 6.66037L9.34268 5.99472Z" fill="#373737"/>
<path d="M8.01065 4.66221L7.34766 5.3252L8.0133 5.99084L8.67629 5.32785L8.01065 4.66221Z" fill="#373737"/>
<path d="M10.6728 7.32577L10.0098 7.98877L10.6754 8.65442L11.3384 7.99142L10.6728 7.32577Z" fill="#373737"/>
</svg>
