<svg width="14" height="14" viewBox="0 0 14 14" fill="none" xmlns="http://www.w3.org/2000/svg">
<path d="M6.26944 12.5887C6.15193 13.123 5.86328 13.5184 5.39209 13.7633C4.79312 14.0732 4.18273 14.063 3.61571 13.6995C3.027 13.3258 2.7703 12.7596 2.81365 12.0646C2.82392 11.9472 2.79198 11.9039 2.69614 11.8504C1.65792 11.3058 0.83533 10.547 0.268302 9.52162C0.161057 9.31882 0.0754897 9.10463 0.0218674 8.88019C-0.0534321 8.57029 0.0652216 8.42104 0.385815 8.38914C0.77144 8.34584 1.11371 8.19659 1.28485 7.83315C1.36014 7.6725 1.40236 7.4811 1.40236 7.2988C1.42404 6.83966 1.40236 6.38051 1.42404 5.92022C1.54155 4.1463 2.27971 2.67315 3.62826 1.51902C4.86842 0.452612 6.32307 -0.0486897 7.95912 0.00371917C10.8159 0.110816 13.2655 2.11944 13.8427 4.92901C14.3664 7.47198 13.5758 9.59796 11.553 11.2534C11.4354 11.3491 11.3065 11.4459 11.1673 11.5314C11.092 11.5849 11.0715 11.6271 11.1034 11.7125C11.3704 12.5249 10.9962 13.4215 10.2478 13.8066C9.23122 14.3091 8.05495 13.7964 7.74463 12.706C7.73436 12.6627 7.68074 12.6103 7.64879 12.6103C7.20042 12.5784 6.73949 12.5887 6.26944 12.5887ZM6.29112 11.8732C6.77258 11.8732 7.25404 11.8948 7.7355 11.8629C8.17361 11.8413 8.63453 11.7991 9.06237 11.692C12.4645 10.8592 14.2831 7.10854 12.7954 3.93666C11.8964 2.02374 10.3562 0.933407 8.24891 0.70896C6.63339 0.538062 5.18901 1.01886 3.96939 2.10805C2.77144 3.18699 2.15079 4.53253 2.10858 6.14581C2.09831 6.51951 2.10858 6.9046 2.10858 7.2783C2.09717 8.09177 1.63738 8.72182 0.855866 8.96677C0.845598 8.96677 0.823921 8.98842 0.812512 8.98842C1.11257 9.77911 2.33105 10.9435 3.09089 11.2317C4.04469 9.92836 5.96939 10.3886 6.29112 11.8732Z" fill="#94C05B"/>
<path d="M8.54806 9.08504C7.28508 9.02124 6.45108 8.5188 5.916 7.51505C5.78708 7.26896 5.90573 7.024 6.15103 6.97045C6.30048 6.93855 6.43967 7.04565 6.54692 7.21655C6.68611 7.43074 6.8253 7.64379 7.0067 7.81469C8.01184 8.76489 9.6593 8.46639 10.2914 7.2382C10.3667 7.08894 10.4625 6.97159 10.6439 6.97159C10.9109 6.98185 11.0615 7.24959 10.944 7.49454C10.6119 8.16788 10.0883 8.65893 9.38206 8.89363C9.07173 8.99959 8.75114 9.04174 8.54806 9.08504Z" fill="#94C05B"/>
<path d="M6.312 5.5791C5.92637 5.5791 5.61719 5.26921 5.61719 4.88525C5.61719 4.5013 5.92751 4.19141 6.312 4.19141C6.69648 4.19141 7.0068 4.5013 7.0068 4.88525C7.00795 5.25895 6.69762 5.5791 6.312 5.5791Z" fill="#94C05B"/>
<path d="M11.2114 4.87354C11.2114 5.25863 10.9011 5.56738 10.5268 5.57878C10.1412 5.57878 9.83203 5.27913 9.83203 4.88493C9.83203 4.49984 10.1321 4.19108 10.5166 4.17969C10.8908 4.17969 11.2 4.48958 11.2114 4.87354Z" fill="#94C05B"/>
</svg>
