<svg width="108" height="108" viewBox="0 0 108 108" fill="none" xmlns="http://www.w3.org/2000/svg">
<path d="M58.9365 9.05078H27.7282C25.3633 9.05078 23.0954 9.99021 21.4232 11.6624C19.751 13.3346 18.8115 15.6026 18.8115 17.9674V89.3008C18.8115 91.6656 19.751 93.9336 21.4232 95.6058C23.0954 97.278 25.3633 98.2175 27.7282 98.2175H81.2282C83.593 98.2175 85.861 97.278 87.5332 95.6058C89.2054 93.9336 90.1449 91.6656 90.1449 89.3008V40.2591L58.9365 9.05078Z" stroke="#A7A7A7" stroke-linecap="round" stroke-linejoin="round"/>
<path d="M58.9365 9.05078V40.2591H90.1449" stroke="#A7A7A7" stroke-linecap="round" stroke-linejoin="round"/>
<circle cx="88.4785" cy="93.6328" r="13.5" fill="#94C05B"/>
<path d="M88.3887 97.4375H89.6777L89.7598 85.1328H88.3066L88.3887 97.4375ZM89.9121 101.363C89.9121 101.105 89.8301 100.887 89.666 100.707C89.4941 100.52 89.2559 100.426 88.9512 100.426C88.6543 100.426 88.4199 100.52 88.248 100.707C88.0684 100.887 87.9785 101.105 87.9785 101.363C87.9785 101.629 88.0684 101.852 88.248 102.031C88.4199 102.203 88.6543 102.289 88.9512 102.289C89.2559 102.289 89.4941 102.203 89.666 102.031C89.8301 101.852 89.9121 101.629 89.9121 101.363Z" fill="white"/>
</svg>
