<svg width="65" height="65" viewBox="0 0 65 65" fill="none" xmlns="http://www.w3.org/2000/svg">
<g clip-path="url(#clip0_15404_90057)">
<path d="M31.9846 22L25.4482 36.9848H27.1815L28.9068 32.9226L31.9522 25.7175L35.2892 33.7761L36.6094 36.9848H38.3589L31.9846 22Z" fill="#676A6A"/>
<path d="M22.6055 22.6719L16.5794 28.7938V22.6719H15V36.9673H16.5794V30.8043L16.9763 30.4104L22.7756 36.9673H24.9544L18.0778 29.3272L24.7276 22.6719H22.6055Z" fill="#676A6A"/>
<path d="M40.554 30.6895H40.9509L41.0157 30.353H42.9515L42.6599 30.5582C44.8387 30.3694 46.2075 28.8184 46.2075 26.6109C46.2075 23.3858 43.7048 22.6719 41.0238 22.6719H38.9746V36.9673H40.554V30.6895ZM40.554 24.149H41.0238C42.9191 24.149 44.6281 24.3788 44.6281 26.7258C44.6281 28.9415 42.8219 29.2862 41.04 29.2862H40.554V24.149Z" fill="#676A6A"/>
<path d="M47.5439 22.6719V24.149H50.962V36.9673H52.5414V24.149H55.9999V22.6719H47.5439Z" fill="#676A6A"/>
<path d="M29.8711 31.3467C31.7664 30.0501 34.1882 29.1884 36.861 28.9997C43.2516 28.5483 48.7269 32.0934 49.2696 36.968C47.2123 32.7253 41.907 29.8121 35.2411 30.2799C33.5321 30.4029 31.3695 30.8461 29.8711 31.3467Z" fill="#B2D340"/>
<path d="M24.2501 40.8003C24.0719 40.5869 23.7561 40.3407 23.3025 40.3407C22.6302 40.3407 22.1604 40.8659 22.1604 41.5471C22.1604 42.3431 22.7598 42.737 23.2863 42.737C23.7237 42.737 24.0638 42.4744 24.2825 42.2364V42.6057C24.1043 42.7698 23.7642 42.9914 23.2782 42.9914C22.452 42.9914 21.877 42.3677 21.877 41.5471C21.877 40.7264 22.4196 40.0781 23.3025 40.0781C23.4969 40.0781 23.8775 40.111 24.2501 40.431V40.8003Z" fill="#676A6A"/>
<path d="M27.7243 41.5388C27.7243 42.3595 27.1006 42.9996 26.2825 42.9996C25.4726 42.9996 24.8408 42.3677 24.8408 41.5388C24.8408 40.7182 25.4645 40.0781 26.2825 40.0781C27.1006 40.0863 27.7243 40.7182 27.7243 41.5388ZM27.4408 41.5388C27.4408 40.8659 26.9467 40.3407 26.2825 40.3407C25.6265 40.3407 25.1243 40.8659 25.1243 41.5388C25.1243 42.2118 25.6184 42.737 26.2825 42.737C26.9386 42.737 27.4408 42.2118 27.4408 41.5388Z" fill="#676A6A"/>
<path d="M29.6842 40.6526C29.587 40.431 29.4007 40.3407 29.2063 40.3407C28.8985 40.3407 28.7446 40.5787 28.7446 40.7839C28.7446 41.0547 28.9633 41.1449 29.2306 41.2516C29.506 41.3583 29.7652 41.4322 29.9353 41.6619C30.0487 41.8015 30.073 41.9574 30.073 42.1133C30.073 42.7452 29.6032 42.9996 29.182 42.9996C28.7284 42.9996 28.3478 42.7288 28.2344 42.261L28.4936 42.1789C28.5908 42.5482 28.8742 42.737 29.182 42.737C29.5303 42.737 29.7976 42.4826 29.7976 42.1215C29.7976 41.8097 29.6032 41.6948 29.182 41.5224C28.9066 41.4075 28.7041 41.3173 28.5827 41.1532C28.526 41.0711 28.4612 40.9562 28.4612 40.7921C28.4612 40.3736 28.777 40.0781 29.1901 40.0781C29.5141 40.0781 29.7814 40.2258 29.911 40.5295L29.6842 40.6526Z" fill="#676A6A"/>
<path d="M30.7617 40.1438H31.029V40.4884C31.2396 40.1274 31.5555 40.0781 31.7418 40.0781C32.2763 40.0781 32.4545 40.4392 32.5112 40.5787C32.6651 40.2423 32.9648 40.0781 33.3212 40.0781C33.6209 40.0781 33.8153 40.1848 33.9367 40.3079C34.1554 40.5295 34.1716 40.8413 34.1716 41.0629V42.9257H33.9043V41.0711C33.9043 40.8906 33.8881 40.6526 33.7424 40.4966C33.6209 40.3653 33.4589 40.3407 33.3293 40.3407C32.6003 40.3407 32.6003 41.0793 32.6003 41.2434V42.9257H32.333V41.1449C32.333 40.9644 32.3168 40.3489 31.7256 40.3489C31.2477 40.3489 31.029 40.7675 31.029 41.3255V42.9257H30.7617V40.1438Z" fill="#676A6A"/>
<path d="M35.2486 41.5631C35.2486 42.2688 35.7589 42.7366 36.334 42.7366C36.7794 42.7366 37.1115 42.474 37.2897 42.1047L37.5165 42.2442C37.3545 42.556 36.99 42.9992 36.3097 42.9992C35.4592 42.9992 34.957 42.3591 34.957 41.5467C34.957 40.5783 35.6131 40.0859 36.2854 40.0859C37.0224 40.0859 37.5813 40.685 37.5813 41.5713H35.2486V41.5631ZM37.314 41.3087C37.2492 40.7589 36.8442 40.3403 36.3016 40.3403C35.7427 40.3403 35.3458 40.7671 35.2729 41.3087H37.314Z" fill="#676A6A"/>
<path d="M38.6835 40.4079V42.9273H38.4081V40.4079H38.1084V40.1453H38.4081V39.1523H38.6835V40.1453H39.1613V40.4079H38.6835Z" fill="#676A6A"/>
<path d="M39.5898 39.2153C39.5898 39.0676 39.6951 38.9609 39.8328 38.9609C39.9705 38.9609 40.0758 39.0594 40.0758 39.2153C40.0758 39.363 39.9705 39.4697 39.8328 39.4697C39.6951 39.4697 39.5898 39.363 39.5898 39.2153ZM39.9624 42.9246H39.6951V40.1427H39.9624V42.9246Z" fill="#676A6A"/>
<path d="M43.13 40.8003C42.9518 40.5869 42.6359 40.3407 42.1824 40.3407C41.5101 40.3407 41.0403 40.8659 41.0403 41.5471C41.0403 42.3431 41.6397 42.737 42.1662 42.737C42.6035 42.737 42.9437 42.4744 43.1624 42.2364V42.6057C42.9842 42.7698 42.644 42.9914 42.1581 42.9914C41.3319 42.9914 40.7568 42.3677 40.7568 41.5471C40.7568 40.7264 41.2995 40.0781 42.1824 40.0781C42.3768 40.0781 42.7574 40.111 43.13 40.431V40.8003Z" fill="#676A6A"/>
<path d="M45.0738 40.6526C44.9766 40.431 44.7904 40.3407 44.596 40.3407C44.2882 40.3407 44.1343 40.5787 44.1343 40.7839C44.1343 41.0547 44.353 41.1449 44.6203 41.2516C44.8957 41.3583 45.1548 41.4322 45.3249 41.6619C45.4383 41.8015 45.4626 41.9574 45.4626 42.1133C45.4626 42.7452 44.9929 42.9996 44.5717 42.9996C44.1181 42.9996 43.7374 42.7288 43.624 42.261L43.8832 42.1789C43.9804 42.5482 44.2639 42.737 44.5717 42.737C44.92 42.737 45.1872 42.4826 45.1872 42.1215C45.1872 41.8097 44.9929 41.6948 44.5717 41.5224C44.2963 41.4075 44.0938 41.3173 43.9723 41.1532C43.9156 41.0711 43.8508 40.9562 43.8508 40.7921C43.8508 40.3736 44.1667 40.0781 44.5798 40.0781C44.9038 40.0781 45.171 40.2258 45.3006 40.5295L45.0738 40.6526Z" fill="#676A6A"/>
</g>
<path d="M56.875 31.1459C56.8843 34.7206 56.0491 38.2468 54.4375 41.4376C52.5266 45.2611 49.5889 48.477 45.9535 50.7252C42.3181 52.9734 38.1286 54.1651 33.8542 54.1667C30.2795 54.1761 26.7532 53.3409 23.5625 51.7292L8.125 56.8751L13.2708 41.4376C11.6592 38.2468 10.824 34.7206 10.8333 31.1459C10.835 26.8715 12.0267 22.682 14.2749 19.0466C16.5231 15.4112 19.739 12.4735 23.5625 10.5626C26.7532 8.95093 30.2795 8.11576 33.8542 8.12508H35.2083C40.8534 8.43651 46.1853 10.8192 50.1831 14.817C54.1809 18.8148 56.5636 24.1466 56.875 29.7917V31.1459Z" stroke="#373737" stroke-width="1.5" stroke-linecap="round" stroke-linejoin="round"/>
<defs>
<clipPath id="clip0_15404_90057">
<rect width="41" height="21" fill="white" transform="translate(15 22)"/>
</clipPath>
</defs>
</svg>
