<svg width="24" height="25" viewBox="0 0 24 25" fill="none" xmlns="http://www.w3.org/2000/svg">
<g id="fi:camera">
<path id="Vector" d="M23 19.957C23 20.4875 22.7893 20.9962 22.4142 21.3712C22.0391 21.7463 21.5304 21.957 21 21.957H3C2.46957 21.957 1.96086 21.7463 1.58579 21.3712C1.21071 20.9962 1 20.4875 1 19.957V8.95703C1 8.4266 1.21071 7.91789 1.58579 7.54282C1.96086 7.16774 2.46957 6.95703 3 6.95703H7L9 3.95703H15L17 6.95703H21C21.5304 6.95703 22.0391 7.16774 22.4142 7.54282C22.7893 7.91789 23 8.4266 23 8.95703V19.957Z" stroke="#373737" stroke-linecap="round" stroke-linejoin="round"/>
<path id="Vector_2" d="M12 17.957C14.2091 17.957 16 16.1662 16 13.957C16 11.7479 14.2091 9.95703 12 9.95703C9.79086 9.95703 8 11.7479 8 13.957C8 16.1662 9.79086 17.957 12 17.957Z" stroke="#373737" stroke-linecap="round" stroke-linejoin="round"/>
</g>
</svg>
