<svg width="14" height="12" viewBox="0 0 14 12" fill="none" xmlns="http://www.w3.org/2000/svg">
<path d="M13.4603 3.05676L11.2083 0.354275C11.1655 0.303154 11.1022 0.273438 11.0353 0.273438H2.47742C2.41054 0.273438 2.34725 0.302943 2.30445 0.354275L0.0523829 3.05676C-0.00369899 3.12388 -0.0158655 3.21733 0.0212937 3.29637C0.0584529 3.37541 0.137944 3.42608 0.225326 3.42608H13.2873C13.3747 3.42608 13.4542 3.37541 13.4914 3.29637C13.5283 3.21757 13.5164 3.12409 13.4603 3.05676ZM0.706179 2.97569L2.58282 0.723623H10.9297L12.8063 2.97569H0.706179Z" fill="#101423"/>
<path d="M6.96428 0.412389C6.92937 0.328173 6.84718 0.273438 6.75619 0.273438H2.47726C2.39663 0.273438 2.32231 0.316456 2.28201 0.386499C2.24171 0.456542 2.24193 0.54234 2.2827 0.612146L3.85914 3.31463C3.89427 3.37475 3.95531 3.41553 4.02467 3.42453C4.03436 3.42566 4.04404 3.42632 4.05349 3.42632C4.11295 3.42632 4.17038 3.40291 4.21295 3.36034L6.91543 0.657856C6.97983 0.593461 6.9992 0.496604 6.96428 0.412389ZM4.10078 2.83539L2.86912 0.723861H6.21231L4.10078 2.83539Z" fill="#101423"/>
<path d="M13.4889 3.102C13.451 3.0252 13.3727 2.97656 13.2871 2.97656H0.225057C0.139469 2.97656 0.0613241 3.0252 0.0232676 3.102C-0.0145778 3.1788 -0.00578943 3.27046 0.0462282 3.33847L6.57725 11.8964C6.61982 11.9522 6.68603 11.9851 6.75629 11.9851C6.82654 11.9851 6.89276 11.9522 6.93488 11.8964L13.4659 3.33847C13.5179 3.27046 13.5267 3.1788 13.4889 3.102ZM6.75629 11.3887L0.680415 3.42722H12.8322L6.75629 11.3887Z" fill="#101423"/>
<path d="M6.97093 11.6919L4.26844 3.13399C4.23873 3.0403 4.152 2.97656 4.05359 2.97656H0.225057C0.139469 2.97656 0.0613241 3.0252 0.0232676 3.102C-0.0145778 3.1788 -0.00578943 3.27046 0.0462282 3.33847L6.57725 11.8964C6.62093 11.9538 6.68783 11.9851 6.75629 11.9851C6.79141 11.9851 6.82699 11.977 6.85987 11.9594C6.95697 11.9092 7.00379 11.7961 6.97093 11.6919ZM0.680204 3.42722H3.88851L6.15319 10.5987L0.680204 3.42722Z" fill="#101423"/>
<path d="M11.2307 0.386499C11.1906 0.316456 11.1161 0.273438 11.0355 0.273438H6.75651C6.66554 0.273438 6.58333 0.328173 6.54841 0.412389C6.5135 0.496604 6.53287 0.593461 6.59729 0.657856L9.29978 3.36035C9.34211 3.40291 9.39954 3.42632 9.459 3.42632C9.46868 3.42632 9.47837 3.42564 9.48805 3.42453C9.5572 3.41553 9.61845 3.37499 9.65358 3.31464L11.23 0.612146C11.2706 0.54234 11.2708 0.456542 11.2307 0.386499ZM9.4117 2.83539L7.30015 0.723861H10.6433L9.4117 2.83539Z" fill="#101423"/>
<path d="M13.4894 3.102C13.4515 3.0252 13.3732 2.97656 13.2876 2.97656H9.45904C9.36062 2.97656 9.27369 3.0403 9.24418 3.13399L6.5417 11.6919C6.50881 11.7959 6.55566 11.909 6.65273 11.9594C6.68561 11.9765 6.72119 11.9847 6.75631 11.9847C6.82456 11.9847 6.89144 11.9534 6.93535 11.8964L13.4664 3.33849C13.5184 3.27043 13.5272 3.17877 13.4894 3.102ZM7.35923 10.5982L9.62391 3.42672H12.8322L7.35923 10.5982Z" fill="#101423"/>
</svg>
