<svg width="74" height="74" viewBox="0 0 74 74" fill="none" xmlns="http://www.w3.org/2000/svg">
<circle cx="37" cy="37" r="36.5" stroke="#94C05B"/>
<path d="M22 45V35C22 31.0218 23.5804 27.2064 26.3934 24.3934C29.2064 21.5804 33.0218 20 37 20C40.9782 20 44.7936 21.5804 47.6066 24.3934C50.4196 27.2064 52 31.0218 52 35V45" stroke="#93C05B" stroke-linecap="round" stroke-linejoin="round"/>
<path d="M52 46.6673C52 47.5514 51.6488 48.3992 51.0237 49.0243C50.3986 49.6495 49.5507 50.0007 48.6667 50.0007H47C46.1159 50.0007 45.2681 49.6495 44.643 49.0243C44.0179 48.3992 43.6667 47.5514 43.6667 46.6673V41.6673C43.6667 40.7833 44.0179 39.9354 44.643 39.3103C45.2681 38.6852 46.1159 38.334 47 38.334H52V46.6673ZM22 46.6673C22 47.5514 22.3512 48.3992 22.9763 49.0243C23.6014 49.6495 24.4493 50.0007 25.3333 50.0007H27C27.8841 50.0007 28.7319 49.6495 29.357 49.0243C29.9821 48.3992 30.3333 47.5514 30.3333 46.6673V41.6673C30.3333 40.7833 29.9821 39.9354 29.357 39.3103C28.7319 38.6852 27.8841 38.334 27 38.334H22V46.6673Z" stroke="#93C05B" stroke-linecap="round" stroke-linejoin="round"/>
</svg>
