<svg width="110" height="57" viewBox="0 0 110 57" fill="none" xmlns="http://www.w3.org/2000/svg">
<path opacity="0.2" d="M49.0777 1.352C48.7897 1.096 48.4377 1 48.0537 0.903999C47.8297 0.839996 47.6057 0.935997 47.4137 1.128C47.2217 1.288 46.9977 1.48 46.8377 1.672C46.2937 2.344 45.7817 2.984 45.2697 3.656C44.4697 4.68 43.7337 5.704 42.9657 6.728C42.4537 7.432 41.9417 8.136 41.4297 8.808L39.8297 11.016C39.3177 11.752 38.7737 12.456 38.2617 13.192L35.7657 16.616C35.1577 17.448 34.5497 18.312 33.9417 19.112C33.3657 19.912 32.8537 20.744 32.2137 21.512L30.9977 23.144C30.6457 23.656 30.2937 24.168 29.9097 24.68L27.7017 27.656C27.4777 27.944 27.2217 28.2 27.0617 28.488C26.4857 29.352 25.7817 30.088 25.1737 30.888C24.7577 31.464 24.2777 32.008 23.8297 32.552L22.2937 34.28C21.9737 34.6 21.6537 34.888 21.3337 35.176C21.3017 35.24 21.2057 35.272 21.1097 35.304C21.0137 35.048 20.9497 34.792 20.9817 34.504C21.0457 34.056 21.0777 33.608 21.2057 33.16C21.4937 32.104 21.7817 31.016 22.1977 29.992L22.2937 29.768C22.6137 28.936 22.9337 28.072 23.2857 27.208C23.3497 27.048 23.4457 26.952 23.5097 26.792V26.824C23.5417 26.728 23.5417 26.632 23.5737 26.568C23.8297 25.96 24.0857 25.352 24.3417 24.744L24.6617 24.168C24.7257 23.944 24.7897 23.752 24.9497 23.56H24.9177C24.9817 23.336 25.0777 23.144 25.2377 22.952C25.2697 22.792 25.3337 22.6 25.4297 22.408L26.1017 20.968C26.1657 20.84 26.2617 20.744 26.2937 20.648C26.3577 20.552 26.4217 20.488 26.4537 20.392C26.5817 19.912 26.8377 19.464 27.0617 19.016C27.0937 18.952 27.1897 18.856 27.2537 18.76L27.2217 18.792C27.2537 18.728 27.2857 18.664 27.3177 18.632C27.4777 18.536 27.5417 18.376 27.5737 18.184C27.5417 18.184 27.5417 18.184 27.5097 18.184L27.4457 18.28V18.248L27.5097 18.184C27.5417 18.088 27.6057 18.024 27.6377 17.928C27.7017 17.736 27.7657 17.544 27.8617 17.352C28.1177 16.808 28.4057 16.296 28.6617 15.752C28.7577 15.592 28.8537 15.432 28.9497 15.304C29.0137 15.08 29.1097 14.888 29.2057 14.664C29.5257 13.992 29.8457 13.32 30.1337 12.616C30.3577 12.168 30.5177 11.688 30.7097 11.208C30.7417 11.08 30.7417 10.984 30.6457 10.92C30.4537 10.76 30.2617 10.568 29.9737 10.568C29.8777 10.536 29.7817 10.536 29.7177 10.504C29.3337 10.376 28.9817 10.504 28.6617 10.792L27.7977 11.656C27.2537 12.232 26.7737 12.872 26.2297 13.416C26.1657 13.448 26.1337 13.512 26.1017 13.576L24.7257 15.24C24.4057 15.656 24.0857 16.04 23.7337 16.424L21.9097 18.6C21.5577 19.048 21.1737 19.496 20.7897 19.944L19.9897 20.904C19.5097 21.48 18.9977 22.088 18.5177 22.696L16.7897 24.808C16.0217 25.8 15.2217 26.76 14.4537 27.752C13.6537 28.776 12.8537 29.8 12.0217 30.856L10.4857 32.872C9.58969 34.088 8.66169 35.304 7.73369 36.52C6.70969 37.928 5.71769 39.368 4.66169 40.744C4.08569 41.48 3.54169 42.28 2.99769 43.048C2.77369 43.368 2.54969 43.656 2.22969 43.88C2.26169 43.816 2.26169 43.784 2.26169 43.752C2.58169 42.952 2.83769 42.12 3.22169 41.352C3.28569 41.256 3.31769 41.192 3.34969 41.096C3.60569 40.424 3.86169 39.752 4.14969 39.112C4.40569 38.376 4.82169 37.704 5.07769 36.968C5.30169 36.264 5.65369 35.56 5.94169 34.856C6.29369 34.088 6.64569 33.32 6.96569 32.552L8.02169 30.088C8.11769 29.832 8.21369 29.544 8.30969 29.288L7.82969 30.248C7.34969 31.336 6.90169 32.392 6.45369 33.48C5.68569 35.208 4.94969 36.936 4.21369 38.696C3.70169 39.848 3.22169 41 2.74169 42.152C2.45369 42.856 2.19769 43.528 1.94169 44.2C1.87769 44.328 1.84569 44.488 1.71769 44.584C1.65369 44.488 1.71769 44.36 1.78169 44.264C2.22969 43.112 2.67769 41.96 3.15769 40.808C4.24569 38.216 5.36569 35.624 6.48569 33.032C7.18969 31.4 7.92569 29.768 8.62969 28.104C9.10969 27.048 9.55769 25.96 10.0057 24.904L10.2937 24.328C10.2937 24.296 10.3257 24.232 10.3897 24.104V24.328C10.5497 24.104 10.6457 23.848 10.6777 23.56C10.6457 23.56 10.6457 23.56 10.6137 23.56V23.496C10.6457 23.464 10.6457 23.464 10.6777 23.464C10.6777 23.464 10.6777 23.464 10.6777 23.496V23.56C10.7417 23.432 10.8377 23.304 10.9017 23.176L11.1897 22.216C11.1897 22.216 11.1897 22.184 11.1577 22.184C11.5417 21.48 11.5737 20.808 11.6697 20.104C11.6697 20.04 11.6377 19.976 11.5417 19.976C11.4777 19.976 11.3817 20.008 11.3497 20.072C11.2857 20.136 11.2537 20.264 11.2217 20.36C10.8377 21.384 10.4537 22.408 10.0057 23.432L8.75769 26.184C8.34169 27.112 7.89369 28.04 7.47769 28.968C6.90169 30.216 6.32569 31.464 5.78169 32.712C5.62169 33.032 5.49369 33.352 5.33369 33.672C4.88569 34.696 4.40569 35.72 3.95769 36.744C3.60569 37.544 3.25369 38.344 2.93369 39.144L1.87769 41.544C1.71769 41.928 1.52569 42.312 1.36569 42.696L0.789689 44.232C0.597689 44.808 0.405689 45.384 0.277689 45.96C0.213689 46.312 0.245689 46.408 0.565689 46.568L0.821689 46.664C1.17369 46.824 1.52569 46.728 1.84569 46.408C2.00569 46.312 2.13369 46.152 2.22969 46.024C2.67769 45.48 3.09369 44.936 3.50969 44.36C4.21369 43.432 4.91769 42.504 5.62169 41.544C6.22969 40.744 6.80569 39.944 7.38169 39.144C8.14969 38.088 8.91769 37.064 9.71769 36.008C10.8697 34.536 11.9577 33.032 13.1417 31.592L14.4537 29.864C15.1577 28.968 15.8617 28.104 16.5657 27.208L17.6217 25.864C18.2297 25.16 18.8057 24.456 19.4137 23.72C19.7977 23.24 20.1817 22.76 20.5977 22.28C21.0457 21.704 21.5257 21.128 22.0057 20.52C22.2617 20.232 22.5497 19.944 22.8057 19.624C23.4777 18.824 24.1497 18.024 24.8537 17.224L27.2537 14.376C27.3817 14.216 27.5097 14.088 27.6697 13.928C27.7337 13.864 27.7977 13.768 27.9257 13.768C27.9577 13.96 27.8297 14.12 27.7657 14.312C27.4137 14.984 27.0937 15.688 26.7417 16.36C26.3577 17.096 26.0057 17.832 25.6537 18.568C25.3657 19.112 25.1097 19.688 24.8217 20.232C24.6297 20.68 24.4057 21.16 24.1817 21.608C23.9577 22.056 23.7657 22.472 23.5737 22.888C22.9657 24.2 22.3897 25.512 21.8137 26.856C21.7817 26.952 21.7177 27.08 21.6857 27.176L20.9177 29.128C20.6297 29.96 20.3097 30.824 20.0537 31.656C19.7977 32.456 19.6377 33.256 19.4777 34.056C19.4137 34.472 19.4137 34.92 19.4137 35.336C19.4457 35.816 19.6697 36.136 20.0857 36.328C20.2137 36.392 20.3417 36.424 20.4697 36.488C20.7897 36.648 21.1417 36.616 21.4937 36.456C21.7817 36.36 22.0697 36.2 22.3257 35.976C22.8377 35.592 23.2857 35.176 23.7337 34.696C25.2377 33.032 26.6777 31.304 28.0217 29.512C28.1817 29.288 28.4057 29.064 28.5977 28.808L29.7177 27.272C29.7817 27.176 29.8777 27.048 29.9737 26.952C30.1977 26.632 30.4537 26.312 30.6777 25.992L30.9337 25.608C31.1257 25.32 31.3177 25.064 31.5417 24.808C31.8937 24.36 32.2137 23.912 32.5337 23.464C32.5657 23.368 32.6297 23.304 32.6937 23.24C32.9817 22.952 33.1737 22.632 33.3977 22.312C33.6857 21.896 33.9737 21.512 34.2937 21.096C34.3257 21.032 34.3577 20.968 34.3577 20.936C34.4537 20.712 34.6137 20.552 34.7737 20.392C34.8697 20.264 34.9977 20.136 35.0617 20.008C35.1577 19.816 35.2857 19.624 35.4457 19.464C35.5097 19.4 35.5737 19.336 35.6057 19.24C35.7337 19.016 35.8937 18.856 36.0537 18.664C36.3097 18.312 36.5337 17.928 36.8217 17.608L36.9177 17.48C37.0457 17.256 37.1737 17.032 37.3337 16.808C37.5577 16.456 37.7817 16.104 38.1337 15.784C38.1337 15.784 38.1657 15.752 38.1657 15.72H38.1977V15.624C38.2297 15.592 38.2297 15.528 38.2297 15.496C38.6137 15.016 38.9657 14.536 39.3177 14.056C39.3497 13.96 39.4137 13.896 39.4777 13.832C39.6377 13.64 39.8297 13.448 39.9577 13.256C40.1497 13 40.3097 12.68 40.4697 12.424C40.8217 12.232 40.8857 11.88 41.1097 11.656C41.1737 11.56 41.2377 11.464 41.3017 11.4C41.3657 11.336 41.3977 11.272 41.4297 11.208C41.5257 11.08 41.5897 10.952 41.6857 10.824L42.3897 9.864C42.6777 9.352 43.1257 8.936 43.4457 8.456C43.4777 8.424 43.5097 8.392 43.5417 8.392C43.5417 8.328 43.5737 8.264 43.6057 8.2C43.6377 8.168 43.6697 8.168 43.7017 8.2C43.8937 7.88 44.0537 7.528 44.3737 7.272C44.3737 7.208 44.4057 7.144 44.4057 7.048H44.4377C44.4377 7.048 44.4377 7.016 44.4697 7.016C44.7577 6.696 44.9817 6.312 45.3017 5.992C45.3657 5.928 45.3657 5.8 45.4297 5.736C45.7497 5.352 46.0377 4.904 46.3257 4.488C46.4537 4.328 46.5817 4.232 46.7737 4.2C46.8057 4.36 46.7417 4.488 46.6777 4.616C46.2937 5.576 45.8777 6.504 45.4617 7.432C45.2057 8.072 44.9177 8.712 44.6617 9.352C44.4057 9.928 44.1177 10.536 43.8617 11.144L42.6137 14.152C42.4217 14.632 42.1977 15.144 41.9737 15.624C41.6537 16.488 41.3017 17.352 40.9497 18.216L40.5657 19.208C40.3737 19.72 40.1817 20.2 39.9897 20.712L39.3177 22.408C39.2217 22.696 39.0937 22.984 38.9977 23.24L38.3257 25.128C38.0377 25.928 37.7497 26.696 37.4937 27.496C37.0457 28.712 36.6297 29.96 36.2137 31.176C36.0537 31.592 35.8937 32.04 35.7657 32.456C35.4777 33.448 35.1577 34.44 34.8377 35.432C34.8377 35.528 34.7737 35.624 34.7737 35.688C34.6777 35.912 34.5817 36.136 34.5177 36.36L33.3337 40.712C33.1097 41.448 32.9177 42.216 32.7257 42.984C32.4057 44.296 32.1497 45.576 31.7977 46.856C31.4777 48.168 31.2217 49.448 30.9337 50.728C30.6777 51.88 30.4537 53.032 30.2617 54.152C30.1657 54.568 30.1657 54.984 30.1017 55.4C30.0697 55.72 30.1977 55.944 30.5497 56.008C30.5817 56.008 30.6137 56.008 30.6457 56.04C30.8377 56.136 30.9977 56.104 31.1897 56.008C31.4137 55.944 31.4777 55.816 31.4777 55.624C31.4777 55.496 31.4777 55.368 31.4137 55.24C31.3817 55.048 31.3817 54.824 31.4137 54.568C31.4457 54.44 31.4777 54.312 31.4777 54.152C31.6377 53.384 31.7977 52.616 31.9897 51.848C32.1497 51.08 32.3417 50.312 32.5017 49.544C32.6617 48.872 32.8537 48.2 33.0137 47.528L33.3017 46.376C33.3657 46.408 33.3977 46.408 33.4297 46.44C33.4297 46.312 33.4297 46.184 33.4617 46.056C33.4937 45.736 33.5577 45.448 33.6217 45.16C33.6537 44.904 33.7497 44.68 33.8137 44.424C33.9737 43.816 34.1337 43.176 34.3257 42.568C34.3257 42.44 34.4217 42.344 34.4537 42.248L34.6457 41.32C34.6777 41.16 34.7097 41.032 34.7737 40.872C34.9337 40.232 35.1257 39.592 35.3177 38.952L35.7977 37.416C36.1177 36.392 36.4057 35.368 36.7257 34.344L37.7177 31.432C38.0377 30.472 38.3577 29.544 38.6777 28.584L39.6377 25.896C39.9897 24.936 40.3417 23.944 40.7257 22.984C40.7577 22.856 40.8537 22.728 40.9177 22.6L40.8857 22.632C40.9817 22.376 41.0137 22.152 41.1097 21.896C41.5577 20.776 41.9737 19.624 42.4537 18.472C43.2857 16.424 44.1177 14.344 44.9817 12.264C45.8457 10.216 46.7097 8.2 47.6057 6.152C47.6377 6.024 47.7337 5.928 47.7977 5.8C47.8297 5.672 47.8617 5.512 47.9257 5.384L48.5977 3.72C48.6617 3.496 48.7897 3.304 48.8857 3.08H48.8537L49.0457 2.504C49.1097 2.376 49.1737 2.248 49.2057 2.12C49.3337 1.8 49.3017 1.576 49.0777 1.352ZM47.6057 1.512C47.6057 1.544 47.6057 1.512 47.5737 1.512C47.6057 1.512 47.6057 1.512 47.6057 1.48H47.6377C47.6377 1.512 47.6377 1.512 47.6057 1.512ZM47.2217 2.152C47.1577 2.216 47.0937 2.312 47.0297 2.408C46.9657 2.504 46.9017 2.6 46.8057 2.664C46.6777 2.92 46.4857 3.176 46.2617 3.368V3.336C46.1977 3.528 46.1017 3.688 45.9097 3.784C45.8457 4.008 45.6857 4.232 45.4617 4.392C45.3657 4.616 45.2377 4.808 45.0137 4.968C44.9497 5.224 44.7897 5.416 44.5657 5.576C44.5017 5.8 44.3417 5.992 44.1497 6.184C44.1177 6.248 44.0857 6.28 44.0217 6.344C43.9257 6.568 43.7977 6.792 43.5737 6.952V6.92C43.4777 7.176 43.3177 7.368 43.1577 7.528C43.0937 7.592 43.0617 7.656 43.0297 7.72C42.9017 7.944 42.7737 8.136 42.5497 8.296C42.4857 8.552 42.3257 8.712 42.1337 8.904C42.1017 8.968 42.0377 9 42.0057 9.064C41.9097 9.288 41.7817 9.512 41.5577 9.672C41.4617 9.96 41.2377 10.216 40.9817 10.44C40.8537 10.728 40.6617 10.984 40.4057 11.208C40.3097 11.528 40.1177 11.752 39.8937 11.976C39.8297 12.04 39.7977 12.072 39.7657 12.136C39.6377 12.36 39.5097 12.584 39.3177 12.744C39.2857 12.808 39.2537 12.872 39.1897 12.904C39.0937 13.128 38.9657 13.352 38.7417 13.48C38.7097 13.544 38.6777 13.576 38.6457 13.64V13.672H38.6137L38.5177 13.832C38.4217 14.088 38.2937 14.28 38.0697 14.408C38.0697 14.376 38.0697 14.312 38.1017 14.248C38.0697 14.312 38.0697 14.376 38.0377 14.44H38.0697C37.9097 14.76 37.6857 15.112 37.3657 15.4C37.2697 15.688 37.0777 15.912 36.8537 16.168C36.7897 16.2 36.7577 16.264 36.7257 16.328C36.5657 16.616 36.4057 16.872 36.1497 17.064C36.1497 17.032 36.1817 17 36.1817 16.936C36.1817 16.968 36.1497 17.032 36.1177 17.096H36.1497C36.0217 17.384 35.8297 17.64 35.6057 17.864C35.5737 17.928 35.5097 17.992 35.4777 18.024C35.3177 18.312 35.1577 18.6 34.9017 18.792C34.8057 19.112 34.5817 19.336 34.3577 19.592C34.3257 19.624 34.2937 19.688 34.2297 19.752C34.1977 19.784 34.1657 19.848 34.1017 19.912C34.0377 20.136 33.8777 20.328 33.6857 20.488C33.6217 20.552 33.5897 20.616 33.5577 20.68C33.5257 20.712 33.4617 20.776 33.4297 20.84C33.3657 21 33.2697 21.16 33.1097 21.288C33.0777 21.32 33.0457 21.384 32.9817 21.448C32.9497 21.48 32.9177 21.544 32.8857 21.608C32.8217 21.672 32.7897 21.736 32.7577 21.768C32.6937 21.928 32.5977 22.088 32.4377 22.184C32.4057 22.248 32.3417 22.312 32.3097 22.376L32.2137 22.536C32.1497 22.6 32.0857 22.664 32.0537 22.728H31.9577C31.9257 22.792 31.9257 22.856 31.8937 22.888C31.8937 22.92 31.8617 22.952 31.8617 22.984L31.7657 23.144C31.7017 23.208 31.6697 23.272 31.6377 23.304L31.4777 23.496C31.4137 23.56 31.3497 23.656 31.3177 23.752C31.2537 23.784 31.2217 23.848 31.1897 23.912C31.1577 23.976 31.1257 24.008 31.0937 24.04V24.072H31.0617C31.0297 24.136 30.9977 24.2 30.9657 24.264L30.7417 24.488V24.52H30.7097C30.7097 24.584 30.6777 24.616 30.6137 24.68L30.6777 24.52L30.5817 24.68C30.3577 24.84 30.2297 25.064 30.1017 25.256C30.0697 25.32 30.0377 25.384 30.0057 25.448H29.9737C29.8777 25.576 29.7497 25.736 29.6217 25.864L29.2377 26.312C29.1417 26.536 29.0137 26.76 28.8217 26.92C28.6937 27.144 28.5657 27.368 28.3417 27.496C28.4377 27.24 28.5977 27.08 28.7577 26.888C28.8857 26.664 29.0137 26.472 29.2057 26.28L29.5577 25.8C31.3497 23.304 33.1417 20.84 34.9337 18.376C37.3657 15.016 39.8297 11.656 42.2617 8.296L45.8137 3.56C46.1657 3.08 46.5497 2.632 46.9337 2.152C47.0297 2.024 47.1577 1.928 47.2537 1.832C47.3177 1.768 47.3497 1.832 47.3817 1.896C47.4137 1.992 47.3177 2.088 47.2217 2.152ZM47.2217 3.08L47.0937 3.272C45.6537 5.096 44.2777 6.984 42.9017 8.872C40.9497 11.528 38.9977 14.216 37.0457 16.872L31.6057 24.36C30.9337 25.288 30.2297 26.216 29.5577 27.112C29.4297 27.272 29.3337 27.4 29.2057 27.528C29.1097 27.72 28.9497 27.944 28.7577 28.104C28.6297 28.264 28.5337 28.456 28.4057 28.648C28.0857 29.032 27.7977 29.416 27.4777 29.832C27.4457 29.8 27.4137 29.8 27.4137 29.8C27.4137 29.768 27.4137 29.768 27.4457 29.736C27.5737 29.576 27.6697 29.384 27.7977 29.224C28.1177 28.84 28.4377 28.456 28.7257 28.072C28.8217 27.848 28.9817 27.656 29.1737 27.464L29.7177 26.696C31.2217 24.616 32.7257 22.568 34.1977 20.52C35.2217 19.144 36.2457 17.736 37.2377 16.328L42.8697 8.648C43.9577 7.144 45.0777 5.672 46.1977 4.168C46.4537 3.784 46.7737 3.432 47.0617 3.08C47.0937 3.016 47.1577 2.984 47.2857 2.856C47.2537 2.984 47.2537 3.048 47.2217 3.08ZM46.3897 8.392C46.2297 8.808 46.1017 9.224 45.9097 9.64C45.2377 11.272 44.5337 12.904 43.8297 14.568L42.4857 17.896C42.1657 18.728 41.8457 19.56 41.5257 20.392L40.5657 22.856C40.0537 24.296 39.5097 25.768 38.9977 27.208L37.6537 31.016C37.2697 32.168 36.8857 33.32 36.5337 34.504C36.2137 35.432 35.9257 36.36 35.6377 37.32C35.4457 37.896 35.2857 38.504 35.1257 39.08C34.6137 40.872 34.1337 42.664 33.6537 44.456C33.3657 45.448 33.1097 46.472 32.8537 47.496C32.5977 48.52 32.3737 49.544 32.1177 50.568C31.8297 51.848 31.5737 53.128 31.2857 54.408C31.2857 54.44 31.2537 54.504 31.2217 54.568C31.1897 54.536 31.1897 54.504 31.1897 54.504C31.2857 53.896 31.3817 53.288 31.5417 52.712C31.6057 52.552 31.6377 52.424 31.6697 52.264C31.7337 51.72 31.8617 51.144 32.0217 50.568C32.1817 49.896 32.3097 49.224 32.5017 48.52C32.8217 47.144 33.1737 45.736 33.5257 44.36C33.8777 43.016 34.2297 41.672 34.6137 40.328C34.8377 39.496 35.0937 38.664 35.3497 37.832L35.9897 35.656C36.4697 34.152 36.9817 32.648 37.4937 31.112C38.1657 29.128 38.8377 27.176 39.5417 25.192C40.1177 23.624 40.7257 22.056 41.3337 20.488C42.2297 18.12 43.1897 15.816 44.1497 13.48C44.7897 11.944 45.4937 10.376 46.1657 8.808L46.3897 8.392C46.3897 8.232 46.4217 8.104 46.5497 7.976C46.5817 8.136 46.4857 8.264 46.3897 8.392ZM22.4857 28.296C22.9657 27.176 23.4137 26.024 23.9257 24.904C24.5977 23.4 25.3017 21.864 26.0377 20.36C27.1257 18.12 28.2777 15.848 29.3977 13.576L29.7817 12.712C29.8457 12.584 29.9097 12.456 30.0057 12.328C30.0377 12.488 29.9417 12.648 29.8777 12.808L28.5337 15.688C27.4137 17.96 26.2937 20.264 25.2057 22.536C24.3417 24.328 23.5097 26.184 22.7737 28.008C22.2937 29.224 21.8777 30.44 21.4297 31.656C21.2697 32.136 21.1417 32.616 21.0137 33.096H20.9817C21.0137 32.872 21.0457 32.648 21.1097 32.424C21.4617 31.048 21.9417 29.672 22.4857 28.296ZM38.6777 13.48C38.6137 13.544 38.5817 13.608 38.5497 13.672C38.5817 13.672 38.5817 13.672 38.6137 13.672L38.6457 13.64C38.6457 13.576 38.6457 13.544 38.6777 13.48ZM27.6377 13.512L27.5097 13.704C27.4777 13.608 27.5417 13.576 27.6377 13.512ZM26.6457 13.608C26.6457 13.64 26.6457 13.64 26.6137 13.672C26.6137 13.64 26.6137 13.64 26.6457 13.608C26.6457 13.608 26.6777 13.608 26.6777 13.576C26.6777 13.608 26.6777 13.608 26.6457 13.608ZM26.4857 13.736L26.5817 13.672C26.5817 13.704 26.5497 13.736 26.5177 13.768L26.4857 13.736ZM28.4057 14.024C28.4697 14.152 28.3417 14.248 28.2777 14.344C28.3097 14.248 28.2777 14.12 28.4057 14.024ZM27.3497 16.104C27.5417 15.688 27.7657 15.24 27.9897 14.824C28.0217 14.76 28.0857 14.696 28.1497 14.632C28.0857 14.856 28.0217 15.016 27.9257 15.208H27.9577H28.0217C27.9577 15.304 27.9577 15.24 27.9577 15.208C27.8297 15.4 27.7017 15.624 27.6057 15.816L27.2217 16.488C27.2537 16.36 27.2857 16.232 27.3497 16.104ZM26.3577 14.952C26.2617 15.144 26.1337 15.336 25.9417 15.464C25.8777 15.56 25.8137 15.656 25.7497 15.784C25.7177 15.592 25.8457 15.528 25.9417 15.464C26.0377 15.272 26.1977 15.08 26.3577 14.952C26.3897 14.92 26.4217 14.888 26.4537 14.824C26.4537 14.856 26.4537 14.856 26.4857 14.856L26.3577 14.952ZM37.3657 15.4C37.3977 15.336 37.3977 15.272 37.3977 15.176C37.3977 15.24 37.3977 15.336 37.3657 15.4ZM25.3657 16.168C25.3337 16.2 25.3017 16.2 25.3017 16.232C25.3017 16.2 25.3017 16.168 25.3337 16.136C25.3337 16.136 25.3657 16.136 25.3657 16.104V16.168ZM42.0377 16.776C42.0377 16.776 42.0377 16.776 42.0697 16.744V16.776C42.0697 16.808 42.0377 16.808 42.0377 16.808V16.776ZM22.2617 26.952C22.8057 25.704 23.3177 24.424 23.8937 23.208C24.8217 21.16 25.8137 19.176 26.8057 17.16L27.0617 16.776C27.0617 16.872 27.0297 17 26.9977 17.096C27.0297 17.096 27.0297 17.064 27.0297 17.064V17.096H27.0937C27.0617 17.16 27.0297 17.256 26.9657 17.352C26.9017 17.608 26.7737 17.896 26.5817 18.152V18.184C26.5177 18.28 26.4857 18.376 26.4537 18.44C26.3897 18.536 26.3577 18.632 26.2937 18.696C26.2617 18.792 26.2297 18.888 26.1657 18.952C26.1337 19.048 26.1017 19.144 26.0377 19.208C26.0057 19.304 26.0057 19.4 25.9417 19.496L25.2697 20.904C25.2377 21 25.1737 21.096 25.1097 21.16V21.192C25.1097 21.192 25.1097 21.192 25.0777 21.192L24.9817 21.448C24.9177 21.544 24.8857 21.672 24.8217 21.768C24.8537 21.672 24.8537 21.544 24.8857 21.416C24.7577 21.608 24.6617 21.832 24.5977 22.024H24.6937C24.6617 22.248 24.5657 22.408 24.4377 22.6V22.632L24.2777 22.888C24.2457 22.984 24.2137 23.08 24.1497 23.176V23.24C24.1177 23.304 24.0537 23.4 24.0217 23.496C23.9577 23.592 23.9257 23.72 23.8617 23.816C23.7657 24.136 23.6697 24.456 23.4457 24.744V24.776C23.3817 24.872 23.3497 24.968 23.3177 25.032V25.096C23.2537 25.192 23.2217 25.288 23.1577 25.352C23.1577 25.416 23.1257 25.448 23.0937 25.608V25.352C22.9337 25.576 22.8377 25.8 22.7737 26.056H22.8057C22.6777 26.344 22.5497 26.568 22.4217 26.856L22.2617 27.144C22.1657 27.08 22.2297 27.016 22.2617 26.952ZM23.8297 16.968C23.8297 16.968 23.8617 16.936 23.8297 16.968V16.968ZM23.7657 17.032C23.7337 17.064 23.7657 17.032 23.7977 16.968H23.8297L23.7977 17L23.7657 17.032ZM26.9657 17.352C26.9977 17.256 26.9977 17.192 27.0297 17.096H26.9977C26.9657 17.192 26.9337 17.256 26.8697 17.352H26.9657ZM41.8137 17.384C41.7817 17.608 41.6857 17.832 41.5257 18.024C41.5897 17.8 41.6537 17.608 41.8137 17.384ZM35.5097 17.832H35.5417H35.5737L35.5417 17.8L35.5097 17.832ZM26.2297 18.696H26.2937C26.3577 18.632 26.3897 18.536 26.4217 18.44C26.4857 18.376 26.5177 18.28 26.5497 18.184L26.5817 18.152C26.5817 18.056 26.6137 17.928 26.6457 17.832C26.4537 18.12 26.2937 18.408 26.2297 18.696ZM27.6377 17.928L27.6057 18.152C27.6377 18.088 27.6697 17.992 27.6377 17.928ZM27.6057 18.184V18.152L27.5737 18.184H27.6057ZM41.4937 18.152C41.4937 18.184 41.4937 18.184 41.4617 18.216C41.4617 18.216 41.4617 18.216 41.4297 18.216L41.4937 18.152ZM23.3497 18.536C23.4137 18.44 23.5097 18.344 23.5737 18.28C23.5097 18.376 23.4457 18.472 23.3497 18.536ZM26.1017 18.952H26.1657C26.1977 18.888 26.1977 18.792 26.2297 18.696C26.1657 18.792 26.1337 18.888 26.1017 18.952ZM25.9737 19.208H26.0377C26.0697 19.144 26.0697 19.048 26.1017 18.952C26.0377 19.048 26.0057 19.144 25.9737 19.208ZM41.0777 19.208C41.0777 19.208 41.0777 19.176 41.1097 19.144C41.0777 19.176 41.0777 19.208 41.0777 19.24C41.0457 19.24 41.0457 19.272 41.0457 19.272C41.0457 19.272 41.0457 19.24 41.0777 19.208ZM25.8457 19.496C25.8777 19.4 25.9097 19.304 25.9737 19.208H25.9417L25.8457 19.496ZM22.2617 19.816C22.3577 19.624 22.4857 19.432 22.7097 19.304C22.6137 19.496 22.5177 19.72 22.2617 19.816ZM25.6537 19.816C25.6857 19.784 25.6857 19.752 25.7177 19.752C25.7497 19.656 25.7817 19.56 25.8457 19.496C25.7817 19.56 25.7497 19.656 25.6857 19.752C25.6857 19.752 25.6857 19.784 25.6537 19.816ZM34.1977 19.72H34.2297C34.2297 19.688 34.2297 19.624 34.2617 19.592C34.2297 19.624 34.1977 19.688 34.1657 19.72H34.1977ZM21.4297 19.784L21.3977 19.816V19.784C21.4297 19.784 21.4617 19.752 21.4297 19.784ZM40.6937 20.168L40.7577 20.072C40.7577 20.04 40.7577 19.976 40.7897 19.944H40.8217C40.7897 19.976 40.7897 20.04 40.7577 20.072C40.7257 20.104 40.7257 20.136 40.7257 20.168C40.7257 20.168 40.6937 20.2 40.6617 20.2L40.6937 20.168ZM25.4297 20.328C25.4297 20.328 25.4297 20.296 25.4617 20.264C25.4297 20.296 25.4297 20.296 25.4297 20.328ZM25.3017 20.584V20.616C25.3337 20.52 25.3977 20.424 25.4297 20.328C25.3977 20.424 25.3337 20.52 25.3017 20.584ZM33.4617 20.68H33.5577C33.5577 20.616 33.5897 20.552 33.5897 20.488L33.4617 20.68ZM25.1737 20.84L25.3017 20.616C25.2377 20.68 25.2057 20.776 25.1737 20.84ZM20.5337 20.808C20.5657 20.808 20.5977 20.808 20.6297 20.776C20.5977 20.808 20.5977 20.84 20.5977 20.872L20.5337 20.808ZM25.0137 21.192H25.0777C25.1097 21.192 25.1097 21.16 25.1097 21.16C25.1097 21.032 25.1417 20.968 25.1737 20.84L25.0137 21.192ZM21.3017 21.032C21.2377 21.096 21.1417 21.192 21.0777 21.288C21.0777 21.288 21.0777 21.288 21.0457 21.288L21.0777 21.256C21.1417 21.192 21.2057 21.096 21.3017 21V21.032ZM40.3737 21.032V21.064H40.3417L40.3737 21.032ZM24.8857 21.448H24.9817C24.9817 21.352 25.0137 21.256 25.0137 21.16C24.9817 21.256 24.9177 21.352 24.8857 21.448ZM32.9177 21.416C32.9497 21.416 32.9817 21.448 32.9817 21.448C33.0137 21.384 33.0137 21.352 33.0137 21.288C32.9817 21.352 32.9497 21.384 32.9177 21.416ZM32.7897 21.608H32.8857C32.8857 21.544 32.8857 21.512 32.8857 21.448L32.7897 21.608ZM39.7977 22.568C39.8297 22.408 39.8617 22.28 39.9577 22.12C39.9897 22.056 39.9897 21.992 40.0217 21.896L40.0537 21.928C40.0217 21.992 39.9897 22.056 39.9577 22.12L39.7977 22.568C39.7657 22.728 39.7657 22.952 39.5417 23.176C39.5737 22.92 39.6697 22.728 39.7977 22.568ZM11.1577 22.088C11.1577 22.12 11.1897 22.12 11.1897 22.12C11.1897 22.152 11.1897 22.152 11.1577 22.184C11.1577 22.152 11.1577 22.152 11.1577 22.12V22.088ZM32.2137 22.376H32.2457H32.3097C32.3417 22.312 32.3417 22.248 32.3417 22.216C32.3097 22.248 32.2777 22.312 32.2137 22.376ZM24.2137 22.888H24.2777C24.3417 22.792 24.3737 22.696 24.4057 22.632L24.4377 22.6C24.4377 22.472 24.4697 22.408 24.4697 22.28C24.3417 22.472 24.2457 22.664 24.2137 22.888ZM32.1177 22.536H32.2137C32.2137 22.472 32.2137 22.44 32.2457 22.376C32.1817 22.44 32.1497 22.472 32.1177 22.536ZM19.6697 22.984C19.7017 22.888 19.7657 22.792 19.8937 22.728C19.7977 22.792 19.7337 22.888 19.6697 22.984ZM31.7657 22.984L31.7977 22.952V22.984C31.7977 22.984 31.8297 22.984 31.8617 22.984V22.952C31.8617 22.92 31.8937 22.92 31.8937 22.888V22.824C31.8617 22.856 31.8297 22.92 31.7657 22.984ZM23.9257 23.496H24.0217C24.0537 23.4 24.0857 23.304 24.1497 23.208V23.176C24.1817 23.048 24.1817 22.952 24.2137 22.888C24.0537 23.08 23.9897 23.272 23.9257 23.496ZM10.8377 22.952C10.8377 22.952 10.8377 22.952 10.8377 22.984V23.016L10.8057 22.984L10.8377 22.952ZM31.7657 22.984C31.7337 23.048 31.7017 23.08 31.6697 23.144H31.7657C31.7657 23.08 31.7657 23.048 31.7977 22.984H31.7657ZM31.5417 23.304H31.6377C31.6377 23.24 31.6697 23.208 31.6697 23.144C31.6377 23.208 31.5737 23.24 31.5417 23.304ZM23.7657 23.816H23.8617C23.8937 23.72 23.8937 23.592 23.9257 23.464C23.8937 23.592 23.8297 23.72 23.7657 23.816ZM25.0137 23.592H25.0457V23.528C25.0457 23.528 25.0457 23.56 25.0137 23.592C25.0137 23.592 24.9817 23.56 24.9497 23.56C24.9497 23.624 24.9817 23.656 25.0137 23.592ZM10.5817 23.624C10.5817 23.656 10.5817 23.688 10.5497 23.72C10.5497 23.72 10.5177 23.72 10.5177 23.688L10.5817 23.624ZM38.2297 26.664C38.2617 26.632 38.2937 26.6 38.3257 26.536C38.3577 26.408 38.4217 26.248 38.4857 26.12L38.6777 25.416C38.8377 24.936 39.0297 24.488 39.1897 24.04C39.2537 23.912 39.3177 23.784 39.3817 23.656L39.0617 24.84C39.0617 24.904 39.0617 24.968 39.0937 25.032C39.0617 25.032 39.0297 25.064 39.0297 25.064C39.0297 24.968 39.0617 24.904 39.0617 24.84C38.9017 25.096 38.8057 25.416 38.7097 25.704H38.7417C38.6457 25.832 38.5497 25.96 38.4857 26.12C38.4537 26.248 38.4217 26.408 38.3257 26.536C38.2937 26.6 38.2937 26.632 38.2937 26.664C38.2937 26.696 38.2617 26.696 38.2297 26.696V26.664ZM31.0937 23.912H31.1257H31.1897C31.1897 23.848 31.2217 23.816 31.2217 23.752C31.1897 23.816 31.1257 23.848 31.0937 23.912ZM30.9977 24.072C31.0297 24.072 31.0297 24.072 31.0617 24.072L31.0937 24.04C31.0937 24.008 31.0937 23.944 31.1257 23.912C31.0617 23.976 31.0297 24.008 30.9977 24.072ZM30.8377 24.264H30.9657C30.9657 24.2 30.9977 24.136 30.9977 24.072C30.9337 24.136 30.8697 24.2 30.8377 24.264ZM18.4857 24.424L18.4537 24.456V24.424C18.5497 24.328 18.6137 24.264 18.6777 24.168L18.4857 24.424ZM9.90969 24.2C9.97369 24.232 9.94169 24.296 9.90969 24.36C9.90969 24.392 9.87769 24.424 9.84569 24.456C9.78169 24.328 9.84569 24.264 9.90969 24.2ZM10.2297 24.776C10.3257 24.616 10.3577 24.488 10.3897 24.328H10.2937C10.2617 24.488 10.2297 24.616 10.2297 24.776ZM30.6457 24.52C30.6457 24.52 30.6457 24.52 30.6777 24.52V24.488V24.52H30.7097C30.7417 24.52 30.7417 24.488 30.7417 24.488C30.7417 24.424 30.7737 24.392 30.7737 24.36C30.7417 24.392 30.6777 24.456 30.6457 24.52ZM23.3497 24.776H23.4457V24.744C23.4777 24.616 23.4777 24.52 23.5097 24.424C23.4457 24.52 23.4137 24.648 23.3497 24.776ZM23.0937 25.352H23.1577C23.2217 25.288 23.2537 25.192 23.2857 25.096C23.2857 25.064 23.3177 25.064 23.3177 25.032C23.3177 24.936 23.3497 24.84 23.3497 24.744C23.2217 24.936 23.1257 25.16 23.0937 25.352ZM10.2297 24.776C9.97369 25.224 9.74969 25.704 9.62169 26.216C9.90969 25.736 10.1017 25.256 10.2297 24.776ZM9.30169 25.608C9.36569 25.416 9.46169 25.192 9.52569 25L9.62169 24.904C9.58969 25.256 9.55769 25.32 9.30169 25.608C9.20569 25.992 9.07769 26.28 8.85369 26.6C8.94969 26.28 9.07769 25.928 9.30169 25.608ZM16.7897 25.48C16.7897 25.48 16.7577 25.512 16.7257 25.512C16.7577 25.512 16.7577 25.48 16.7897 25.448H16.8217C16.8217 25.448 16.8217 25.48 16.7897 25.48ZM17.5257 25.576H17.4937H17.5257ZM38.8697 25.608V25.64L38.8377 25.672V25.64C38.8377 25.608 38.8697 25.608 38.8697 25.608ZM38.7417 25.704C38.7737 25.704 38.7737 25.704 38.8057 25.736C38.8057 25.768 38.7737 25.832 38.7417 25.928V25.704ZM22.8057 26.056H22.8697C22.8697 26.088 22.8377 26.152 22.8057 26.28V26.056ZM9.62169 26.216C9.46169 26.44 9.36569 26.664 9.33369 26.888C9.49369 26.696 9.58969 26.44 9.62169 26.216ZM16.7897 26.504C16.7897 26.504 16.7577 26.536 16.7257 26.536C16.7257 26.536 16.7577 26.504 16.7577 26.472C16.7897 26.472 16.7897 26.472 16.7897 26.44V26.504ZM23.6057 26.824H23.5097C23.5097 26.856 23.5417 26.888 23.6057 26.824ZM9.33369 26.888L9.17369 27.24C9.26969 27.144 9.30169 27.016 9.33369 26.888ZM1.42969 43.912V43.976H1.46169C1.39769 44.104 1.33369 44.264 1.26969 44.392H1.30169C1.26969 44.488 1.23769 44.552 1.20569 44.68L1.07769 44.552C1.07769 44.616 1.04569 44.68 1.04569 44.744H1.01369C1.04569 44.68 1.07769 44.616 1.07769 44.552C1.10969 44.264 1.23769 43.976 1.36569 43.656C2.13369 41.64 2.99769 39.592 3.89369 37.576C5.07769 34.888 6.29369 32.232 7.47769 29.544L8.24569 27.912C8.27769 27.752 8.37369 27.624 8.46969 27.496C8.50169 27.336 8.53369 27.176 8.69369 26.984C8.66169 27.24 8.56569 27.368 8.46969 27.496C8.43769 27.848 8.27769 28.168 8.14969 28.456C7.89369 29.096 7.60569 29.736 7.31769 30.344C7.06169 30.888 6.83769 31.464 6.58169 32.008L6.38969 32.456C6.29369 32.68 6.16569 32.904 6.06969 33.128L4.91769 35.752C4.88569 35.816 4.85369 35.848 4.82169 35.88L4.85369 35.848V35.88C4.78969 36.104 4.69369 36.328 4.53369 36.52L4.56569 36.552C4.37369 37.096 4.14969 37.672 3.82969 38.184C3.79769 38.28 3.73369 38.408 3.70169 38.504L3.54169 38.856C3.50969 39.112 3.41369 39.336 3.25369 39.528C3.18969 39.656 3.15769 39.752 3.09369 39.848L3.12569 39.88C2.96569 40.392 2.77369 40.872 2.51769 41.352V41.32C2.45369 41.448 2.42169 41.576 2.35769 41.672C2.35769 41.8 2.32569 41.928 2.22969 42.024C2.19769 42.152 2.16569 42.248 2.06969 42.344C2.06969 42.504 2.00569 42.664 1.90969 42.792C1.90969 42.824 1.87769 42.92 1.84569 42.952C1.74969 43.016 1.71769 43.08 1.71769 43.176C1.71769 43.304 1.68569 43.432 1.62169 43.56C1.58969 43.688 1.55769 43.816 1.46169 43.944C1.42969 43.944 1.42969 43.944 1.42969 43.912ZM9.04569 27.592C9.07769 27.464 9.14169 27.368 9.17369 27.24L9.04569 27.56V27.592ZM16.0537 27.432V27.4H16.0857L16.0537 27.432ZM37.9737 27.464C38.0697 27.496 38.0057 27.528 38.0057 27.56C37.9737 27.624 37.9417 27.656 37.9417 27.72C37.9097 27.688 37.9097 27.688 37.8777 27.688L37.9737 27.464ZM9.04569 27.592C8.98169 27.688 8.94969 27.816 8.88569 27.912C8.98169 27.816 9.01369 27.688 9.04569 27.592ZM21.9737 27.752C22.0057 27.688 22.0057 27.656 22.0057 27.592C22.0377 27.592 22.0377 27.592 22.0697 27.624C22.0377 27.656 22.0057 27.688 21.9737 27.752C21.9737 27.784 21.9417 27.848 21.9417 27.88H21.9097C21.9097 27.848 21.9417 27.784 21.9737 27.752ZM28.2137 27.688C28.1817 27.816 28.1177 27.88 28.0217 27.912C28.0537 27.816 28.1177 27.72 28.2137 27.688ZM8.88569 27.912C8.75769 28.136 8.66169 28.328 8.59769 28.584C8.78969 28.392 8.85369 28.168 8.88569 27.912ZM27.8937 28.104C27.8297 28.264 27.7337 28.424 27.5737 28.52C27.6377 28.36 27.7337 28.2 27.8937 28.104ZM37.7177 28.328C37.6857 28.36 37.6857 28.424 37.6537 28.456C37.6537 28.424 37.6537 28.36 37.6857 28.328H37.7177ZM21.5897 28.616L21.6857 28.52C21.6857 28.488 21.7177 28.424 21.7177 28.392H21.7497C21.7177 28.456 21.7177 28.488 21.6857 28.52C21.6537 28.552 21.6537 28.616 21.6537 28.648C21.6537 28.648 21.6217 28.648 21.5897 28.68V28.616ZM14.9657 28.776L14.8697 28.968C14.7737 29.032 14.7097 29.128 14.6457 29.192C14.7097 29.096 14.7737 29.032 14.8697 28.968L14.9657 28.744C15.0297 28.68 15.1257 28.616 15.1897 28.52C15.1257 28.616 15.0297 28.68 14.9657 28.776ZM37.6217 28.584C37.5257 28.968 37.3977 29.352 37.2377 29.768C37.2377 29.448 37.3977 28.936 37.6217 28.584ZM8.46969 28.904C8.56569 28.808 8.56569 28.712 8.59769 28.616C8.56569 28.712 8.53369 28.808 8.46969 28.904ZM27.2217 28.936C27.2857 28.84 27.3497 28.744 27.4457 28.68C27.4137 28.808 27.3497 28.904 27.2217 28.936ZM8.30969 29.288L8.46969 28.936C8.40569 29.064 8.34169 29.16 8.30969 29.288ZM26.9017 29.352L27.1257 29.128C27.0617 29.224 26.9977 29.32 26.9017 29.352ZM21.1737 29.8C21.2377 29.576 21.2697 29.352 21.4617 29.16C21.4297 29.224 21.4297 29.256 21.4297 29.32L21.1737 29.8C21.1737 29.864 21.1737 29.928 21.1417 29.992H21.1097C21.1417 29.928 21.1737 29.864 21.1737 29.8ZM13.5577 29.544C13.6217 29.448 13.6857 29.384 13.7817 29.288C13.7177 29.384 13.6217 29.448 13.5577 29.544ZM26.7737 29.544C26.7097 29.704 26.6137 29.864 26.4537 29.96C26.5177 29.8 26.6137 29.64 26.7737 29.544ZM14.1017 29.864C14.1657 29.8 14.2297 29.704 14.3257 29.64L14.1017 29.864ZM26.6457 30.824C26.6457 30.824 26.6137 30.856 26.6137 30.888C26.6137 30.888 26.5817 30.888 26.5497 30.92C26.5497 30.888 26.5817 30.888 26.5817 30.856C26.6137 30.856 26.6137 30.824 26.6457 30.824C26.7417 30.6 26.8697 30.408 27.0937 30.184C26.9657 30.504 26.9657 30.504 26.6457 30.824ZM36.9177 30.504C36.9497 30.44 36.9817 30.344 37.0137 30.216C37.0777 30.376 36.9817 30.472 36.9177 30.504ZM25.9097 30.632C25.9737 30.472 26.0697 30.344 26.2297 30.248C26.1657 30.408 26.0697 30.536 25.9097 30.632ZM13.7497 30.312L13.7817 30.28C13.7817 30.312 13.7817 30.312 13.7497 30.312ZM20.8217 30.92C20.7897 30.792 20.8537 30.664 20.9817 30.536C20.9177 30.664 20.8857 30.792 20.8217 30.92ZM36.7577 31.08C36.8217 30.888 36.8537 30.728 36.9177 30.6C36.8857 30.76 36.8857 30.92 36.7577 31.08C36.7257 31.144 36.7257 31.208 36.6937 31.336C36.6617 31.208 36.6937 31.144 36.7577 31.08ZM13.3657 30.856V30.792C13.3657 30.76 13.3977 30.76 13.4297 30.76C13.3977 30.792 13.3977 30.792 13.3977 30.824C13.3977 30.824 13.3657 30.824 13.3657 30.856ZM26.1977 31.336V31.304H26.2297L26.1977 31.336ZM21.7497 31.784V31.752C21.7497 31.784 21.7177 31.816 21.7177 31.816C21.7177 31.816 21.7497 31.816 21.7497 31.784ZM36.3737 32.136C36.3737 32.104 36.4057 32.072 36.5017 32.008C36.4377 32.104 36.4377 32.168 36.4057 32.2C36.4057 32.264 36.3737 32.328 36.3417 32.392C36.3097 32.392 36.3097 32.392 36.2777 32.392L36.3737 32.136ZM21.5257 32.552V32.488C21.5257 32.52 21.4937 32.52 21.4937 32.552V32.648C21.5257 32.616 21.5257 32.584 21.5257 32.552ZM36.0217 33.288C36.0537 33.16 36.0857 33.064 36.1177 32.84C36.1497 33.064 36.0857 33.192 36.0217 33.288C35.9897 33.384 35.9897 33.48 35.9577 33.576H35.9257L36.0217 33.288ZM21.1737 34.056H21.1417V34.152C21.1417 34.12 21.1417 34.088 21.1737 34.056ZM10.0057 34.152H10.0377L10.0057 34.184V34.152ZM35.7657 34.152C35.7017 34.408 35.6377 34.696 35.4777 34.92C35.5417 34.632 35.6057 34.376 35.7657 34.152ZM10.2297 34.92C10.1657 35.016 10.1337 35.144 9.97369 35.24C10.0377 35.08 10.1337 34.984 10.2297 34.92C10.2617 34.76 10.3897 34.6 10.5497 34.504C10.4537 34.664 10.3897 34.824 10.2297 34.92ZM35.4457 35.048C35.4457 35.112 35.4457 35.144 35.4137 35.208C35.4137 35.176 35.3817 35.176 35.3817 35.176C35.4137 35.144 35.4137 35.08 35.4457 35.048ZM35.1577 35.944C35.1897 35.944 35.1897 35.976 35.1897 35.976C35.1897 36.008 35.1577 36.008 35.1577 36.04L35.1257 36.008C35.1577 36.008 35.1577 35.976 35.1577 35.944ZM36.3737 36.008V35.976H36.3417L36.3737 36.008ZM4.53369 36.552V36.52V36.552ZM34.9657 36.68V36.712H34.9337L34.9657 36.68ZM6.77369 39.496V39.528C6.70969 39.592 6.67769 39.656 6.64569 39.72L6.74169 39.496H6.77369C6.80569 39.464 6.80569 39.496 6.77369 39.496ZM34.1017 39.592H34.1337C34.1017 39.624 34.1017 39.688 34.1017 39.752H34.0697C34.0697 39.688 34.0697 39.624 34.1017 39.592ZM3.09369 39.88V39.848V39.88ZM33.8777 40.392C33.8777 40.392 33.8777 40.392 33.8777 40.424V40.456L33.8457 40.424L33.8777 40.392ZM34.6457 41.704C34.6777 41.672 34.6777 41.672 34.6777 41.672V41.64C34.6777 41.64 34.6777 41.64 34.6457 41.672V41.704ZM34.4217 42.728C34.4217 42.568 34.4537 42.408 34.4537 42.248L34.3577 42.76C34.3897 42.728 34.3897 42.728 34.4217 42.728ZM1.58969 43.56H1.62169C1.58969 43.528 1.58969 43.496 1.58969 43.496V43.56ZM33.0457 43.592C33.0457 43.592 33.0457 43.592 33.0777 43.592V43.656H33.0457V43.592ZM1.26969 44.392C1.26969 44.36 1.26969 44.36 1.26969 44.328V44.392ZM0.821689 45.384L0.789689 45.352C0.789689 45.352 0.821689 45.352 0.821689 45.32C0.821689 45.352 0.853689 45.352 0.853689 45.352C0.853689 45.384 0.853689 45.384 0.821689 45.384ZM51.5867 33.064C51.3947 32.904 51.3627 32.904 51.1707 33.064C51.1387 33.096 51.1067 33.128 51.0427 33.16C50.4987 33.608 50.0187 34.12 49.5067 34.6C48.9627 35.112 48.4187 35.624 47.9067 36.168C47.4267 36.616 46.9467 37.096 46.4667 37.576C45.9227 38.12 45.3787 38.696 44.8667 39.24L44.5787 39.464C44.5147 39.528 44.5147 39.528 44.3547 39.4H44.3867C44.3867 39.208 44.4187 39.016 44.5147 38.856C44.5787 38.408 44.7067 37.992 44.9307 37.576C44.9307 37.416 44.9947 37.256 45.0587 37.128L45.5387 35.816C45.5707 35.72 45.6027 35.624 45.6987 35.56C45.7307 35.528 45.7307 35.464 45.7627 35.432C45.7947 35.304 45.8267 35.176 45.9227 35.08H45.8907C45.9227 34.984 45.9227 34.92 45.9867 34.856C45.9867 34.728 46.0507 34.6 46.1147 34.504C46.1787 34.312 46.2427 34.152 46.3387 33.992V34.024C46.3387 33.96 46.3707 33.928 46.4027 33.896C46.4027 33.704 46.4987 33.544 46.6267 33.384C46.6267 33.16 46.7547 32.936 46.8827 32.776C46.9147 32.712 46.9147 32.648 46.9467 32.552C46.9787 32.52 47.0107 32.456 47.0107 32.424L46.8507 32.328L46.8827 32.2C46.9467 32.04 47.0107 31.912 47.0427 31.752V31.88C47.1387 31.784 47.1707 31.688 47.1707 31.592L47.0747 31.72C47.1067 31.624 47.1387 31.56 47.2027 31.464C47.4267 31.08 47.5547 30.632 47.7147 30.184C47.8107 29.864 47.7467 29.64 47.4587 29.448C47.3947 29.384 47.3307 29.352 47.2347 29.288C47.0747 29.192 46.9787 29.192 46.8187 29.32C46.6907 29.416 46.5627 29.544 46.4667 29.672C45.9227 30.184 45.4747 30.824 44.9627 31.368V31.4L44.8347 31.336C44.6107 31.688 44.3547 32.008 44.1307 32.36C43.9707 32.552 43.9387 32.552 43.7467 32.488C43.5547 32.424 43.3627 32.36 43.1707 32.36C42.4667 32.328 41.8907 32.552 41.3147 32.936C40.8027 33.288 40.3547 33.768 39.9707 34.28C39.8427 34.472 39.7147 34.696 39.5867 34.952C39.4907 35.176 39.4267 35.4 39.3947 35.688C39.3627 35.816 39.3627 35.944 39.4267 36.04C39.5867 36.392 39.8107 36.68 40.1947 36.808C40.3867 36.872 40.5467 36.872 40.7387 36.84C40.9947 36.776 41.2507 36.68 41.4747 36.552C42.4987 35.976 43.3627 35.208 44.0987 34.312C44.1307 34.28 44.1307 34.248 44.1627 34.248C44.1307 34.248 44.1307 34.248 44.0987 34.248L44.1627 34.152C44.1947 34.152 44.2267 34.12 44.2267 34.088C44.2907 34.024 44.3227 33.96 44.3547 33.896H44.3867C44.3867 33.864 44.4187 33.832 44.4507 33.832V33.896C44.4827 33.864 44.4827 33.832 44.5147 33.832V33.8C44.5787 33.8 44.6747 33.8 44.6747 33.896V34.28C44.6747 34.408 44.6747 34.504 44.8027 34.536C44.8347 34.568 44.8667 34.6 44.8347 34.664C44.8347 34.728 44.8027 34.824 44.7707 34.888C44.6427 35.24 44.5147 35.56 44.4187 35.912C44.0667 36.872 43.6827 37.832 43.4587 38.824C43.3947 39.08 43.3627 39.304 43.3627 39.56C43.3627 39.848 43.4587 40.04 43.6507 40.2L43.8107 40.296C44.0667 40.52 44.3547 40.52 44.6427 40.392C44.8027 40.296 44.9627 40.2 45.0907 40.072C45.6347 39.592 46.1787 39.08 46.6587 38.504C47.0107 38.152 47.3307 37.8 47.6507 37.416C48.1947 36.84 48.7387 36.264 49.2507 35.688C49.3467 35.624 49.4427 35.56 49.4747 35.432C49.3147 35.496 49.2187 35.624 49.1227 35.752C49.0267 35.816 48.9627 35.944 48.8347 35.976C48.8027 36.008 48.8027 36.04 48.7707 36.04C48.7387 36.072 48.7387 36.104 48.7067 36.104C48.7067 36.072 48.7387 36.072 48.7707 36.04C48.7707 36.008 48.8027 35.976 48.8347 35.976C48.8667 35.912 48.8987 35.848 48.9307 35.816C49.4107 35.336 49.8907 34.888 50.3387 34.408L50.5307 34.312C50.5307 34.28 50.5627 34.248 50.5947 34.248C50.5947 34.216 50.6267 34.184 50.6587 34.184L50.7227 34.088C50.7547 34.088 50.7867 34.056 50.7867 34.024V34.088C50.9147 34.056 50.9787 33.992 51.0427 33.928L51.6187 33.384C51.7467 33.256 51.7467 33.192 51.5867 33.064ZM46.5947 29.928C46.5947 29.896 46.6267 29.896 46.6267 29.864C46.6587 29.832 46.6587 29.832 46.6907 29.864L46.6587 29.896C46.6587 29.896 46.6267 29.928 46.5947 29.928C46.5627 30.024 46.4987 30.088 46.4027 30.12C46.4667 30.056 46.4987 29.992 46.5947 29.928ZM45.7627 30.888C45.7627 30.856 45.7947 30.824 45.8267 30.792C45.8587 30.664 45.9547 30.568 46.0507 30.504C46.1147 30.376 46.2107 30.28 46.3387 30.216C46.3707 30.184 46.3707 30.152 46.4027 30.152C46.4027 30.152 46.4027 30.184 46.4027 30.216H46.3387C46.3387 30.248 46.3387 30.28 46.3707 30.312C46.3707 30.312 46.4027 30.28 46.4347 30.28L46.3707 30.376C46.3387 30.472 46.2747 30.536 46.1787 30.568C46.1467 30.6 46.1467 30.632 46.1147 30.664V30.6C46.0827 30.632 46.0507 30.664 46.0507 30.696C46.0187 30.76 45.9547 30.824 45.8587 30.824L45.7947 30.92C45.7627 31.016 45.6667 31.048 45.6027 31.08L45.7627 30.888ZM46.1147 30.6C46.1467 30.568 46.1467 30.568 46.1787 30.568C46.1467 30.568 46.1467 30.568 46.1147 30.536V30.6ZM44.8027 33.064C44.8027 33.064 44.7707 33.096 44.7387 33.064V33C44.8027 32.936 44.8347 32.84 44.8987 32.776C44.8987 32.776 44.9307 32.776 44.9307 32.744L45.0587 32.616C45.0907 32.584 45.0907 32.52 45.1227 32.456L45.2187 32.36V32.392C45.2507 32.36 45.2507 32.328 45.2507 32.328L45.3147 32.232C45.3787 32.2 45.4427 32.168 45.4747 32.104C45.4427 32.104 45.4427 32.104 45.4107 32.136L45.5067 32.04H45.5387C45.4107 32.264 45.2507 32.456 45.0907 32.648C45.0267 32.808 44.9307 32.936 44.8027 33.064ZM45.4747 32.104C45.4747 32.072 45.5067 32.072 45.5067 32.04C45.4747 32.072 45.4747 32.072 45.4747 32.104ZM45.1227 34.024C45.1227 34.056 45.0907 34.088 45.0587 34.12C44.9627 34.12 44.9947 34.056 44.9947 34.024C44.9627 33.896 44.9627 33.768 44.9307 33.64C44.8667 33.416 44.8667 33.256 44.9627 33.096L45.6987 32.072C45.8907 32.2 45.2187 33.832 45.1227 34.024ZM46.6907 32.68C46.6907 32.552 46.7227 32.456 46.8187 32.36C46.8187 32.488 46.7547 32.584 46.6907 32.68ZM47.0427 32.424H47.0107C47.0107 32.456 47.0107 32.52 47.0427 32.552V32.424ZM41.0267 35.72C40.8347 35.88 40.6107 35.976 40.4187 36.072C40.2907 36.104 40.1947 36.04 40.2267 35.912C40.2907 35.592 40.3547 35.24 40.5467 34.952C40.7387 34.632 40.9307 34.344 41.2187 34.12C41.2827 34.024 41.3787 33.928 41.3787 33.8C41.2507 33.864 41.1547 33.992 41.0587 34.088C40.9947 34.152 40.9307 34.248 40.8027 34.312C40.7707 34.44 40.7067 34.536 40.6107 34.568C40.6427 34.472 40.7067 34.344 40.8027 34.312C41.0267 33.896 41.3467 33.608 41.6987 33.384C41.7627 33.32 41.8267 33.288 41.9227 33.256C41.8907 33.352 41.8267 33.384 41.7307 33.416C41.6667 33.544 41.5067 33.608 41.4427 33.736C41.5707 33.736 41.6667 33.64 41.7627 33.576C42.0187 33.384 42.3067 33.192 42.5947 33.064C42.8507 32.936 43.1387 32.872 43.3947 32.872H43.5547C43.6187 32.904 43.6507 32.968 43.6187 33C43.5227 33.128 43.4587 33.256 43.3627 33.352L42.7547 34.12C42.2427 34.696 41.6667 35.24 41.0267 35.72ZM46.5947 32.968L46.5627 33C46.5307 33 46.5307 32.968 46.5307 32.936C46.5627 32.904 46.5947 32.904 46.5947 32.872V32.968ZM40.8987 33.672H40.9627C40.9307 33.64 40.8987 33.64 40.8987 33.608C40.9947 33.416 41.1547 33.256 41.3467 33.192L41.4427 33.128C41.4747 33.064 41.5387 33.064 41.5707 33.064C41.5387 33.096 41.5067 33.128 41.4427 33.128C41.4107 33.16 41.4107 33.192 41.3787 33.192C41.3147 33.416 41.1227 33.544 40.9627 33.672C40.9307 33.704 40.8987 33.736 40.8987 33.736V33.672ZM44.0987 33.128C44.0667 33.128 44.0347 33.16 44.0347 33.192H43.9707C43.9707 33.064 44.0027 33.064 44.0987 33.128ZM50.8827 33.512C50.9787 33.416 51.0747 33.288 51.2347 33.192C51.1067 33.416 51.1067 33.416 50.8827 33.512ZM42.4987 35.016C42.4027 35.048 42.3067 35.144 42.2107 35.144C42.4027 34.856 42.6587 34.664 42.8827 34.408C43.0107 34.248 43.1387 34.088 43.2987 33.928C43.3307 33.928 43.3627 33.896 43.3627 33.864C43.4267 33.768 43.4907 33.672 43.5867 33.608C43.6187 33.576 43.6507 33.544 43.6827 33.544C43.7147 33.416 43.7787 33.32 43.8747 33.256C43.8747 33.32 43.8747 33.352 43.8747 33.416H43.9707C43.9387 33.416 43.9067 33.448 43.8747 33.448V33.416C43.8427 33.416 43.8427 33.448 43.8107 33.48H43.8747C43.8747 33.544 43.8107 33.608 43.7467 33.672C43.7467 33.64 43.7467 33.576 43.7467 33.544H43.6827C43.6507 33.576 43.6507 33.608 43.6187 33.608C43.6187 33.672 43.6187 33.704 43.6187 33.736H43.6827C43.6507 33.768 43.6187 33.8 43.6187 33.8V33.736C43.5867 33.768 43.5547 33.8 43.5227 33.8C43.5227 33.832 43.4907 33.864 43.4587 33.896C43.4907 33.896 43.5227 33.896 43.5227 33.896V33.832C43.5547 33.832 43.5867 33.832 43.5867 33.832L43.5227 33.896C43.5227 33.96 43.4587 34.056 43.3947 34.088C43.3627 34.12 43.3627 34.152 43.3307 34.152V34.088C43.2987 34.12 43.2667 34.152 43.2667 34.184C43.2667 34.184 43.2987 34.184 43.3307 34.184L43.2667 34.248C43.2347 34.28 43.2347 34.312 43.2027 34.312V34.248C43.1707 34.248 43.1387 34.28 43.1067 34.312H43.1387H43.1707C43.1387 34.472 43.0427 34.568 42.9147 34.664C42.8827 34.664 42.8507 34.696 42.8507 34.728V34.664C42.8187 34.664 42.7867 34.696 42.7547 34.728H42.8187C42.8187 34.76 42.7867 34.76 42.7867 34.792C42.7547 34.76 42.7547 34.76 42.7547 34.728C42.7547 34.76 42.7227 34.76 42.6907 34.792H42.7547C42.7547 34.824 42.7227 34.824 42.6907 34.856C42.6587 34.888 42.6587 34.92 42.6267 34.92V34.856C42.5947 34.888 42.5627 34.92 42.5627 34.952H42.6267C42.5947 34.952 42.5947 34.984 42.5627 34.984V34.952C42.5307 34.952 42.4987 34.984 42.4987 35.016ZM44.4187 33.608C44.0027 34.12 43.5867 34.632 43.1387 35.08C43.0427 35.176 42.9787 35.24 42.8507 35.304L42.7867 35.368C42.7547 35.432 42.6907 35.464 42.6267 35.496C42.6587 35.4 42.6907 35.368 42.7547 35.336C42.7867 35.304 42.8187 35.304 42.8187 35.272L42.9787 35.08C43.4267 34.6 43.8747 34.12 44.2587 33.608L44.3867 33.48C44.3867 33.448 44.4507 33.448 44.4507 33.448C44.4827 33.48 44.4827 33.512 44.4507 33.544C44.4507 33.576 44.4507 33.576 44.4187 33.608ZM46.2747 33.672C46.2747 33.608 46.2747 33.544 46.3387 33.48C46.3067 33.544 46.3067 33.608 46.2747 33.672ZM40.8667 33.608C40.8667 33.64 40.8667 33.64 40.8667 33.672H40.8347C40.8347 33.64 40.8667 33.64 40.8667 33.608ZM40.8027 33.672C40.8027 33.704 40.8027 33.736 40.8027 33.736H40.8667C40.8667 33.768 40.8347 33.8 40.8027 33.8C40.8027 33.8 40.8027 33.768 40.8027 33.736H40.7387C40.7707 33.736 40.8027 33.704 40.8027 33.672ZM40.7387 33.768V33.8H40.6747C40.7067 33.8 40.7067 33.768 40.7387 33.768ZM40.6107 33.896C40.6427 33.864 40.6427 33.832 40.6747 33.832C40.6747 33.832 40.6747 33.864 40.6747 33.896H40.7387C40.7387 33.864 40.7387 33.832 40.7387 33.832H40.8027C40.7707 33.832 40.7707 33.864 40.7387 33.896L40.6747 33.96C40.6747 33.928 40.6747 33.928 40.6747 33.896H40.6107C40.6107 33.928 40.6107 33.928 40.6107 33.96H40.5467C40.5467 33.928 40.5787 33.896 40.6107 33.896ZM43.3947 33.96C43.4267 33.928 43.4587 33.928 43.4587 33.896H43.4267C43.3947 33.928 43.3947 33.928 43.3947 33.96ZM43.3627 33.992C43.3307 34.024 43.3307 34.056 43.3307 34.088H43.3947C43.3947 34.056 43.3947 33.992 43.3947 33.96L43.3627 33.992ZM50.7227 34.152C50.7547 34.152 50.7547 34.12 50.7867 34.088C50.7547 34.088 50.7547 34.088 50.7227 34.088V34.152ZM49.9547 34.504C49.8587 34.6 49.7627 34.664 49.6347 34.696C49.8267 34.472 50.0187 34.248 50.3067 34.12L49.9547 34.504ZM43.2027 34.248C43.2027 34.248 43.2347 34.248 43.2667 34.248V34.184C43.2347 34.184 43.2027 34.216 43.2027 34.248ZM44.1627 34.216C44.1947 34.216 44.2267 34.184 44.2267 34.184C44.2267 34.184 44.1947 34.184 44.1627 34.184V34.216ZM50.7227 34.184C50.6907 34.184 50.6907 34.184 50.6587 34.184V34.216C50.6907 34.216 50.6907 34.184 50.7227 34.184ZM50.6587 34.248C50.6267 34.248 50.5947 34.248 50.5947 34.248V34.312C50.5947 34.28 50.6267 34.248 50.6587 34.248ZM45.8267 34.632C45.8587 34.504 45.8907 34.408 45.9867 34.312C45.9547 34.44 45.9227 34.536 45.8267 34.632ZM50.2427 34.632C50.4027 34.568 50.4987 34.472 50.5947 34.312C50.5627 34.312 50.5307 34.312 50.5307 34.312L50.2427 34.632ZM46.1467 34.504H46.1147V34.536C46.1147 34.536 46.1147 34.504 46.1467 34.504ZM40.6107 34.6C40.5787 34.664 40.5467 34.728 40.4507 34.76C40.5147 34.696 40.5467 34.632 40.6107 34.6ZM50.1787 34.728C50.1787 34.696 50.2107 34.696 50.2427 34.664C50.2107 34.664 50.1787 34.696 50.1787 34.728ZM50.1467 34.728C49.9227 34.92 49.7307 35.112 49.5387 35.336C49.8267 35.208 50.0187 34.984 50.1467 34.728ZM42.6267 34.856C42.6587 34.856 42.6587 34.856 42.6907 34.856V34.792C42.6587 34.824 42.6587 34.856 42.6267 34.856ZM48.5787 35.752C48.7387 35.528 48.9627 35.336 49.1867 35.144C49.0587 35.432 48.8347 35.624 48.5787 35.752ZM49.5387 35.368V35.336C49.5067 35.368 49.4747 35.4 49.4747 35.432C49.5067 35.4 49.5067 35.368 49.5387 35.368ZM42.3707 35.688C42.4027 35.624 42.4667 35.592 42.5307 35.592C42.4987 35.624 42.4347 35.688 42.3707 35.688ZM48.4187 35.912C48.3227 36.136 48.1627 36.296 47.9387 36.392C48.0667 36.2 48.2267 36.04 48.4187 35.912ZM45.2827 36.04V36.008C45.3147 36.008 45.3147 36.04 45.2827 36.04ZM48.5787 36.264L48.5147 36.328C48.4827 36.36 48.4507 36.392 48.4187 36.424L48.3547 36.488C48.3547 36.52 48.3227 36.52 48.2907 36.552C48.0667 36.904 47.7787 37.192 47.4587 37.448C47.4587 37.416 47.4587 37.384 47.4907 37.352C47.7147 37.064 47.9707 36.776 48.2907 36.52L48.3547 36.456C48.3547 36.424 48.3867 36.424 48.4187 36.392C48.4507 36.36 48.4507 36.328 48.4827 36.328L48.5467 36.264C48.5787 36.232 48.5787 36.2 48.6427 36.2C48.6107 36.232 48.6107 36.264 48.5787 36.264ZM47.8427 36.488C47.8427 36.52 47.8427 36.52 47.8107 36.52L47.8427 36.488ZM47.3627 37.032C47.1067 37.32 46.8507 37.64 46.5627 37.864C46.5947 37.8 46.5947 37.736 46.6587 37.704C46.9147 37.416 47.1387 37.128 47.4267 36.904C47.4267 36.968 47.3947 37 47.3627 37.032ZM44.9307 36.968C44.9307 37.096 44.8667 37.192 44.8027 37.288C44.8347 37.16 44.8347 37.064 44.9307 36.968ZM47.3947 37.512C47.3947 37.48 47.3947 37.48 47.4267 37.448C47.4267 37.48 47.3947 37.48 47.3947 37.512ZM47.2987 37.576L47.3627 37.512C47.3627 37.544 47.3307 37.576 47.2987 37.576ZM47.2347 37.672C47.0747 37.928 46.8827 38.152 46.6267 38.344C46.7547 38.12 46.9787 37.832 47.2347 37.672C47.2667 37.64 47.2667 37.608 47.2987 37.608C47.2987 37.64 47.2667 37.64 47.2347 37.672ZM63.6889 33.48C63.7209 33.416 63.7209 33.352 63.6569 33.32C63.4649 33.096 63.2089 32.968 62.8889 33.096C62.7929 33.16 62.6969 33.192 62.5689 33.256C62.4409 33.32 62.2809 33.384 62.1209 33.48C61.8329 33.608 61.4809 33.736 61.1609 33.896C60.3929 34.344 59.5609 34.728 58.7289 35.144C58.3129 35.368 57.8329 35.592 57.3529 35.848C57.2569 35.88 57.1609 35.944 57.0649 35.976H56.9369C56.9049 35.944 56.9049 35.912 56.9049 35.88C57.0329 35.624 57.0969 35.368 57.1929 35.144C57.3209 34.824 57.4489 34.504 57.4809 34.152C57.5449 33.928 57.5129 33.736 57.4169 33.512C57.2889 33.288 57.0649 33.064 56.8729 32.872C56.5529 32.616 56.2329 32.52 55.8169 32.648C55.6249 32.68 55.4009 32.776 55.2089 32.872C54.6649 33.064 54.1529 33.352 53.6729 33.608C52.8409 34.056 52.1049 34.6 51.4009 35.208C51.2409 35.304 51.1449 35.432 51.0169 35.496C50.9529 35.528 50.8889 35.496 50.8569 35.432C50.8249 35.272 50.8569 35.144 51.0169 35.08C51.0489 35.016 51.0809 34.952 51.1449 34.888C51.1129 34.792 51.1449 34.728 51.2089 34.664C51.2409 34.6 51.3049 34.536 51.3369 34.472V34.376C51.3689 34.312 51.4009 34.312 51.4329 34.248C51.4649 34.184 51.4649 34.152 51.4649 34.12C51.6889 33.672 51.9449 33.256 52.2649 32.872C52.2969 32.744 52.3609 32.616 52.4569 32.488C52.9049 31.816 53.3529 31.208 53.8009 30.536L53.9929 30.28C54.0569 30.152 54.0249 30.056 54.0249 29.96C54.0249 29.832 53.8969 29.896 53.8649 29.832C53.7689 29.704 53.7049 29.736 53.6089 29.8C53.3849 29.992 53.1609 30.184 52.9689 30.376C52.5209 30.888 52.0729 31.4 51.6889 31.912C51.1769 32.584 50.6969 33.288 50.2809 33.992C50.1209 34.312 49.9609 34.6 49.7689 34.92C49.5769 35.272 49.3849 35.688 49.2889 36.104C49.1929 36.392 49.2569 36.616 49.4809 36.84L49.6409 37.032C49.8009 37.32 50.4089 37.448 50.6969 37.288C50.9529 37.224 51.1449 37.096 51.3369 36.936C51.8809 36.552 52.3929 36.136 52.9049 35.72H52.8729C53.0329 35.592 53.1929 35.464 53.3529 35.368C53.3849 35.336 53.4489 35.272 53.5129 35.24C53.7369 35.112 53.9929 34.952 54.2489 34.76C54.7289 34.504 55.2089 34.248 55.6889 34.024C55.8169 33.96 55.9449 33.928 56.0409 33.896C56.1689 33.864 56.2329 33.928 56.2009 34.024L56.0089 34.536C55.8169 34.888 55.6889 35.272 55.5929 35.656C55.4969 35.976 55.5929 36.2 55.7529 36.456C55.8169 36.584 55.9129 36.68 56.0089 36.808C56.3289 37.224 56.7449 37.352 57.2569 37.224C57.4809 37.192 57.6729 37.096 57.8969 37.032C58.2809 36.84 58.6329 36.648 59.0169 36.424C59.6249 36.04 60.2649 35.688 60.8729 35.304L61.2889 35.08C61.8969 34.728 62.5049 34.344 63.1449 34.056C63.3049 33.96 63.4329 33.896 63.5609 33.8C63.6249 33.768 63.6889 33.704 63.7209 33.64H63.5609C63.5609 33.544 63.6569 33.512 63.6889 33.48ZM62.7609 34.024C62.7289 34.056 62.6969 34.056 62.6969 34.024L62.7289 33.992C62.7609 33.992 62.7609 33.96 62.7929 33.96C62.7609 33.992 62.7609 33.992 62.7609 34.024ZM50.9209 36.136L51.0169 36.04C51.0809 35.912 51.2089 35.816 51.3369 35.752C51.6569 35.4 52.0409 35.112 52.4569 34.856C52.5849 34.728 52.7449 34.568 52.9049 34.504C52.9689 34.44 53.0649 34.376 53.1289 34.376C53.1929 34.312 53.2889 34.248 53.3529 34.248C53.4169 34.152 53.4809 34.12 53.5449 34.12C53.5129 34.184 53.4489 34.248 53.3529 34.248C53.3209 34.312 53.2569 34.376 53.1609 34.376C53.1289 34.44 53.1289 34.504 53.0969 34.536C53.0649 34.536 53.0009 34.536 52.9689 34.536L52.8729 34.664C52.8729 34.696 52.8409 34.728 52.8089 34.728H52.8729C52.8729 34.728 52.8409 34.76 52.8089 34.792V34.728C52.7129 34.728 52.6809 34.792 52.6169 34.856C52.5529 34.888 52.5209 34.888 52.4889 34.92C52.4249 34.952 52.3609 35.016 52.3289 35.08C52.2969 35.112 52.2969 35.144 52.2649 35.144H52.2969C52.2969 35.144 52.2969 35.176 52.2649 35.208V35.144C52.1689 35.144 52.0729 35.208 52.0409 35.304H52.1689C52.1049 35.368 52.0729 35.4 51.9769 35.432C51.9449 35.464 51.9129 35.464 51.9129 35.496V35.432C51.9129 35.432 51.9449 35.432 51.9769 35.432V35.368C51.9449 35.368 51.9129 35.4 51.8809 35.432C51.8809 35.432 51.8809 35.464 51.8489 35.496H51.8809C51.8809 35.528 51.8809 35.56 51.8489 35.56V35.496C51.7529 35.528 51.6569 35.56 51.6249 35.624H51.7529C51.7209 35.656 51.6569 35.688 51.6569 35.72C51.6249 35.688 51.6249 35.656 51.6249 35.624L51.5609 35.72C51.5929 35.72 51.5929 35.72 51.6249 35.72L51.5609 35.784C51.5289 35.784 51.4969 35.816 51.4969 35.848C51.4969 35.816 51.4969 35.784 51.4649 35.784H51.3689C51.2729 35.912 51.1769 36.008 51.0169 36.072C50.9849 36.072 50.9529 36.104 50.9209 36.136ZM62.0569 34.376C61.9609 34.536 61.8329 34.536 61.7049 34.6C61.8009 34.472 61.8969 34.408 62.0569 34.376C62.0889 34.344 62.1209 34.312 62.1849 34.312C62.1209 34.344 62.0889 34.344 62.0569 34.376ZM53.7689 34.728L53.7049 34.824C53.0649 35.24 52.4889 35.752 51.8809 36.2C51.7529 36.328 51.6249 36.488 51.4329 36.552C51.3689 36.616 51.3049 36.648 51.2409 36.648C51.2729 36.616 51.3369 36.552 51.4329 36.552C51.4649 36.488 51.4649 36.424 51.4969 36.392C52.1689 35.848 52.8089 35.272 53.5449 34.824C53.6089 34.76 53.7049 34.728 53.7689 34.728C53.8649 34.6 53.9609 34.536 54.1209 34.536C54.0249 34.632 53.9289 34.728 53.7689 34.728ZM53.0009 34.664L52.9049 34.728C52.9049 34.728 52.9049 34.696 52.9049 34.664H53.0009ZM60.3289 34.728L60.4249 34.664C60.3929 34.728 60.3609 34.728 60.3289 34.728ZM61.4489 34.728C61.4489 34.696 61.5129 34.696 61.5449 34.696C61.5129 34.696 61.4489 34.728 61.4489 34.728ZM61.2889 34.792C61.3209 34.76 61.3849 34.76 61.4169 34.728C61.3849 34.76 61.3529 34.792 61.2889 34.792ZM60.9369 34.984C60.9689 34.952 61.0329 34.952 61.0329 34.952C61.0329 34.952 61.0009 34.984 60.9369 34.984ZM60.8089 35.08C60.8089 35.048 60.8729 35.016 60.9369 35.016C60.8729 35.048 60.8409 35.08 60.8089 35.08ZM60.4569 35.304C60.5209 35.144 60.6489 35.144 60.7769 35.08C60.6809 35.176 60.5849 35.24 60.4569 35.304ZM60.3289 35.368C60.3609 35.336 60.3929 35.304 60.4249 35.304L60.3289 35.368ZM60.2009 35.4C60.2009 35.4 60.2329 35.368 60.2969 35.368C60.2649 35.4 60.2009 35.4 60.2009 35.4ZM59.9769 35.56C60.0089 35.496 60.0729 35.464 60.1689 35.432C60.1369 35.528 60.0409 35.528 59.9769 35.56ZM59.6889 35.688C59.7209 35.688 59.7849 35.656 59.7849 35.624C59.7849 35.688 59.7529 35.688 59.6889 35.688ZM51.5609 35.784V35.72C51.5289 35.752 51.4969 35.752 51.4649 35.784H51.5609ZM59.4649 35.848L59.3689 35.912C59.3689 35.88 59.4329 35.88 59.4649 35.848C59.5289 35.784 59.5929 35.752 59.6569 35.72C59.6249 35.784 59.5609 35.816 59.4649 35.848ZM59.1449 36.04C59.1769 35.976 59.2409 35.944 59.3369 35.912C59.2729 35.976 59.2089 36.008 59.1449 36.04ZM66.7654 28.872C66.9254 28.712 67.0534 28.52 67.1814 28.328C67.3414 27.976 67.5654 27.656 67.7894 27.336C67.9814 27.048 68.2374 26.792 68.5254 26.632C68.5574 26.6 68.5574 26.568 68.6534 26.472C68.4934 26.504 68.4294 26.536 68.3014 26.568C68.2054 26.664 68.1094 26.76 68.0454 26.856C67.9494 26.92 67.9174 26.952 67.8534 27.08C67.8534 26.92 67.9494 26.888 68.0134 26.856C68.0774 26.696 68.1734 26.632 68.3014 26.568C68.3974 26.472 68.4614 26.376 68.5574 26.248C68.4614 26.184 68.3654 26.12 68.2694 26.024C68.1414 25.928 68.0134 25.928 67.8854 26.024C67.7574 26.12 67.6294 26.216 67.5334 26.344C67.1174 26.824 66.7014 27.336 66.3814 27.88C66.3174 28.008 66.2534 28.136 66.2214 28.296C66.1574 28.488 66.2854 28.616 66.3814 28.776C66.4774 28.904 66.6054 28.904 66.7654 28.872ZM67.9174 26.28C67.9494 26.216 67.9814 26.216 68.0454 26.248H68.0774C68.0774 26.344 67.9814 26.408 67.9174 26.376H67.8854C67.8854 26.344 67.8854 26.312 67.9174 26.28ZM70.9254 32.52C70.7334 32.424 70.6054 32.456 70.4454 32.584L69.1014 33.544C68.3654 34.12 67.5974 34.664 66.8614 35.208C66.3814 35.592 65.8694 35.912 65.3574 36.296C64.6854 36.776 63.9814 37.288 63.3094 37.8C63.0214 37.992 62.7654 38.216 62.4774 38.408L61.8694 38.792C61.8374 38.824 61.7734 38.856 61.7094 38.888C61.6454 38.888 61.5494 38.856 61.5494 38.792C61.5494 38.664 61.5494 38.536 61.5814 38.408C61.7414 37.992 61.8374 37.544 62.1254 37.16C62.1894 37.128 62.1894 37.096 62.1894 37.064C62.2214 36.808 62.3494 36.616 62.5094 36.392C62.5414 36.232 62.6374 36.04 62.7654 35.912C62.7654 35.72 62.8934 35.56 62.9894 35.432C63.0534 35.208 63.1494 34.984 63.3414 34.824H63.4054C63.3734 34.824 63.3734 34.824 63.3414 34.792C63.3414 34.76 63.3734 34.728 63.4054 34.664C63.4694 34.568 63.5014 34.472 63.5334 34.376C63.6934 34.12 63.8534 33.864 63.9494 33.608C64.0454 33.48 64.1094 33.384 64.2374 33.288C64.2374 33.224 64.2694 33.192 64.3334 33.128H64.2694C64.2694 33.096 64.3014 33.032 64.3334 33C64.4614 32.744 64.5894 32.488 64.7494 32.232C64.9734 31.848 65.1654 31.464 65.2934 31.08C65.4534 30.696 65.3894 30.568 65.0374 30.376C64.9094 30.408 64.8454 30.504 64.7814 30.568C64.2694 31.208 63.8214 31.88 63.3734 32.52C62.9574 33.192 62.5734 33.864 62.1894 34.568C61.8054 35.208 61.4214 35.88 61.1334 36.552C61.0694 36.776 60.9734 36.968 60.8454 37.16C60.6214 37.608 60.5574 38.12 60.4934 38.6C60.4294 38.984 60.5574 39.272 60.8454 39.464L61.0054 39.56C61.1654 39.72 61.3574 39.752 61.6134 39.72C61.8374 39.688 61.9974 39.592 62.1894 39.496C62.6054 39.272 62.9894 39.016 63.3734 38.728C64.6214 37.8 65.8374 36.84 67.0854 35.912C67.7894 35.336 68.5574 34.76 69.2934 34.184C69.8374 33.768 70.3814 33.352 70.8934 32.936C70.9254 32.904 70.9574 32.872 70.9574 32.84C70.9894 32.744 71.0214 32.68 71.0214 32.584L70.9254 32.52ZM62.7654 35.368C62.7654 35.432 62.7334 35.464 62.7334 35.528C62.7334 35.464 62.7654 35.4 62.7654 35.368ZM62.3814 36.104C62.3814 36.136 62.4134 36.136 62.4134 36.136C62.3814 36.168 62.3814 36.168 62.3494 36.168C62.3494 36.136 62.3814 36.136 62.3814 36.104ZM62.0294 36.808C62.0934 36.744 62.0934 36.712 62.1254 36.648C62.1574 36.584 62.1574 36.52 62.1894 36.456V36.488C62.1574 36.52 62.1574 36.584 62.1254 36.648C62.0934 36.712 62.0934 36.776 62.0294 36.84V36.808ZM61.8694 37.224C61.8694 37.192 61.8694 37.192 61.8694 37.192V37.224ZM79.0017 34.024C79.0337 33.96 79.0657 33.896 79.0977 33.832L78.8097 33.672C78.6497 33.544 78.4577 33.544 78.2977 33.608L78.0417 33.704C77.6897 33.896 77.3377 34.088 76.9857 34.28L74.2977 35.848C74.2017 35.912 74.1057 35.976 74.0097 36.04L72.5377 36.936C72.0897 37.192 71.6417 37.448 71.2257 37.704C70.6177 38.12 70.0097 38.408 69.4017 38.76C69.1777 38.856 68.9537 38.952 68.6977 39.08C68.6337 39.112 68.5377 39.112 68.4417 39.144C68.3457 39.016 68.3457 38.888 68.3457 38.76C68.3137 38.376 68.3457 37.992 68.4417 37.608C68.4737 37.512 68.4737 37.416 68.4417 37.32C68.5057 37.256 68.5697 37.192 68.5377 37.096C68.4737 36.968 68.5377 36.872 68.6017 36.776L68.6977 36.552C68.7297 36.488 68.7617 36.424 68.7617 36.328V36.36L68.8577 36.136C68.8897 36.072 68.8897 36.008 68.9217 35.944L69.0177 35.784H68.9857C69.0497 35.688 69.1137 35.56 69.1457 35.464C69.2737 35.112 69.4657 34.792 69.6897 34.536C69.7217 34.504 69.7537 34.44 69.7857 34.408L69.8497 34.248C69.8817 34.216 69.8817 34.184 69.9137 34.12C70.2657 33.64 70.6497 33.16 71.0977 32.744C71.1297 32.712 71.1937 32.68 71.2257 32.648L71.7697 32.36C71.8657 32.296 71.9617 32.232 72.0577 32.264C72.0897 32.328 72.1217 32.36 72.1217 32.424C72.1537 32.616 72.1857 32.84 72.1857 33.032C72.1537 33.416 72.1217 33.8 72.1217 34.152C72.0897 34.248 72.0897 34.312 72.0897 34.408C72.1217 34.536 72.1857 34.6 72.3137 34.664C72.4417 34.696 72.5697 34.632 72.6337 34.504L72.8257 34.216C72.9537 33.8 73.0497 33.352 73.0177 32.936C73.0177 32.584 72.9217 32.264 72.6977 32.008C72.5057 31.816 72.3137 31.624 72.0897 31.464C71.7697 31.272 71.4177 31.24 71.0657 31.4L70.6497 31.592C70.3297 31.816 70.0737 32.072 69.8177 32.328C69.2737 32.84 68.9217 33.48 68.4737 34.056C68.2497 34.568 67.8977 35.048 67.6737 35.592C67.3857 36.36 67.1297 37.128 67.0657 37.96C67.0337 38.344 67.0337 38.728 67.2257 39.08C67.4497 39.496 67.8017 39.752 68.1857 39.944C68.2817 40.008 68.4097 40.04 68.5057 40.04C68.7297 40.04 68.9217 40.04 69.1457 40.008C69.4977 39.944 69.8497 39.816 70.1697 39.688C71.0017 39.336 71.7377 38.824 72.5057 38.344C72.9857 38.056 73.4337 37.704 73.9457 37.416C74.7457 36.904 75.5777 36.392 76.3777 35.88L78.5857 34.504C78.7457 34.408 78.8737 34.344 79.0017 34.248C79.0337 34.248 79.0657 34.184 79.0977 34.12C79.0977 34.088 79.0337 34.056 79.0017 34.024ZM70.1057 32.52L70.2977 32.36C70.5537 32.072 70.5857 32.04 70.8417 31.944L70.7457 32.104C70.7777 32.2 70.7777 32.2 70.6497 32.232C70.6177 32.296 70.5537 32.328 70.5217 32.392H70.3297C70.3297 32.456 70.2977 32.52 70.2977 32.584C70.2017 32.648 70.0737 32.68 69.9137 32.776C70.0097 32.68 70.0417 32.584 70.1057 32.52ZM70.8097 32.68C70.9057 32.552 71.0337 32.456 71.1937 32.36C71.2577 32.296 71.3537 32.264 71.4177 32.232C71.4497 32.232 71.4497 32.2 71.4817 32.2C71.4817 32.168 71.5137 32.2 71.5137 32.2C71.5137 32.2 71.5137 32.232 71.4817 32.232H71.4177C71.3537 32.296 71.3217 32.392 71.2257 32.456C70.6817 32.904 70.2337 33.416 69.8177 33.992C69.7537 34.088 69.6897 34.152 69.5937 34.216C69.6257 34.152 69.6257 34.088 69.6897 34.024C70.0097 33.544 70.3617 33.064 70.8097 32.68ZM69.5297 34.312C69.5297 34.28 69.5297 34.28 69.5617 34.28V34.312C69.5617 34.312 69.5297 34.312 69.5297 34.344V34.312ZM69.8497 34.408C69.8177 34.408 69.7857 34.408 69.7857 34.408V34.536C69.7857 34.504 69.8177 34.44 69.8497 34.408ZM69.6897 34.664L69.7857 34.536C69.7537 34.536 69.7217 34.536 69.6897 34.536V34.664ZM69.2737 34.76L69.1777 34.888C69.2097 34.824 69.2417 34.792 69.2737 34.76ZM76.8577 35.304L77.0497 35.176C77.0177 35.24 76.9217 35.272 76.8577 35.304ZM69.3377 35.336V35.304C69.3377 35.304 69.3377 35.336 69.3057 35.336H69.3377ZM69.0817 35.816C69.0497 35.816 69.0177 35.816 69.0177 35.784C69.0177 35.848 69.0177 35.848 69.0177 35.912L69.0817 35.816ZM75.9937 35.848C75.9937 35.848 75.9937 35.848 75.9617 35.848L75.9937 35.816C76.0257 35.816 76.0257 35.816 76.0577 35.784L75.9937 35.848ZM75.4817 36.2C75.4497 36.2 75.4497 36.2 75.4177 36.232C75.4497 36.2 75.4497 36.2 75.4497 36.168C75.4817 36.168 75.4817 36.168 75.4817 36.168V36.2ZM74.8097 36.552C74.9057 36.52 74.9697 36.488 75.0337 36.424C75.0017 36.52 74.9057 36.552 74.8097 36.552ZM73.9777 37.128C74.0417 37.032 74.1057 36.936 74.2657 36.904C74.2017 37.064 74.0737 37.064 73.9777 37.128ZM89.7817 34.056C89.7177 33.864 89.4297 33.672 89.1737 33.704L88.6617 33.896C88.2137 34.12 87.7337 34.376 87.2537 34.6C86.7417 34.856 86.2617 35.112 85.7817 35.368C85.6537 35.464 85.4937 35.56 85.3337 35.592C84.8217 35.912 84.2457 36.2 83.7017 36.488C83.5097 36.616 83.2857 36.712 83.0937 36.808C82.9977 36.808 82.9017 36.872 82.8377 36.808C82.7737 36.776 82.8057 36.68 82.8057 36.616C82.8377 36.552 82.8697 36.488 82.8697 36.392C82.9657 36.008 83.1897 35.688 83.3497 35.304C83.3497 35.208 83.3817 35.144 83.4137 35.08C83.4777 34.92 83.4457 34.76 83.3497 34.6C83.2217 34.344 82.9657 34.152 82.7417 33.992C82.5817 33.864 82.4217 33.832 82.2297 33.928L82.0377 34.056C81.5577 34.344 81.1097 34.664 80.6297 34.984C79.9897 35.464 79.3177 35.944 78.6777 36.392C78.4857 36.488 78.3257 36.584 78.1657 36.616C77.9737 36.712 77.9097 36.648 77.9417 36.424L78.0057 36.2C78.0377 36.008 78.1017 35.816 78.1337 35.592C78.1657 35.432 78.2297 35.272 78.3577 35.112C78.4537 35.016 78.4857 34.888 78.5177 34.728C78.6137 34.536 78.7097 34.344 78.8377 34.152C79.0297 33.8 79.2537 33.448 79.3817 33.064C79.4457 32.904 79.4777 32.776 79.4457 32.584C79.4137 32.456 79.2857 32.36 79.1577 32.36C79.0937 32.328 79.0297 32.392 78.9657 32.456L78.8697 32.584C78.2617 33.256 77.7497 34.056 77.3017 34.856C77.1097 35.144 76.9497 35.496 76.8537 35.848C76.7577 36.296 76.7897 36.648 77.0777 37C77.1737 37.064 77.2377 37.192 77.3337 37.256C77.5897 37.576 77.9737 37.672 78.3897 37.672C78.5497 37.672 78.7097 37.64 78.8697 37.608C79.2857 37.48 79.6697 37.256 80.0217 37.032C80.4377 36.808 80.8217 36.488 81.2057 36.2C81.2697 36.136 81.3657 36.072 81.4297 36.04C81.4937 35.976 81.5897 36.04 81.5897 36.136V36.296C81.4617 36.712 81.6217 37.032 81.9097 37.352L82.2297 37.672C82.4217 37.864 82.6457 37.928 82.9017 37.928C83.3177 37.96 83.7017 37.896 84.0537 37.672C84.8217 37.256 85.5257 36.808 86.2617 36.296C86.7417 35.976 87.2217 35.592 87.7337 35.336C88.2777 35.016 88.8217 34.696 89.3977 34.408C89.4937 34.344 89.6217 34.312 89.7177 34.28C89.8137 34.248 89.8137 34.152 89.7817 34.056ZM82.1977 34.44C82.1657 34.472 82.1337 34.472 82.1017 34.472L82.0057 34.6C81.9737 34.6 81.9417 34.632 81.8777 34.632C81.8457 34.664 81.8457 34.696 81.8137 34.728H81.9097C81.8777 34.76 81.8457 34.792 81.8137 34.792V34.728C81.7817 34.76 81.7497 34.792 81.7177 34.792C81.6857 34.824 81.6217 34.856 81.5897 34.888H81.7177C81.7177 34.856 81.7177 34.824 81.7177 34.824H81.8137C81.7817 34.824 81.7497 34.856 81.7177 34.888C81.6537 34.92 81.6217 34.92 81.5897 34.92V34.888C81.5577 34.92 81.5577 34.92 81.5257 34.92C81.4617 34.952 81.4297 34.984 81.3977 35.016H81.5257C81.5257 34.984 81.5257 34.952 81.5257 34.952H81.5897C81.5577 34.952 81.5577 34.984 81.5257 35.016C81.4617 35.08 81.3977 35.112 81.3017 35.144V35.08C81.2697 35.112 81.2057 35.112 81.2057 35.112C81.1737 35.144 81.1417 35.176 81.1097 35.24C81.1417 35.24 81.2057 35.24 81.2057 35.24L81.1097 35.304C81.0777 35.336 81.0457 35.336 81.0137 35.336V35.304C81.0137 35.336 80.9497 35.336 80.8857 35.368H81.0137C80.9817 35.432 80.9177 35.496 80.8217 35.496V35.432C80.7897 35.432 80.7577 35.464 80.7257 35.464C80.6617 35.496 80.6297 35.56 80.5977 35.56H80.7577C80.6937 35.592 80.6617 35.624 80.5977 35.624V35.56C80.5657 35.592 80.5657 35.624 80.5657 35.624C80.4697 35.656 80.3737 35.72 80.3417 35.784C80.2777 35.784 80.1817 35.816 80.1497 35.848C80.0857 35.944 80.0217 35.976 79.9257 35.976C79.9577 35.912 80.0537 35.88 80.1177 35.848C80.2777 35.656 80.4697 35.56 80.6617 35.4C80.7897 35.272 80.9817 35.144 81.1737 35.08C81.3657 34.888 81.6217 34.696 81.8457 34.568C81.9097 34.504 81.9737 34.472 82.0697 34.44L82.1337 34.376C82.1337 34.376 82.1657 34.408 82.1977 34.408V34.44ZM88.6297 34.664C88.6297 34.664 88.5977 34.664 88.5657 34.696C88.5977 34.664 88.5977 34.632 88.5977 34.632C88.6297 34.6 88.6617 34.6 88.6617 34.632L88.6297 34.664ZM87.4777 34.728C87.4777 34.76 87.4137 34.792 87.3817 34.792C87.4137 34.792 87.4457 34.76 87.4777 34.728ZM88.2777 34.792C88.3097 34.76 88.3737 34.76 88.4377 34.728C88.3737 34.76 88.3417 34.792 88.2777 34.792ZM87.3817 34.824C87.3497 34.856 87.3177 34.856 87.2537 34.888C87.2857 34.856 87.3497 34.824 87.3817 34.824ZM88.1497 34.888C88.1817 34.824 88.2137 34.824 88.2777 34.824C88.2137 34.856 88.2137 34.888 88.1497 34.888ZM87.7977 35.08C87.8617 34.952 88.0217 34.92 88.1177 34.888C88.0537 34.984 87.9257 35.048 87.7977 35.08ZM87.1577 34.952C87.1257 34.984 87.0937 34.984 87.0297 35.016C87.0617 34.984 87.1257 34.952 87.1577 34.952ZM86.9977 35.016L86.9337 35.08C86.9337 35.048 86.9657 35.048 86.9977 35.016ZM87.1577 35.432C87.0297 35.624 86.8057 35.72 86.6137 35.784C86.5497 35.88 86.5177 35.912 86.4217 35.944C86.3577 36.008 86.2937 36.04 86.1977 36.072C86.2297 35.976 86.3257 35.944 86.3897 35.912C86.4537 35.816 86.5177 35.784 86.5817 35.752C86.7417 35.624 86.9337 35.496 87.1577 35.432C87.3177 35.304 87.4457 35.176 87.6377 35.144C87.5097 35.336 87.3817 35.4 87.1577 35.432ZM81.1097 35.304V35.24C81.0777 35.24 81.0457 35.272 81.0137 35.304H81.1097ZM81.6857 35.528C81.6537 35.56 81.6217 35.56 81.6217 35.592C81.2057 35.912 80.7897 36.2 80.4057 36.488C80.3417 36.552 80.2457 36.616 80.1497 36.616C80.1817 36.552 80.2457 36.456 80.3417 36.424C80.7257 36.104 81.1417 35.784 81.5577 35.528L81.6537 35.432C81.6537 35.432 81.7177 35.432 81.7177 35.464C81.7177 35.464 81.7177 35.496 81.6857 35.528ZM86.1017 35.528C86.0697 35.592 86.0057 35.624 85.9097 35.656C85.9417 35.56 86.0377 35.56 86.1017 35.528ZM80.5657 35.72C80.5657 35.688 80.5657 35.656 80.5657 35.656H80.5977C80.5657 35.656 80.5657 35.688 80.5657 35.72ZM85.6217 35.784C85.5897 35.848 85.4937 35.88 85.4617 35.944C85.4937 35.848 85.5577 35.816 85.6217 35.784ZM79.6697 36.2C79.7017 36.136 79.7657 36.104 79.8297 36.072C79.7977 36.136 79.7337 36.2 79.6697 36.2ZM85.4617 36.552C85.6857 36.328 85.9417 36.136 86.1657 36.072C85.9737 36.296 85.7177 36.424 85.4617 36.552ZM85.2377 36.68C85.2697 36.616 85.3337 36.584 85.4297 36.552C85.3657 36.616 85.3017 36.648 85.2377 36.68ZM98.0997 32.744C97.9717 32.52 97.7797 32.328 97.5877 32.136C97.2357 31.784 96.8517 31.656 96.4037 31.72C95.9237 31.784 95.4437 31.944 95.0277 32.136C94.3557 32.456 93.7157 32.776 93.1077 33.128C92.6277 33.416 92.1797 33.64 91.7317 33.96C91.1557 34.376 90.5797 34.728 90.0677 35.24L89.7477 35.528C89.7157 35.56 89.6517 35.624 89.5877 35.56C89.5237 35.496 89.5237 35.464 89.5237 35.4C89.5237 35.336 89.5877 35.272 89.5877 35.176C89.5877 34.536 89.8757 33.928 89.9717 33.256C90.0037 33 90.0357 32.744 89.9397 32.488C89.8757 32.296 89.7477 32.168 89.5877 32.072C89.5237 32.04 89.4597 32.04 89.4277 32.104L89.3317 32.296C89.1717 32.616 89.0757 32.968 88.9797 33.32C88.7557 34.088 88.4677 34.824 88.2117 35.592C87.9237 36.488 87.6997 37.352 87.4117 38.216C87.3477 38.408 87.3797 38.568 87.5397 38.728C87.6037 38.792 87.6997 38.856 87.7317 38.952C87.8277 39.208 88.0197 39.272 88.2437 39.368C88.4037 39.432 88.5317 39.4 88.6597 39.368C88.7877 39.336 88.7557 39.208 88.7877 39.144C88.7877 39.144 88.8197 39.144 88.8517 39.112C88.8517 39.08 88.8837 39.048 88.9157 39.016L88.9797 38.952C89.1397 38.568 89.3957 38.28 89.6837 37.992C89.7477 37.864 89.8437 37.736 89.9397 37.672C89.9717 37.704 89.9717 37.768 89.9717 37.832C90.0677 37.704 90.1637 37.608 90.2277 37.512H90.0677C90.2277 37.288 90.3877 37.064 90.6437 36.936C90.6437 36.904 90.6757 36.904 90.6757 36.872C90.7077 36.84 90.7397 36.808 90.7397 36.776C90.7717 36.776 90.8037 36.744 90.8357 36.712C90.8677 36.616 90.9317 36.584 91.0277 36.552C91.0597 36.52 91.0917 36.488 91.0917 36.456L91.1557 36.392C91.1557 36.424 91.1557 36.424 91.1877 36.456C91.1877 36.424 91.1877 36.424 91.1557 36.392H91.1877C91.2197 36.232 91.3477 36.136 91.5077 36.072L91.5717 35.976C91.6357 35.88 91.7317 35.784 91.8597 35.752L91.9237 35.656C91.9877 35.624 92.0197 35.592 92.0837 35.592C92.0837 35.56 92.1157 35.528 92.1477 35.496H92.1157C92.1797 35.432 92.2437 35.368 92.3397 35.336L92.4037 35.272C92.4677 35.176 92.5637 35.144 92.6277 35.08C92.6917 35.016 92.7877 34.984 92.8517 34.92C92.8837 34.824 92.9797 34.792 93.0437 34.76V34.792C93.0437 34.824 93.0757 34.824 93.0757 34.856C93.0757 34.824 93.1077 34.824 93.1397 34.792V34.76C93.2357 34.728 93.3317 34.664 93.4277 34.632C93.4277 34.632 93.4277 34.632 93.4277 34.6L93.4917 34.536C93.6197 34.44 93.8117 34.376 93.8437 34.248C93.8757 34.152 93.9717 34.152 94.0357 34.12C94.1637 34.056 94.2917 33.992 94.3877 33.928C94.6117 33.768 94.8357 33.608 95.0917 33.48C95.5717 33.256 96.0517 33 96.5637 32.808C96.7237 32.744 96.8837 32.712 97.0757 32.648C97.3317 32.552 97.5237 32.616 97.7797 32.872C97.8117 32.904 97.8117 32.904 97.8437 32.904C97.9397 32.904 97.9717 33 98.0357 32.936C98.0997 32.872 98.1317 32.808 98.0997 32.744ZM95.6357 32.296C95.6677 32.296 95.5717 32.36 95.4437 32.36C95.4757 32.328 95.5397 32.296 95.6357 32.296ZM90.8677 35.176C90.9317 35.048 91.0277 34.984 91.1557 34.952C91.1877 34.856 91.2517 34.792 91.3477 34.792C91.3797 34.664 91.4757 34.632 91.5397 34.6C91.6037 34.536 91.6997 34.472 91.7637 34.44C91.8597 34.344 91.9877 34.248 92.1157 34.184C92.2117 34.088 92.3397 33.992 92.4997 33.96C92.6597 33.8 92.8837 33.64 93.1397 33.544C93.6517 33.224 94.1637 32.904 94.7397 32.68C94.7717 32.616 94.8357 32.616 94.8997 32.616C94.9957 32.488 95.1237 32.456 95.2837 32.456C95.3157 32.392 95.3797 32.392 95.4117 32.392C95.4437 32.392 95.4437 32.424 95.4437 32.456C95.3797 32.456 95.3477 32.456 95.2837 32.456V32.52C95.1877 32.584 95.0917 32.68 94.9317 32.616V32.68C94.8677 32.712 94.8357 32.712 94.7717 32.712C94.7717 32.744 94.7717 32.744 94.7717 32.776L94.6437 32.872V32.84C94.5477 32.904 94.5157 33 94.4197 33.032C94.3877 33.064 94.3237 33.096 94.2597 33.096C94.2277 33.16 94.1957 33.16 94.1317 33.192L93.9717 33.256C93.9077 33.384 93.7797 33.448 93.6197 33.48V33.416C93.5557 33.448 93.5237 33.48 93.4917 33.48L93.6197 33.512C93.5877 33.544 93.5237 33.576 93.4917 33.576C93.4597 33.544 93.4597 33.544 93.4597 33.512C93.4277 33.544 93.3637 33.544 93.3317 33.576H93.4597C93.4597 33.64 93.3957 33.64 93.3317 33.672C93.2997 33.704 93.2357 33.736 93.2037 33.736C93.1717 33.704 93.1717 33.704 93.1717 33.672V33.736C93.1077 33.864 92.9797 33.928 92.8197 33.992C92.7877 34.024 92.7557 34.056 92.6917 34.056C92.6277 34.152 92.5637 34.184 92.4677 34.216C92.4357 34.28 92.3717 34.28 92.3397 34.312C92.3077 34.28 92.3077 34.248 92.3077 34.216L92.1797 34.248C92.1797 34.28 92.1797 34.28 92.1477 34.312H92.3077C92.2757 34.376 92.2117 34.44 92.1157 34.472C92.0837 34.504 92.0197 34.536 91.9557 34.536C91.9557 34.504 91.9557 34.472 91.9557 34.472H91.8277C91.7957 34.536 91.7637 34.568 91.7317 34.632H91.8917C91.8597 34.664 91.8277 34.696 91.7637 34.696C91.7637 34.664 91.7317 34.632 91.7317 34.632C91.6997 34.632 91.6357 34.632 91.6037 34.664C91.5717 34.696 91.5397 34.728 91.5397 34.792H91.6677C91.6357 34.792 91.5717 34.824 91.5397 34.856C91.5397 34.824 91.5397 34.792 91.5397 34.792H91.3797C91.3477 34.824 91.3157 34.888 91.3157 34.952C91.3797 34.952 91.4117 34.952 91.4757 34.952L91.3157 35.016C91.3157 34.984 91.3157 34.952 91.3157 34.952H91.1557C91.1237 34.984 91.1237 35.048 91.0917 35.112H91.2517C91.2197 35.176 91.1557 35.24 91.0597 35.24C91.0597 35.24 91.0277 35.208 91.0277 35.176C90.9957 35.176 90.9317 35.176 90.8997 35.208C90.8677 35.208 90.8357 35.24 90.8357 35.24C90.8357 35.208 90.8677 35.208 90.8677 35.176ZM96.0517 32.808C94.6117 33.288 93.3957 34.248 92.2437 35.144C91.1237 36.008 90.1957 37.032 89.3317 38.088C89.2037 38.248 89.1077 38.44 88.9157 38.568H88.8837V38.536C88.8837 38.408 88.9797 38.312 89.0437 38.248C90.0357 37.256 90.8037 36.136 91.8917 35.24C92.9157 34.376 94.0677 33.704 95.2837 33.032C95.6357 32.84 95.9557 32.712 96.3397 32.616C96.2757 32.712 96.1477 32.776 96.0517 32.808ZM93.2037 33.608V33.64C93.2357 33.64 93.2997 33.64 93.3317 33.672C93.3317 33.64 93.3317 33.608 93.2997 33.576C93.2677 33.608 93.2357 33.608 93.2037 33.608ZM92.6597 33.992H92.8197C92.8197 33.96 92.8197 33.928 92.8197 33.896L92.6597 33.992ZM92.5317 33.992C92.5317 34.024 92.5317 34.056 92.5317 34.056H92.6917C92.6917 34.024 92.6597 33.992 92.6597 33.992H92.5317ZM92.3077 34.216H92.4677C92.4677 34.184 92.4677 34.152 92.4677 34.12L92.3077 34.216ZM91.9557 34.472C92.0197 34.472 92.0517 34.472 92.1157 34.472V34.376C92.0517 34.408 91.9877 34.44 91.9557 34.472ZM92.8517 35.016V34.92C92.8197 34.952 92.8517 34.952 92.8517 35.016ZM92.8517 35.016L92.8837 35.048C92.8837 35.016 92.8517 35.016 92.8517 35.016ZM90.8037 35.272C90.8037 35.304 90.7717 35.368 90.7717 35.4H90.6117C90.6437 35.336 90.7077 35.272 90.8037 35.272ZM92.4357 35.336H92.3397C92.3397 35.368 92.3717 35.4 92.3717 35.4L92.4357 35.336ZM92.3077 35.496C92.3077 35.464 92.3397 35.464 92.3717 35.432V35.4C92.3397 35.432 92.3077 35.464 92.2757 35.496H92.3077ZM90.5157 35.496C90.4837 35.592 90.4197 35.624 90.3237 35.656C90.3877 35.592 90.4517 35.528 90.5157 35.496ZM92.1477 35.592L92.2757 35.496C92.2437 35.496 92.1797 35.496 92.1477 35.496V35.592ZM92.0837 35.656C92.1157 35.624 92.1157 35.592 92.1477 35.592C92.1157 35.592 92.0837 35.592 92.0837 35.592V35.656ZM91.9237 35.72C91.9237 35.752 91.9237 35.752 91.9237 35.752L92.0837 35.656C92.0197 35.656 91.9877 35.656 91.9237 35.656V35.72ZM91.9557 35.752H91.9237H91.9557ZM91.8597 35.816L91.9237 35.752C91.8917 35.752 91.8917 35.752 91.8597 35.752V35.816ZM91.8597 35.816L91.7957 35.912C91.8277 35.88 91.8597 35.848 91.8597 35.816ZM91.7317 35.976C91.7637 35.944 91.7957 35.944 91.7957 35.912C91.7637 35.912 91.7637 35.944 91.7317 35.976ZM91.6037 36.072C91.6357 36.04 91.6677 36.008 91.7317 35.976H91.5717C91.5717 36.008 91.6037 36.04 91.6037 36.072ZM90.0357 36.008C90.0037 36.072 89.9397 36.104 89.8437 36.136C89.9077 36.072 89.9717 36.008 90.0357 36.008ZM91.5717 36.072H91.5077C91.5077 36.104 91.5397 36.104 91.5397 36.136C91.5397 36.104 91.5717 36.104 91.5717 36.072ZM91.4117 36.328C91.4117 36.296 91.4437 36.264 91.4437 36.232L91.3797 36.328H91.4117ZM91.1237 36.552C91.1557 36.52 91.1557 36.488 91.1877 36.456H91.0917C91.1237 36.488 91.1237 36.52 91.1237 36.552ZM91.0597 36.616C91.0597 36.584 91.0917 36.584 91.1237 36.552H91.0277C91.0277 36.584 91.0597 36.584 91.0597 36.616ZM90.9957 36.712C90.9957 36.68 91.0277 36.648 91.0597 36.616C91.0277 36.648 90.9957 36.68 90.9637 36.712H90.9957ZM90.8357 36.776C90.8997 36.744 90.9317 36.744 90.9637 36.712C90.9317 36.712 90.8677 36.712 90.8357 36.712V36.776ZM90.7717 36.872L90.8357 36.776C90.8037 36.776 90.7717 36.776 90.7717 36.776V36.872ZM90.7077 36.936L90.7717 36.872C90.7397 36.872 90.7077 36.872 90.7077 36.872V36.936ZM90.6437 37C90.6757 37 90.6757 36.968 90.7077 36.936C90.6757 36.936 90.6437 36.936 90.6437 36.936V37ZM90.6437 37.032C90.6117 37.032 90.5797 37.064 90.5797 37.096C90.5797 37.064 90.6117 37.064 90.6437 37.032ZM90.4517 37.256C90.4517 37.224 90.4837 37.224 90.5157 37.192C90.5157 37.16 90.5477 37.128 90.5797 37.096L90.4837 37.192C90.4837 37.192 90.4517 37.224 90.4197 37.256L90.3557 37.352C90.3557 37.352 90.3237 37.384 90.2917 37.416L90.3877 37.352C90.3877 37.32 90.4197 37.288 90.4517 37.256ZM90.2917 37.416C90.2917 37.448 90.2597 37.48 90.2277 37.512H90.2597C90.2597 37.48 90.2917 37.448 90.2917 37.416ZM89.9717 37.832L89.9077 37.896C89.9397 37.864 89.9717 37.864 89.9717 37.832ZM89.5877 38.312L89.6197 38.28H89.5877L89.5237 38.376C89.5557 38.344 89.5557 38.312 89.5877 38.312ZM89.4597 38.472C89.4597 38.44 89.4917 38.408 89.5237 38.376L89.4277 38.472C89.4277 38.504 89.3957 38.504 89.3957 38.536C89.4277 38.536 89.4277 38.504 89.4597 38.472ZM89.3957 38.536L89.3637 38.568C89.3957 38.568 89.3957 38.536 89.3957 38.536ZM89.3637 38.568L89.2997 38.632C89.2997 38.664 89.2677 38.664 89.2677 38.696L89.3317 38.632C89.3637 38.6 89.3637 38.6 89.3637 38.568ZM89.2677 38.696L89.2037 38.76C89.1717 38.792 89.1717 38.824 89.1397 38.824C89.1717 38.824 89.2037 38.792 89.2037 38.792L89.2677 38.696ZM89.1077 38.888C89.1077 38.888 89.1397 38.856 89.1397 38.824C89.1397 38.856 89.1077 38.856 89.1077 38.888ZM89.1077 38.888C89.0757 38.888 89.0757 38.92 89.0437 38.952C89.0757 38.92 89.1077 38.92 89.1077 38.888ZM89.0437 38.952H88.9797C88.9797 38.984 88.9797 38.984 88.9797 39.016L89.0437 38.952ZM88.9157 39.112C88.9477 39.08 88.9797 39.048 88.9797 39.016C88.9477 39.016 88.9477 39.016 88.9157 39.016V39.112ZM88.8517 39.112H88.9157C88.8837 39.08 88.8517 39.08 88.8517 39.112ZM108.927 32.808C108.799 32.648 108.639 32.648 108.447 32.68C108.287 32.744 108.159 32.808 107.999 32.904C107.743 33.032 107.487 33.16 107.263 33.288C106.335 33.8 105.439 34.376 104.543 34.952C103.391 35.688 102.271 36.456 101.119 37.224C100.383 37.704 99.6474 38.216 98.8794 38.696C98.4634 38.984 98.0154 39.24 97.5354 39.464C97.3434 39.56 97.1194 39.656 96.8954 39.688C96.7674 39.72 96.6714 39.688 96.6394 39.528C96.6074 39.336 96.6074 39.112 96.6394 38.92C96.6714 38.568 96.7354 38.248 96.8314 37.928C96.8954 37.64 96.9274 37.384 97.0874 37.128V37.032C97.1194 36.968 97.1194 36.904 97.1514 36.84C97.4074 36.232 97.7594 35.624 98.1114 35.016C98.1754 34.888 98.2714 34.76 98.3674 34.664C98.4954 34.504 98.6234 34.408 98.7834 34.408C99.3914 34.312 99.8714 33.992 100.383 33.672C100.895 33.32 101.343 32.872 101.759 32.424C102.303 31.848 102.271 31.464 101.823 31.016C101.535 30.728 101.215 30.696 100.831 30.824C100.607 30.92 100.351 31.048 100.127 31.176C99.6794 31.528 99.2314 31.88 98.8474 32.296C98.7194 32.488 98.5594 32.648 98.3674 32.776C98.0794 32.968 97.8554 33.224 97.7274 33.544C97.6954 33.672 97.6314 33.768 97.5674 33.864C97.1194 34.504 96.7034 35.144 96.3834 35.816C95.9994 36.616 95.6794 37.416 95.5514 38.28C95.4234 39.016 95.5834 39.624 96.0634 40.136C96.4154 40.488 96.8314 40.616 97.3434 40.584C97.7594 40.552 98.1434 40.424 98.5274 40.232C99.1994 39.88 99.8714 39.496 100.511 39.048C100.895 38.792 101.279 38.536 101.663 38.248H101.695C101.951 38.024 102.207 37.8 102.463 37.608C103.007 37.16 103.583 36.776 104.127 36.36C104.735 35.944 105.407 35.592 105.983 35.144C106.303 34.952 106.655 34.76 106.975 34.536C107.679 34.056 108.415 33.608 109.215 33.32C109.247 33.064 109.055 32.936 108.927 32.808ZM99.9994 31.688L100.095 31.592C100.255 31.4 100.447 31.304 100.671 31.208C100.671 31.208 100.671 31.24 100.703 31.272C100.671 31.304 100.671 31.336 100.671 31.368C100.607 31.432 100.511 31.464 100.415 31.528C100.351 31.592 100.255 31.656 100.159 31.688L100.063 31.752C100.031 31.784 99.9994 31.816 99.9994 31.848V31.752C99.9674 31.752 99.9354 31.752 99.9034 31.752L99.9994 31.688ZM101.087 31.592C100.671 31.88 100.319 32.168 99.9034 32.456C100.191 32.04 100.671 31.688 101.087 31.592ZM100.063 31.752C100.063 31.72 100.095 31.72 100.095 31.688C100.095 31.688 100.127 31.688 100.159 31.688L100.095 31.592C100.095 31.624 100.095 31.656 100.063 31.688H99.9994C99.9994 31.72 99.9994 31.72 99.9994 31.752H100.063ZM99.9034 31.784C99.9034 31.784 99.9034 31.816 99.9034 31.848H99.8074C99.8394 31.816 99.8714 31.784 99.9034 31.784ZM100.063 32.584V32.552C100.095 32.552 100.127 32.52 100.127 32.488H100.159C100.351 32.2 100.671 32.008 100.991 31.88C101.023 31.848 101.055 31.848 101.087 31.88C101.119 31.912 101.119 31.976 101.087 32.008C100.863 32.232 100.671 32.456 100.447 32.648C100.319 32.776 100.159 32.872 99.9994 33C99.8394 33.16 99.6474 33.256 99.4234 33.288C99.5834 33 99.8074 32.776 100.063 32.584ZM100.095 32.552H100.063C100.063 32.552 100.095 32.584 100.127 32.584L100.095 32.552ZM101.055 32.968C101.055 32.936 101.087 32.904 101.119 32.904C101.119 32.936 101.087 32.936 101.055 32.968ZM100.255 33.192C100.159 33.288 100.031 33.384 99.8714 33.352C100.031 33.192 100.223 33.096 100.383 32.968C100.383 33.064 100.351 33.16 100.255 33.192ZM100.863 33.128C100.767 33.288 100.607 33.416 100.415 33.448C100.415 33.48 100.383 33.512 100.351 33.512C100.383 33.512 100.383 33.48 100.415 33.448C100.543 33.288 100.703 33.192 100.863 33.096C100.863 33.096 100.895 33.064 100.927 33.064C100.927 33.096 100.895 33.096 100.863 33.128ZM108.031 33.128C108.063 33.128 108.095 33.128 108.095 33.16L108.063 33.192H107.999C107.999 33.192 108.031 33.16 108.031 33.128ZM107.967 33.224C107.935 33.256 107.871 33.288 107.839 33.288C107.871 33.224 107.935 33.224 107.967 33.224ZM107.807 33.288C107.775 33.352 107.711 33.352 107.647 33.352L107.807 33.288ZM100.575 37.992C100.671 37.896 100.799 37.8 100.927 37.736C101.023 37.64 101.119 37.576 101.247 37.512C101.407 37.384 101.535 37.256 101.695 37.192C101.919 37 102.175 36.84 102.399 36.712C102.495 36.584 102.623 36.52 102.751 36.456C102.847 36.36 102.975 36.264 103.103 36.232C103.199 36.136 103.327 36.04 103.455 36.008C103.647 35.816 103.839 35.688 104.063 35.592C104.159 35.496 104.287 35.4 104.415 35.368C104.511 35.272 104.575 35.208 104.671 35.208C104.863 35.016 105.055 34.888 105.279 34.792C105.375 34.696 105.439 34.664 105.567 34.632C105.631 34.536 105.727 34.504 105.823 34.472C106.047 34.248 106.303 34.12 106.591 33.992C106.655 33.896 106.751 33.864 106.879 33.832C106.911 33.736 107.007 33.704 107.103 33.672C107.199 33.576 107.263 33.544 107.391 33.512C107.455 33.416 107.551 33.384 107.615 33.352C107.615 33.384 107.615 33.416 107.647 33.448C107.583 33.512 107.519 33.544 107.455 33.608L107.391 33.544C107.391 33.576 107.391 33.576 107.359 33.608C107.327 33.672 107.263 33.704 107.199 33.768C107.103 33.832 107.007 33.864 106.943 33.928L106.655 34.088C106.591 34.152 106.495 34.184 106.399 34.248H106.431C106.335 34.28 106.239 34.344 106.143 34.408H106.175C106.079 34.44 105.983 34.504 105.887 34.568C105.887 34.536 105.855 34.536 105.823 34.504V34.568C105.759 34.632 105.695 34.664 105.631 34.728L105.567 34.664C105.567 34.696 105.567 34.696 105.535 34.728C105.503 34.792 105.439 34.824 105.375 34.888L105.279 34.984C105.183 35.016 105.119 35.08 105.023 35.112H104.927C104.895 35.176 104.831 35.24 104.767 35.272C104.735 35.272 104.735 35.24 104.703 35.208C104.703 35.24 104.703 35.272 104.671 35.304H104.767C104.735 35.304 104.703 35.336 104.671 35.368C104.607 35.4 104.575 35.432 104.511 35.432C104.479 35.432 104.479 35.4 104.447 35.4V35.432C104.447 35.432 104.479 35.432 104.511 35.464C104.479 35.464 104.447 35.496 104.415 35.528C104.351 35.592 104.255 35.656 104.159 35.688L104.063 35.784C103.967 35.816 103.903 35.88 103.807 35.912L103.711 36.008C103.647 36.04 103.615 36.072 103.551 36.072C103.519 36.072 103.519 36.04 103.487 36.04V36.072C103.487 36.072 103.519 36.072 103.551 36.104C103.519 36.104 103.487 36.136 103.455 36.168L103.359 36.264C103.295 36.264 103.263 36.296 103.199 36.328L103.103 36.424C103.039 36.488 102.943 36.552 102.847 36.584C102.815 36.584 102.783 36.616 102.751 36.648C102.687 36.744 102.591 36.808 102.495 36.808L102.399 36.904C102.367 36.904 102.335 36.936 102.335 36.968V36.936H102.303V36.968C102.239 37.064 102.143 37.096 102.047 37.128H102.015V37.16L101.983 37.192L101.951 37.16V37.224C101.887 37.288 101.791 37.352 101.695 37.384C101.663 37.384 101.631 37.416 101.631 37.448C101.631 37.416 101.631 37.384 101.631 37.384L101.535 37.448C101.567 37.448 101.567 37.448 101.599 37.448L101.503 37.544C101.471 37.544 101.407 37.576 101.343 37.608C101.311 37.64 101.311 37.672 101.279 37.672V37.608C101.247 37.64 101.215 37.672 101.183 37.672C101.183 37.704 101.183 37.704 101.183 37.704H101.247C101.247 37.704 101.215 37.736 101.183 37.768V37.704C101.151 37.736 101.119 37.736 101.087 37.768L100.959 37.8C100.959 37.832 100.927 37.832 100.927 37.864C100.895 37.864 100.863 37.896 100.831 37.928H100.927C100.895 37.96 100.863 37.992 100.831 37.992V37.928C100.799 37.96 100.767 37.992 100.735 38.024H100.607C100.575 38.088 100.511 38.12 100.479 38.184C100.415 38.184 100.319 38.216 100.255 38.248C100.319 38.12 100.447 38.056 100.575 37.992ZM108.447 33.448C108.479 33.384 108.543 33.384 108.575 33.384C108.543 33.384 108.479 33.416 108.447 33.448ZM108.191 33.608L107.999 33.704C107.967 33.768 107.903 33.8 107.807 33.864C107.263 34.216 106.687 34.568 106.143 34.888C106.079 34.952 106.015 34.952 105.951 34.984C105.759 35.176 105.567 35.304 105.343 35.4C104.639 35.912 103.967 36.392 103.231 36.84C102.879 37.096 102.559 37.384 102.207 37.64C101.727 37.96 101.279 38.312 100.799 38.632C100.639 38.728 100.511 38.856 100.319 38.888C100.255 38.984 100.159 39.048 100.063 39.048C99.9994 39.144 99.9034 39.176 99.8074 39.208C99.8714 39.144 99.9674 39.08 100.063 39.048C100.127 38.952 100.191 38.888 100.319 38.888C100.383 38.76 100.543 38.664 100.671 38.568C101.407 38.056 102.143 37.512 102.879 36.968L103.199 36.776C103.711 36.36 104.287 35.976 104.863 35.592C104.991 35.496 105.151 35.432 105.279 35.336C105.471 35.176 105.695 35.048 105.919 34.952C106.495 34.504 107.135 34.152 107.775 33.768C107.839 33.704 107.935 33.704 107.999 33.672C108.063 33.608 108.127 33.608 108.191 33.608C108.255 33.512 108.319 33.448 108.415 33.448C108.383 33.544 108.287 33.576 108.191 33.608ZM100.095 33.672C100.159 33.608 100.223 33.544 100.319 33.544C100.287 33.64 100.191 33.672 100.095 33.672ZM105.279 34.888C105.311 34.888 105.343 34.888 105.375 34.888L105.311 34.824C105.311 34.856 105.311 34.856 105.279 34.888ZM104.063 35.688C104.095 35.688 104.127 35.688 104.159 35.688L104.095 35.624C104.095 35.656 104.095 35.656 104.063 35.688ZM103.359 36.168H103.455C103.455 36.136 103.455 36.136 103.455 36.104L103.359 36.168ZM103.103 36.328C103.135 36.328 103.167 36.328 103.199 36.328L103.135 36.264C103.135 36.296 103.135 36.328 103.103 36.328ZM102.783 36.52V36.552C102.783 36.552 102.815 36.552 102.847 36.584C102.815 36.552 102.815 36.52 102.783 36.52ZM102.751 36.584V36.648C102.783 36.616 102.783 36.616 102.751 36.584ZM102.495 36.808C102.463 36.808 102.463 36.776 102.431 36.776C102.463 36.808 102.463 36.808 102.495 36.808ZM102.335 36.872C102.367 36.872 102.367 36.872 102.399 36.904V36.84C102.367 36.84 102.367 36.872 102.335 36.872ZM101.631 37.384C101.663 37.384 101.663 37.384 101.695 37.384V37.288C101.695 37.32 101.663 37.352 101.631 37.384ZM101.279 37.608H101.343C101.343 37.608 101.311 37.576 101.311 37.544C101.311 37.576 101.279 37.608 101.279 37.608ZM100.223 38.248C100.191 38.344 100.095 38.408 99.9994 38.408C100.063 38.312 100.127 38.28 100.223 38.248ZM99.8714 38.504C99.8074 38.6 99.7434 38.632 99.6474 38.632C99.7114 38.568 99.7754 38.504 99.8714 38.504ZM99.5514 38.728C99.5514 38.696 99.5834 38.664 99.6154 38.664C99.5834 38.696 99.5514 38.696 99.5514 38.728Z" fill="#373737"/>
</svg>
