<svg width="88" height="56" viewBox="0 0 88 56" fill="none" xmlns="http://www.w3.org/2000/svg">
<path opacity="0.2" d="M35.3503 6.576C35.2223 5.488 34.9983 4.432 34.5183 3.472C34.0703 2.576 33.3983 1.904 32.5023 1.424C31.6703 0.975998 30.7423 1.008 29.7503 1.456C29.2063 1.68 28.6943 2.032 28.2143 2.416C27.3823 3.056 26.6143 3.76 25.8783 4.496L25.3983 5.04C24.8863 5.648 24.3423 6.288 23.8303 6.928C23.5423 7.28 23.2223 7.664 22.9663 8.048C22.3263 8.944 21.6863 9.872 21.0463 10.768L20.3743 11.824C19.9583 12.496 19.5423 13.136 19.1583 13.808C18.8383 14.32 18.5183 14.832 18.2303 15.376C17.5583 16.56 16.8543 17.744 16.2463 18.96L14.9023 21.552C14.8383 21.712 14.7423 21.872 14.6463 22.032C14.4223 22.32 14.2943 22.672 14.1023 22.992C13.9103 23.44 13.6863 23.888 13.4623 24.336L12.0223 27.312C11.7023 28.016 11.3823 28.752 11.0303 29.456L9.4623 32.848C8.9503 34 8.4703 35.152 7.9583 36.304C7.7663 36.784 7.7023 36.816 7.1903 36.752C6.7423 36.688 6.2943 36.624 5.8463 36.528C4.6303 36.24 3.5423 35.76 2.6143 34.96C2.1663 34.576 1.7823 34.16 1.4943 33.648C1.3983 33.488 1.3023 33.296 1.2703 33.136C1.1743 32.912 1.2383 32.688 1.4303 32.496C1.4943 32.432 1.5583 32.368 1.6223 32.272C1.5583 32.272 1.5263 32.24 1.4943 32.24C1.3663 32.272 1.2703 32.368 1.2063 32.464L0.886299 32.944C0.854299 33.2 0.950299 33.456 1.0783 33.68C1.3663 34.288 1.8143 34.8 2.3263 35.248C3.1903 35.952 4.1823 36.464 5.2703 36.816C5.9103 37.04 6.5503 37.2 7.1903 37.296C7.2863 37.328 7.3503 37.36 7.4143 37.392L7.3503 37.648C7.0943 38.256 6.8383 38.896 6.5823 39.536L6.2943 40.208C6.0383 40.848 5.7503 41.52 5.4943 42.192C5.1743 42.96 4.8543 43.728 4.5343 44.528L3.5743 47.056C3.4783 47.376 3.3503 47.664 3.2223 47.984C3.0943 48.4 2.9663 48.816 2.7743 49.264C2.3583 50.224 1.9743 51.216 1.6223 52.208C1.3023 53.072 0.982299 53.936 0.534299 54.768C0.534299 54.832 0.502299 54.864 0.502299 54.896C0.438299 55.056 0.502299 55.184 0.630299 55.248C0.726299 55.312 0.822299 55.312 0.918299 55.376C1.0143 55.504 1.1423 55.536 1.3343 55.44C1.5263 55.536 1.6863 55.44 1.7823 55.312C1.8783 55.024 1.9423 54.8 2.0383 54.544C2.3263 53.776 2.6463 53.008 2.9663 52.272C3.0303 52.08 3.0943 51.92 3.2223 51.76L3.3183 51.408C3.6703 50.512 4.0223 49.616 4.4063 48.72C4.8543 47.536 5.3343 46.352 5.8143 45.136C6.2623 44.112 6.6783 43.088 7.0943 42.064C7.7023 40.624 8.2783 39.184 8.8863 37.712L8.9823 37.584C9.2063 37.456 9.4303 37.456 9.6223 37.456C10.7103 37.488 11.7983 37.392 12.8863 37.168C14.7103 36.848 16.5343 36.272 18.3263 35.472C19.3503 35.024 20.3743 34.48 21.3343 33.872C22.0063 33.456 22.7103 33.008 23.3503 32.496C23.8943 32.048 24.4703 31.6 25.0143 31.12C25.3983 30.768 25.8143 30.448 26.1023 30.032C26.1343 29.968 26.1983 29.936 26.2623 29.872C26.5823 29.552 26.9023 29.264 27.1583 28.912C27.4783 28.496 27.8303 28.112 28.1503 27.728C28.2143 27.664 28.2463 27.632 28.2783 27.568C28.3743 27.44 28.4383 27.312 28.5343 27.216C28.9503 26.608 29.3663 26 29.8143 25.392C29.9743 25.136 30.1663 24.88 30.3583 24.624L30.3263 24.656C30.4223 24.368 30.5823 24.112 30.8063 23.888V23.92C30.9343 23.44 31.2223 23.024 31.5103 22.608C31.5423 22.576 31.5743 22.576 31.6063 22.608C31.6383 22.448 31.7023 22.288 31.7663 22.128C32.0543 21.456 32.3423 20.816 32.7583 20.176C32.7583 20.112 32.7583 20.08 32.7903 20.016C33.0783 19.408 33.3663 18.768 33.5583 18.128C33.5903 17.968 33.6543 17.84 33.7183 17.68C33.8463 17.328 33.9743 17.008 34.0703 16.656C34.2943 15.92 34.4863 15.184 34.7103 14.48C34.7103 14.352 34.7423 14.256 34.7743 14.16C34.8703 13.552 34.9983 12.944 35.0943 12.368L35.2543 11.344C35.2863 10.96 35.3503 10.576 35.3823 10.224C35.4143 9.68 35.4463 9.168 35.4463 8.656C35.4783 7.952 35.4143 7.28 35.3503 6.576ZM33.8463 11.472C33.6543 12.816 33.3023 14.128 32.9503 15.472C32.6623 16.528 32.2783 17.552 31.8623 18.576C31.6703 19.088 31.4783 19.568 31.2223 20.048C31.0303 20.4 30.9023 20.784 30.7103 21.168L29.7503 22.928C29.1103 24.08 28.3743 25.168 27.6063 26.256C27.3503 26.608 27.0623 26.928 26.8063 27.248C25.9103 28.368 24.9503 29.392 23.8943 30.352C23.2223 30.96 22.4863 31.568 21.7503 32.112C20.2143 33.264 18.6143 34.192 16.9183 34.96C16.1503 35.312 15.3503 35.6 14.5503 35.888C13.4303 36.24 12.3423 36.496 11.2223 36.656L9.8143 36.816C9.5903 36.816 9.5903 36.816 9.3983 36.592L9.7823 35.664C10.3263 34.448 10.8703 33.232 11.4143 32.016L11.6383 31.632C11.6703 31.632 11.6703 31.632 11.6703 31.6L11.6383 31.632C11.7023 31.312 11.8623 30.992 11.9903 30.704C12.5023 29.616 13.0143 28.496 13.5583 27.408C14.0063 26.448 14.4863 25.488 14.9343 24.528C14.9983 24.4 15.0623 24.24 15.1583 24.112C15.2223 23.984 15.3183 23.888 15.3823 23.76C15.4463 23.6 15.4783 23.472 15.5423 23.344C16.0863 22.288 16.6303 21.232 17.1743 20.208C17.2063 20.112 17.3023 20.016 17.3663 19.92L17.4623 19.632C17.6863 19.184 17.9423 18.768 18.1663 18.352C18.1983 18.288 18.2623 18.224 18.3263 18.16C18.3583 18.032 18.4223 17.872 18.4863 17.776L20.6623 13.968C20.7583 13.808 20.8863 13.68 21.0143 13.52L21.1103 13.36C21.2063 13.2 21.2703 13.04 21.3343 12.88C21.8783 12.048 22.4223 11.184 23.0303 10.352C23.3503 9.936 23.6383 9.488 23.9583 9.04C24.0223 8.944 24.1183 8.88 24.2143 8.784C24.3743 8.432 24.6303 8.112 24.9503 7.824C24.9823 7.76 25.0143 7.664 25.0783 7.6C25.4303 7.152 25.8143 6.704 26.1983 6.256C26.1983 6.224 26.2623 6.224 26.2943 6.192C26.5823 5.776 26.9023 5.424 27.3183 5.136C27.3183 5.104 27.3503 5.04 27.3823 5.008V5.136C27.4783 5.04 27.5743 4.944 27.5743 4.816C28.2463 4.208 28.9503 3.664 29.6543 3.12C30.1343 2.768 30.6783 2.448 31.2223 2.288C32.0543 2.032 32.7583 2.256 33.1423 2.896C33.4943 3.44 33.6543 4.08 33.8143 4.72C34.0063 5.584 34.1023 6.512 34.1343 7.44C34.1663 8.752 34.0383 10.096 33.8463 11.472ZM28.7583 2.544L28.7263 2.576C28.7263 2.544 28.7263 2.544 28.7583 2.544ZM24.4703 6.864L24.6623 6.608C24.7903 6.32 25.0143 6.096 25.2703 5.872C25.3663 5.68 25.4943 5.52 25.6863 5.392C25.7183 5.296 25.7823 5.232 25.8143 5.168C26.5183 4.4 27.2543 3.632 28.0863 2.992L28.2783 2.864C28.3423 2.928 28.2783 2.96 28.2463 2.992L27.7023 3.472C27.6063 3.568 27.4783 3.696 27.4463 3.856C27.3183 4.08 27.1263 4.272 26.8703 4.368C26.8063 4.56 26.6463 4.72 26.4543 4.848L26.1663 5.168C26.1023 5.264 26.0063 5.36 25.8783 5.392C25.9103 5.328 25.9423 5.296 25.9743 5.232L25.7183 5.424C25.6863 5.456 25.6863 5.52 25.6543 5.552C25.7183 5.52 25.7823 5.488 25.8463 5.424C25.8143 5.552 25.7503 5.616 25.6543 5.68V5.712C25.6543 5.712 25.6223 5.712 25.6223 5.744C25.5903 5.84 25.4943 5.936 25.3663 6C25.3983 5.936 25.4303 5.872 25.4623 5.808L25.3023 5.904C25.2703 5.936 25.2703 6 25.2703 6.032C25.3023 6.032 25.3023 6.032 25.3343 6C25.3023 6.064 25.2383 6.16 25.1743 6.224C25.2063 6.16 25.2383 6.096 25.2383 6.064C25.1423 6.128 25.0783 6.192 25.0463 6.288C25.0783 6.288 25.1103 6.256 25.1423 6.256L24.9823 6.448C25.0143 6.416 25.0143 6.352 25.0463 6.288C24.9503 6.352 24.8863 6.416 24.8543 6.544C24.8863 6.512 24.9183 6.512 24.9503 6.512C24.8863 6.576 24.8543 6.64 24.8223 6.704C24.7583 6.768 24.6623 6.864 24.5983 6.928L24.4063 7.184C24.3423 7.248 24.2783 7.312 24.2143 7.376V7.44H24.1823L24.0863 7.6C24.1183 7.536 24.1183 7.472 24.1183 7.408C24.0543 7.44 24.0223 7.472 23.9583 7.472C24.0543 7.248 24.2143 7.024 24.4703 6.864ZM9.1103 36.688C9.0143 36.624 9.0783 36.56 9.1103 36.496C9.3343 35.92 9.5903 35.344 9.8463 34.8L11.5743 30.928C12.1183 29.744 12.6943 28.56 13.2383 27.376C13.8143 26.192 14.3903 24.976 14.9983 23.792C15.7023 22.416 16.3743 20.976 17.1423 19.6C17.8143 18.416 18.4543 17.2 19.1583 16.016C19.8623 14.736 20.5983 13.456 21.4303 12.24C22.0063 11.376 22.5503 10.544 23.1263 9.68L24.3743 7.984C25.1743 6.928 26.0383 5.904 26.9983 4.944C27.6383 4.24 28.3423 3.6 29.1103 3.056C29.1743 3.024 29.2383 2.992 29.3023 2.928C29.3023 2.96 29.3343 2.96 29.3343 2.992C29.3023 3.024 29.2383 3.088 29.2063 3.152C27.8943 4.176 26.7423 5.392 25.6543 6.64C24.8223 7.632 24.0543 8.656 23.2863 9.68C22.1983 11.184 21.2383 12.752 20.2463 14.32L19.3183 15.952C18.3263 17.648 17.4303 19.344 16.5343 21.072C16.0543 21.968 15.5743 22.864 15.1263 23.792L13.8463 26.384C13.1743 27.856 12.4703 29.328 11.7983 30.8C11.0943 32.304 10.4223 33.84 9.7183 35.376C9.5583 35.76 9.3983 36.144 9.2063 36.56C9.2063 36.592 9.1423 36.624 9.1103 36.688ZM26.7743 4.4C26.8063 4.4 26.8383 4.368 26.8703 4.368C26.9023 4.304 26.9023 4.24 26.9343 4.208L26.7743 4.4ZM26.4543 4.688C26.4223 4.72 26.3903 4.784 26.3903 4.816H26.4223C26.4223 4.752 26.4543 4.72 26.4543 4.688ZM26.1663 5.008C26.1343 5.04 26.1023 5.104 26.0703 5.136H26.1343C26.1343 5.104 26.1343 5.04 26.1663 5.008ZM25.6223 5.744V5.712C25.6223 5.712 25.6543 5.712 25.6543 5.68C25.6543 5.648 25.6543 5.616 25.6543 5.552L25.4623 5.808C25.5263 5.776 25.5583 5.744 25.6223 5.744ZM24.8223 6.704C24.8223 6.64 24.8223 6.576 24.8543 6.512L24.6623 6.608C24.6623 6.672 24.6303 6.736 24.6303 6.768C24.6943 6.736 24.7583 6.736 24.8223 6.704ZM24.5983 6.928C24.6303 6.896 24.6303 6.832 24.6303 6.768L24.4703 6.864C24.4383 6.896 24.4383 6.96 24.4383 7.024C24.5023 6.992 24.5663 6.96 24.5983 6.928ZM24.2783 7.184H24.4063C24.4063 7.12 24.4383 7.056 24.4383 7.024C24.3743 7.056 24.3423 7.12 24.2783 7.184ZM24.1183 7.44C24.1503 7.44 24.1503 7.44 24.1823 7.44V7.408C24.1823 7.408 24.2143 7.408 24.2143 7.376C24.2143 7.312 24.2143 7.248 24.2463 7.216C24.1823 7.28 24.1503 7.376 24.1183 7.44ZM23.5423 7.952C23.5743 7.952 23.6063 7.92 23.6383 7.92C23.6703 7.728 23.7663 7.632 23.9263 7.536C23.8943 7.664 23.7983 7.824 23.6383 7.92C23.6063 7.92 23.6063 7.952 23.6063 7.984C23.5743 8.016 23.5743 8.016 23.5423 8.016V7.952ZM24.5983 8.4L24.5663 8.432C24.5983 8.432 24.5983 8.4 24.5983 8.4ZM22.4543 9.552C22.4863 9.488 22.5183 9.424 22.5503 9.392C22.5823 9.328 22.6143 9.264 22.6783 9.232C22.6463 9.264 22.5823 9.328 22.5503 9.392L22.4543 9.552C22.4223 9.616 22.3903 9.648 22.3263 9.712C22.3583 9.648 22.4223 9.584 22.4543 9.552ZM23.7663 9.552V9.52L23.7343 9.552H23.7663ZM21.9743 10.16L22.0063 10.192L21.9423 10.288C21.9423 10.288 21.9103 10.288 21.9103 10.256L21.9743 10.16ZM21.3343 11.152C21.3983 11.12 21.4303 11.056 21.4623 10.992C21.4943 10.96 21.5263 10.896 21.5583 10.832H21.5903L21.5583 10.864C21.5263 10.896 21.4943 10.96 21.4623 11.024C21.4303 11.056 21.3983 11.12 21.3343 11.184V11.152ZM20.9503 11.856C20.8863 11.888 20.8543 11.92 20.8223 11.952C20.8223 11.92 20.8223 11.888 20.8543 11.856C20.8543 11.856 20.8863 11.824 20.9503 11.856ZM20.4383 12.56C20.5023 12.496 20.5343 12.432 20.5663 12.4C20.5343 12.432 20.5023 12.496 20.4703 12.56C20.4063 12.624 20.3743 12.656 20.3423 12.72C20.3743 12.656 20.4063 12.592 20.4383 12.56ZM21.3023 13.2C21.3023 13.232 21.2703 13.264 21.2703 13.264L21.3343 13.2H21.3023ZM21.2063 13.36C21.2383 13.328 21.2383 13.296 21.2703 13.264L21.2063 13.36ZM21.2063 13.36H21.1103C21.1103 13.392 21.1103 13.456 21.0783 13.52C21.1423 13.456 21.1743 13.424 21.2063 13.36ZM19.4143 14.256C19.3823 14.32 19.3503 14.384 19.3183 14.416L19.4143 14.256ZM19.9583 15.472V15.44L19.9263 15.472H19.9583ZM18.2623 16.208C18.2303 16.272 18.1983 16.368 18.1343 16.432L18.2623 16.208ZM17.9103 16.848V16.88H17.8783L17.9103 16.848ZM17.4623 19.952C17.4303 19.952 17.3983 19.952 17.3663 19.92C17.3663 20.016 17.3343 20.112 17.3343 20.208C17.3663 20.112 17.3983 20.016 17.4623 19.952ZM17.1743 20.432L17.2063 20.4H17.1743V20.432ZM30.4223 24.656H30.3583C30.3583 24.72 30.3583 24.72 30.4223 24.656ZM29.3983 25.712C28.6303 26.832 27.7983 27.952 26.8703 28.976L25.9103 30C25.7823 30.096 25.6543 30.192 25.5583 30.288C25.3983 30.48 25.2063 30.64 24.9503 30.768L25.0463 30.64C25.2063 30.512 25.3663 30.384 25.5263 30.224C25.6223 30.128 25.6863 30 25.8143 29.904C27.2223 28.464 28.4383 26.928 29.5583 25.296C29.6543 25.136 29.7183 25.008 29.8783 24.912C29.7183 25.2 29.5903 25.456 29.3983 25.712ZM13.6223 25.072C13.6223 25.072 13.6223 25.072 13.5903 25.072H13.6223ZM13.3343 25.616L13.3983 25.552C13.3663 25.584 13.3663 25.584 13.3663 25.616L13.3343 25.648V25.616ZM24.3103 30.544H24.2783C24.3103 30.48 24.3103 30.448 24.3423 30.416C25.2703 29.584 26.0703 28.688 26.8703 27.76L27.1583 27.472C27.1903 27.376 27.2543 27.28 27.3823 27.248H27.3503C27.4143 27.088 27.5423 26.96 27.6703 26.864C27.6383 26.992 27.6063 27.056 27.5423 27.152C27.4783 27.184 27.4143 27.216 27.3823 27.248C27.3503 27.312 27.3503 27.344 27.3183 27.408H27.3503C27.3823 27.408 27.3823 27.408 27.4143 27.408L27.3183 27.568C27.2223 27.664 27.1583 27.728 27.0943 27.824C27.0623 27.92 26.9983 28.016 26.9023 28.048C26.8703 28.176 26.8063 28.24 26.7103 28.304C26.5823 28.528 26.3903 28.72 26.1983 28.88C26.1023 29.008 26.0063 29.168 25.8463 29.2H25.7823C25.7823 29.328 25.6863 29.424 25.5903 29.52C25.5903 29.488 25.5903 29.424 25.5903 29.392L25.4303 29.584C25.3983 29.648 25.3343 29.712 25.2703 29.776C25.2383 29.808 25.2063 29.872 25.1743 29.936C25.2063 29.872 25.2063 29.84 25.2063 29.776C25.1103 29.872 25.0143 29.968 24.9183 30.096C24.6943 30.256 24.5023 30.416 24.3103 30.544ZM13.7503 27.312V27.28H13.7183L13.7503 27.312ZM27.1263 27.664L27.3183 27.568C27.3183 27.504 27.3183 27.472 27.3503 27.408L27.1583 27.504C27.1583 27.536 27.1263 27.6 27.1263 27.664ZM26.9983 27.824H27.0943C27.1263 27.76 27.1263 27.696 27.1263 27.664C27.0943 27.696 27.0623 27.76 26.9983 27.824ZM26.8063 28.048H26.9023C26.9023 28.016 26.9023 27.952 26.9343 27.888C26.9023 27.952 26.8383 28.016 26.8063 28.048ZM11.2863 29.936C11.2863 29.968 11.2863 29.968 11.2543 30C11.2543 29.968 11.2863 29.968 11.2863 29.936ZM11.0303 30.512C10.9983 30.64 10.9983 30.768 10.8703 30.928C10.8703 30.736 10.9663 30.608 11.0303 30.512ZM10.0703 32.592C10.1023 32.56 10.1023 32.56 10.1023 32.56V32.592C10.0703 32.624 10.0703 32.656 10.0703 32.656V32.592ZM8.6623 37.84C8.4703 38.32 8.2463 38.8 8.0543 39.248C7.7343 40.048 7.3823 40.848 7.0623 41.616L5.9103 44.464C5.3983 45.712 4.9183 46.992 4.4063 48.24C3.8943 49.552 3.3503 50.864 2.8063 52.208C2.5503 52.912 2.2623 53.616 1.9743 54.352C1.9423 54.416 1.9103 54.544 1.7503 54.576C1.7823 54.48 1.8143 54.416 1.8463 54.352L3.5743 50.096C3.9583 49.136 4.3103 48.208 4.6623 47.28L6.3903 43.024C6.7103 42.224 7.0303 41.392 7.3823 40.56C7.7343 39.696 8.1183 38.8 8.5023 37.904C8.5343 37.808 8.5983 37.712 8.6623 37.616C8.7263 37.712 8.6943 37.776 8.6623 37.84ZM7.1583 39.408C7.1263 39.408 7.1263 39.44 7.1263 39.44C7.1263 39.472 7.1263 39.472 7.0943 39.472V39.44C7.1263 39.408 7.1263 39.408 7.1583 39.408ZM7.0303 39.568C7.0623 39.568 7.0623 39.568 7.0623 39.536V39.568C7.0623 39.6 7.0303 39.6 7.0303 39.632V39.568ZM5.7183 45.744C5.7503 45.744 5.7503 45.744 5.7503 45.744V45.712C5.7503 45.712 5.7503 45.744 5.7183 45.744ZM31.0583 37.808C30.9303 37.648 30.7703 37.648 30.5783 37.68C30.4183 37.744 30.2903 37.808 30.1303 37.904C29.8743 38.032 29.6183 38.16 29.3943 38.288C28.4663 38.8 27.5703 39.376 26.6743 39.952C25.5223 40.688 24.4023 41.456 23.2503 42.224C22.5143 42.704 21.7783 43.216 21.0103 43.696C20.5943 43.984 20.1463 44.24 19.6663 44.464C19.4743 44.56 19.2503 44.656 19.0263 44.688C18.8983 44.72 18.8023 44.688 18.7703 44.528C18.7383 44.336 18.7383 44.112 18.7703 43.92C18.8023 43.568 18.8663 43.248 18.9623 42.928C19.0263 42.64 19.0583 42.384 19.2183 42.128V42.032C19.2503 41.968 19.2503 41.904 19.2823 41.84C19.5383 41.232 19.8903 40.624 20.2423 40.016C20.3063 39.888 20.4023 39.76 20.4983 39.664C20.6263 39.504 20.7543 39.408 20.9143 39.408C21.5223 39.312 22.0023 38.992 22.5143 38.672C23.0263 38.32 23.4743 37.872 23.8903 37.424C24.4343 36.848 24.4023 36.464 23.9543 36.016C23.6663 35.728 23.3463 35.696 22.9623 35.824C22.7383 35.92 22.4823 36.048 22.2583 36.176C21.8103 36.528 21.3623 36.88 20.9783 37.296C20.8503 37.488 20.6903 37.648 20.4983 37.776C20.2103 37.968 19.9863 38.224 19.8583 38.544C19.8263 38.672 19.7623 38.768 19.6983 38.864C19.2503 39.504 18.8343 40.144 18.5143 40.816C18.1303 41.616 17.8103 42.416 17.6823 43.28C17.5543 44.016 17.7143 44.624 18.1943 45.136C18.5463 45.488 18.9623 45.616 19.4743 45.584C19.8903 45.552 20.2743 45.424 20.6583 45.232C21.3303 44.88 22.0023 44.496 22.6423 44.048C23.0263 43.792 23.4103 43.536 23.7943 43.248H23.8263C24.0823 43.024 24.3383 42.8 24.5943 42.608C25.1383 42.16 25.7143 41.776 26.2583 41.36C26.8663 40.944 27.5383 40.592 28.1143 40.144C28.4343 39.952 28.7863 39.76 29.1063 39.536C29.8103 39.056 30.5463 38.608 31.3463 38.32C31.3783 38.064 31.1863 37.936 31.0583 37.808ZM22.1303 36.688L22.2263 36.592C22.3863 36.4 22.5783 36.304 22.8023 36.208C22.8023 36.208 22.8023 36.24 22.8343 36.272C22.8023 36.304 22.8023 36.336 22.8023 36.368C22.7383 36.432 22.6423 36.464 22.5463 36.528C22.4823 36.592 22.3863 36.656 22.2903 36.688L22.1943 36.752C22.1623 36.784 22.1303 36.816 22.1303 36.848V36.752C22.0983 36.752 22.0663 36.752 22.0343 36.752L22.1303 36.688ZM23.2183 36.592C22.8023 36.88 22.4503 37.168 22.0343 37.456C22.3223 37.04 22.8023 36.688 23.2183 36.592ZM22.1943 36.752C22.1943 36.72 22.2263 36.72 22.2263 36.688C22.2263 36.688 22.2583 36.688 22.2903 36.688L22.2263 36.592C22.2263 36.624 22.2263 36.656 22.1943 36.688H22.1303C22.1303 36.72 22.1303 36.72 22.1303 36.752H22.1943ZM22.0343 36.784C22.0343 36.784 22.0343 36.816 22.0343 36.848H21.9383C21.9703 36.816 22.0023 36.784 22.0343 36.784ZM22.1943 37.584V37.552C22.2263 37.552 22.2583 37.52 22.2583 37.488H22.2903C22.4823 37.2 22.8023 37.008 23.1223 36.88C23.1543 36.848 23.1863 36.848 23.2183 36.88C23.2503 36.912 23.2503 36.976 23.2183 37.008C22.9943 37.232 22.8023 37.456 22.5783 37.648C22.4503 37.776 22.2903 37.872 22.1303 38C21.9703 38.16 21.7783 38.256 21.5543 38.288C21.7143 38 21.9383 37.776 22.1943 37.584ZM22.2263 37.552H22.1943C22.1943 37.552 22.2263 37.584 22.2583 37.584L22.2263 37.552ZM23.1863 37.968C23.1863 37.936 23.2183 37.904 23.2503 37.904C23.2503 37.936 23.2183 37.936 23.1863 37.968ZM22.3863 38.192C22.2903 38.288 22.1623 38.384 22.0023 38.352C22.1623 38.192 22.3543 38.096 22.5143 37.968C22.5143 38.064 22.4823 38.16 22.3863 38.192ZM22.9943 38.128C22.8983 38.288 22.7383 38.416 22.5463 38.448C22.5463 38.48 22.5143 38.512 22.4823 38.512C22.5143 38.512 22.5143 38.48 22.5463 38.448C22.6743 38.288 22.8343 38.192 22.9943 38.096C22.9943 38.096 23.0263 38.064 23.0583 38.064C23.0583 38.096 23.0263 38.096 22.9943 38.128ZM30.1623 38.128C30.1943 38.128 30.2263 38.128 30.2263 38.16L30.1943 38.192H30.1303C30.1303 38.192 30.1623 38.16 30.1623 38.128ZM30.0983 38.224C30.0663 38.256 30.0023 38.288 29.9703 38.288C30.0023 38.224 30.0663 38.224 30.0983 38.224ZM29.9383 38.288C29.9063 38.352 29.8423 38.352 29.7783 38.352L29.9383 38.288ZM22.7063 42.992C22.8023 42.896 22.9303 42.8 23.0583 42.736C23.1543 42.64 23.2503 42.576 23.3783 42.512C23.5383 42.384 23.6663 42.256 23.8263 42.192C24.0503 42 24.3063 41.84 24.5303 41.712C24.6263 41.584 24.7543 41.52 24.8823 41.456C24.9783 41.36 25.1063 41.264 25.2343 41.232C25.3303 41.136 25.4583 41.04 25.5863 41.008C25.7783 40.816 25.9703 40.688 26.1943 40.592C26.2903 40.496 26.4183 40.4 26.5463 40.368C26.6423 40.272 26.7063 40.208 26.8023 40.208C26.9943 40.016 27.1863 39.888 27.4103 39.792C27.5063 39.696 27.5703 39.664 27.6983 39.632C27.7623 39.536 27.8583 39.504 27.9543 39.472C28.1783 39.248 28.4343 39.12 28.7223 38.992C28.7863 38.896 28.8823 38.864 29.0103 38.832C29.0423 38.736 29.1383 38.704 29.2343 38.672C29.3303 38.576 29.3943 38.544 29.5223 38.512C29.5863 38.416 29.6823 38.384 29.7463 38.352C29.7463 38.384 29.7463 38.416 29.7783 38.448C29.7143 38.512 29.6503 38.544 29.5863 38.608L29.5223 38.544C29.5223 38.576 29.5223 38.576 29.4903 38.608C29.4583 38.672 29.3943 38.704 29.3303 38.768C29.2343 38.832 29.1383 38.864 29.0743 38.928L28.7863 39.088C28.7223 39.152 28.6263 39.184 28.5303 39.248H28.5623C28.4663 39.28 28.3703 39.344 28.2743 39.408H28.3063C28.2103 39.44 28.1143 39.504 28.0183 39.568C28.0183 39.536 27.9863 39.536 27.9543 39.504V39.568C27.8903 39.632 27.8263 39.664 27.7623 39.728L27.6983 39.664C27.6983 39.696 27.6983 39.696 27.6663 39.728C27.6343 39.792 27.5703 39.824 27.5063 39.888L27.4103 39.984C27.3143 40.016 27.2503 40.08 27.1543 40.112H27.0583C27.0263 40.176 26.9623 40.24 26.8983 40.272C26.8663 40.272 26.8663 40.24 26.8343 40.208C26.8343 40.24 26.8343 40.272 26.8023 40.304H26.8983C26.8663 40.304 26.8343 40.336 26.8023 40.368C26.7383 40.4 26.7063 40.432 26.6423 40.432C26.6103 40.432 26.6103 40.4 26.5783 40.4V40.432C26.5783 40.432 26.6103 40.432 26.6423 40.464C26.6103 40.464 26.5783 40.496 26.5463 40.528C26.4823 40.592 26.3863 40.656 26.2903 40.688L26.1943 40.784C26.0983 40.816 26.0343 40.88 25.9383 40.912L25.8423 41.008C25.7783 41.04 25.7463 41.072 25.6823 41.072C25.6503 41.072 25.6503 41.04 25.6183 41.04V41.072C25.6183 41.072 25.6503 41.072 25.6823 41.104C25.6503 41.104 25.6183 41.136 25.5863 41.168L25.4903 41.264C25.4263 41.264 25.3943 41.296 25.3303 41.328L25.2343 41.424C25.1703 41.488 25.0743 41.552 24.9783 41.584C24.9463 41.584 24.9143 41.616 24.8823 41.648C24.8183 41.744 24.7223 41.808 24.6263 41.808L24.5303 41.904C24.4983 41.904 24.4663 41.936 24.4663 41.968V41.936H24.4343V41.968C24.3703 42.064 24.2743 42.096 24.1783 42.128H24.1463V42.16L24.1143 42.192L24.0823 42.16V42.224C24.0183 42.288 23.9223 42.352 23.8263 42.384C23.7943 42.384 23.7623 42.416 23.7623 42.448C23.7623 42.416 23.7623 42.384 23.7623 42.384L23.6663 42.448C23.6983 42.448 23.6983 42.448 23.7303 42.448L23.6343 42.544C23.6023 42.544 23.5383 42.576 23.4743 42.608C23.4423 42.64 23.4423 42.672 23.4103 42.672V42.608C23.3783 42.64 23.3463 42.672 23.3143 42.672C23.3143 42.704 23.3143 42.704 23.3143 42.704H23.3783C23.3783 42.704 23.3463 42.736 23.3143 42.768V42.704C23.2823 42.736 23.2503 42.736 23.2183 42.768L23.0903 42.8C23.0903 42.832 23.0583 42.832 23.0583 42.864C23.0263 42.864 22.9943 42.896 22.9623 42.928H23.0583C23.0263 42.96 22.9943 42.992 22.9623 42.992V42.928C22.9303 42.96 22.8983 42.992 22.8663 43.024H22.7383C22.7063 43.088 22.6423 43.12 22.6103 43.184C22.5463 43.184 22.4503 43.216 22.3863 43.248C22.4503 43.12 22.5783 43.056 22.7063 42.992ZM30.5783 38.448C30.6103 38.384 30.6743 38.384 30.7063 38.384C30.6743 38.384 30.6103 38.416 30.5783 38.448ZM30.3223 38.608L30.1303 38.704C30.0983 38.768 30.0343 38.8 29.9383 38.864C29.3943 39.216 28.8183 39.568 28.2743 39.888C28.2103 39.952 28.1463 39.952 28.0823 39.984C27.8903 40.176 27.6983 40.304 27.4743 40.4C26.7703 40.912 26.0983 41.392 25.3623 41.84C25.0103 42.096 24.6903 42.384 24.3383 42.64C23.8583 42.96 23.4103 43.312 22.9303 43.632C22.7703 43.728 22.6423 43.856 22.4503 43.888C22.3863 43.984 22.2903 44.048 22.1943 44.048C22.1303 44.144 22.0343 44.176 21.9383 44.208C22.0023 44.144 22.0983 44.08 22.1943 44.048C22.2583 43.952 22.3223 43.888 22.4503 43.888C22.5143 43.76 22.6743 43.664 22.8023 43.568C23.5383 43.056 24.2743 42.512 25.0103 41.968L25.3303 41.776C25.8423 41.36 26.4183 40.976 26.9943 40.592C27.1223 40.496 27.2823 40.432 27.4103 40.336C27.6023 40.176 27.8263 40.048 28.0503 39.952C28.6263 39.504 29.2663 39.152 29.9063 38.768C29.9703 38.704 30.0663 38.704 30.1303 38.672C30.1943 38.608 30.2583 38.608 30.3223 38.608C30.3863 38.512 30.4503 38.448 30.5463 38.448C30.5143 38.544 30.4183 38.576 30.3223 38.608ZM22.2263 38.672C22.2903 38.608 22.3543 38.544 22.4503 38.544C22.4183 38.64 22.3223 38.672 22.2263 38.672ZM27.4103 39.888C27.4423 39.888 27.4743 39.888 27.5063 39.888L27.4423 39.824C27.4423 39.856 27.4423 39.856 27.4103 39.888ZM26.1943 40.688C26.2263 40.688 26.2583 40.688 26.2903 40.688L26.2263 40.624C26.2263 40.656 26.2263 40.656 26.1943 40.688ZM25.4903 41.168H25.5863C25.5863 41.136 25.5863 41.136 25.5863 41.104L25.4903 41.168ZM25.2343 41.328C25.2663 41.328 25.2983 41.328 25.3303 41.328L25.2663 41.264C25.2663 41.296 25.2663 41.328 25.2343 41.328ZM24.9143 41.52V41.552C24.9143 41.552 24.9463 41.552 24.9783 41.584C24.9463 41.552 24.9463 41.52 24.9143 41.52ZM24.8823 41.584V41.648C24.9143 41.616 24.9143 41.616 24.8823 41.584ZM24.6263 41.808C24.5943 41.808 24.5943 41.776 24.5623 41.776C24.5943 41.808 24.5943 41.808 24.6263 41.808ZM24.4663 41.872C24.4983 41.872 24.4983 41.872 24.5303 41.904V41.84C24.4983 41.84 24.4983 41.872 24.4663 41.872ZM23.7623 42.384C23.7943 42.384 23.7943 42.384 23.8263 42.384V42.288C23.8263 42.32 23.7943 42.352 23.7623 42.384ZM23.4103 42.608H23.4743C23.4743 42.608 23.4423 42.576 23.4423 42.544C23.4423 42.576 23.4103 42.608 23.4103 42.608ZM22.3543 43.248C22.3223 43.344 22.2263 43.408 22.1303 43.408C22.1943 43.312 22.2583 43.28 22.3543 43.248ZM22.0023 43.504C21.9383 43.6 21.8743 43.632 21.7783 43.632C21.8423 43.568 21.9063 43.504 22.0023 43.504ZM21.6823 43.728C21.6823 43.696 21.7143 43.664 21.7463 43.664C21.7143 43.696 21.6823 43.696 21.6823 43.728ZM46.2885 18.16C46.1605 17.904 45.9366 17.744 45.7766 17.552C45.6166 17.424 45.4565 17.424 45.3286 17.584C45.2006 17.712 45.0725 17.84 44.9765 18L43.0565 20.848C42.6085 21.52 42.1925 22.192 41.8085 22.896L40.4325 25.2C39.9845 26.064 39.5045 26.928 39.0245 27.76C38.8965 27.984 38.7685 28.176 38.6725 28.4C38.5445 28.624 38.4165 28.848 38.3205 29.04L37.6165 30.288C37.1685 31.12 36.7525 31.952 36.2725 32.752C35.6965 33.776 35.0885 34.8 34.4805 35.824C34.2565 36.208 34.0005 36.592 33.7765 37.008C33.6165 37.2 33.5845 37.2 33.3285 37.136C33.1045 37.072 32.8805 37.008 32.6565 37.008C31.8885 36.944 31.2165 37.2 30.6085 37.648C30.0325 38.064 29.5845 38.608 29.2005 39.184C29.0405 39.44 28.9445 39.696 28.8165 39.952C28.7205 40.208 28.6565 40.496 28.6565 40.784C28.6565 40.944 28.6565 41.104 28.7525 41.232C28.9445 41.648 29.2645 41.936 29.7125 42.096C29.9045 42.192 30.1285 42.192 30.3205 42.128C30.6405 42.064 30.8965 41.968 31.1525 41.808C32.2725 41.168 33.1685 40.272 33.9365 39.248V39.216C33.9365 39.216 33.9685 39.184 34.0005 39.152H33.9365C33.9365 39.12 33.9685 39.088 34.0005 39.056C34.0325 39.056 34.0325 39.024 34.0645 38.992C34.1285 38.896 34.1605 38.832 34.1925 38.736C34.2245 38.736 34.2565 38.704 34.2885 38.672C34.2885 38.704 34.2885 38.704 34.2885 38.736L34.3525 38.672C34.4485 38.64 34.5445 38.672 34.5445 38.768C34.5765 38.928 34.5765 39.056 34.5765 39.216C34.6085 39.344 34.6085 39.44 34.7685 39.504C34.8325 39.504 34.8325 39.568 34.8325 39.632C34.8005 39.728 34.8005 39.824 34.7685 39.888C34.6725 40.304 34.5445 40.688 34.4485 41.072C34.1605 42.16 33.8085 43.248 33.6485 44.4C33.6165 44.688 33.5845 44.976 33.6165 45.264C33.6485 45.584 33.7765 45.84 34.0325 46C34.0965 46.032 34.1285 46.064 34.1925 46.128C34.5125 46.352 34.8645 46.384 35.1845 46.192C35.3445 46.096 35.5045 46 35.6325 45.872C36.2405 45.296 36.7845 44.688 37.2965 44.048C37.6485 43.664 37.9685 43.216 38.3205 42.8L40.0165 40.816C40.0805 40.752 40.1765 40.656 40.2085 40.528C40.0485 40.624 39.9525 40.752 39.8565 40.88C39.7605 40.976 39.6645 41.104 39.5365 41.168C39.5045 41.168 39.5045 41.2 39.4725 41.232L39.4085 41.296C39.4085 41.264 39.4405 41.232 39.4725 41.232C39.4725 41.2 39.5045 41.168 39.5365 41.168C39.5365 41.072 39.6005 41.008 39.6325 40.944C40.1445 40.432 40.6245 39.888 41.1045 39.344C41.1685 39.312 41.2325 39.28 41.2965 39.216C41.3285 39.216 41.3605 39.184 41.3605 39.152C41.3925 39.12 41.4245 39.088 41.4565 39.088C41.4565 39.056 41.4885 39.024 41.5205 38.992C41.5525 38.96 41.5525 38.928 41.5845 38.928C41.5845 38.928 41.5845 38.96 41.6165 38.992C41.7125 38.96 41.8085 38.864 41.8725 38.8C42.0645 38.576 42.2565 38.384 42.4485 38.192C42.6085 38.032 42.6085 37.936 42.4165 37.808C42.1605 37.616 42.0965 37.616 41.9045 37.808L41.8085 37.904C41.2325 38.416 40.7205 39.024 40.1445 39.568C39.6005 40.144 39.0245 40.752 38.4805 41.36L36.9765 42.992C36.4005 43.632 35.8565 44.24 35.3125 44.88C35.2165 44.976 35.1205 45.072 35.0245 45.136C34.9285 45.2 34.9285 45.2 34.7365 45.072H34.7685C34.7365 44.848 34.7685 44.624 34.8645 44.432C34.8965 43.92 35.0245 43.44 35.2165 42.992C35.2165 42.8 35.2485 42.64 35.3125 42.448C35.4405 41.968 35.6005 41.456 35.7605 40.976C35.7925 40.88 35.7925 40.752 35.8885 40.656C35.9205 40.624 35.9525 40.56 35.9525 40.496V40.528C35.9525 40.368 36.0165 40.24 36.0805 40.112C36.0805 40.016 36.1125 39.92 36.1445 39.856C36.1445 39.696 36.2085 39.568 36.2725 39.44C36.3045 39.248 36.3685 39.056 36.4645 38.896C36.4645 38.832 36.4965 38.8 36.5285 38.736C36.5285 38.544 36.6245 38.352 36.7205 38.16C36.7205 37.904 36.8485 37.68 36.9765 37.456C37.0085 37.392 37.0085 37.296 37.0405 37.232L37.1045 37.072C37.2645 36.4 37.5525 35.76 37.8085 35.152C37.8405 35.024 37.9045 34.928 37.9365 34.832C37.9685 34.768 38.0005 34.704 38.0005 34.672C38.0645 34.448 38.1285 34.224 38.2565 34.032C38.4165 33.584 38.5765 33.168 38.8005 32.752C38.8325 32.656 38.8645 32.56 38.9285 32.496C38.9605 32.432 38.9605 32.368 38.9925 32.336C39.0885 31.952 39.2805 31.6 39.4725 31.28C39.4725 31.248 39.5045 31.184 39.5365 31.12V31.152C39.5685 31.088 39.6005 31.024 39.6005 30.96V30.992C39.6325 30.832 39.6965 30.672 39.8245 30.576C39.8245 30.512 39.8565 30.48 39.8565 30.448C39.9845 30.192 40.0165 29.904 40.2085 29.68C40.2725 29.488 40.3365 29.296 40.4965 29.136C40.4965 29.072 40.4965 29.008 40.5605 28.976C40.5925 28.816 40.6565 28.688 40.7525 28.56C40.7845 28.464 40.8165 28.4 40.9125 28.336C40.9125 28.272 40.9445 28.24 40.9765 28.176C40.9765 28.112 41.0085 28.08 41.0405 28.016H41.0085C41.1685 27.6 41.3605 27.152 41.6485 26.8C41.7445 26.448 41.9365 26.16 42.0965 25.84C42.2245 25.616 42.2885 25.392 42.4805 25.2C42.5125 25.168 42.5765 25.104 42.6085 25.04H42.6405C42.6085 25.04 42.6085 25.008 42.6085 24.976C42.6085 24.912 42.6405 24.848 42.6725 24.816L42.7685 24.72C42.8005 24.528 42.8645 24.304 43.0245 24.176C43.0565 24.016 43.1205 23.888 43.2165 23.76C43.2165 23.728 43.2165 23.696 43.2485 23.696C43.4405 23.312 43.6325 22.896 43.9205 22.544C43.9846 22.48 44.0166 22.416 44.0485 22.32H44.0805C44.0805 22.288 44.0485 22.288 44.0485 22.256C44.2085 22 44.4005 21.776 44.4965 21.488C44.5285 21.328 44.6245 21.232 44.7526 21.136V21.04C44.7845 20.944 44.8165 20.848 44.8806 20.816C45.0406 20.624 45.1686 20.464 45.2325 20.24C45.2325 20.176 45.2965 20.144 45.3286 20.08H45.2965C45.3925 19.952 45.4565 19.824 45.5205 19.696C45.6486 19.472 45.7766 19.28 45.9366 19.12C45.9366 19.088 45.9366 19.056 45.9366 19.056H46.0325V19.024C46.1285 18.864 46.2246 18.704 46.2885 18.512C46.3846 18.416 46.3526 18.288 46.2885 18.16ZM42.7685 24.816V24.72C42.7365 24.752 42.7365 24.752 42.7365 24.784C42.7365 24.784 42.7685 24.784 42.7685 24.816ZM42.6725 24.816H42.7685C42.7365 24.784 42.7045 24.784 42.6725 24.816ZM40.5605 28.432C40.5605 28.432 40.5285 28.432 40.5285 28.464C40.5285 28.432 40.5605 28.4 40.5605 28.4V28.432ZM40.3045 29.008C40.2725 29.008 40.2725 29.008 40.2405 29.04C40.2405 29.008 40.2725 29.008 40.2725 28.976C40.2725 28.944 40.3045 28.944 40.3045 28.976V29.008ZM39.9845 29.616C39.9845 29.552 40.0165 29.52 40.0485 29.456C40.0485 29.52 40.0165 29.584 39.9845 29.616ZM39.6325 30.32C39.6645 30.224 39.6965 30.16 39.7925 30.128C39.7605 30.192 39.7285 30.288 39.6325 30.32ZM39.5685 30.512C39.5365 30.64 39.4725 30.8 39.3765 30.864C39.4085 30.736 39.4725 30.608 39.5685 30.512C39.5685 30.448 39.6005 30.384 39.6325 30.352C39.6325 30.416 39.6005 30.448 39.5685 30.512ZM38.9605 31.76C38.9605 31.728 38.9605 31.728 38.9925 31.696V31.664C39.0245 31.696 39.0245 31.696 39.0245 31.728C38.9925 31.728 38.9925 31.76 38.9605 31.76ZM38.8965 31.888L38.9605 31.792C38.9605 31.824 38.9285 31.856 38.8965 31.888ZM38.8325 32.08C38.8645 32.016 38.8645 31.984 38.8965 31.952C38.8645 31.984 38.8645 32.048 38.8325 32.08ZM38.6405 32.56C38.6085 32.4 38.6725 32.336 38.7685 32.272C38.7685 32.368 38.7365 32.464 38.6405 32.56ZM38.1605 33.584C38.1925 33.52 38.2245 33.424 38.2885 33.328C38.3205 33.488 38.2565 33.552 38.1605 33.584ZM38.0325 33.936C38.0325 33.872 38.0645 33.84 38.0965 33.808C38.0965 33.84 38.0645 33.904 38.0325 33.936ZM37.8085 34.512C37.8085 34.544 37.7765 34.544 37.7765 34.544V34.512C37.8085 34.48 37.8085 34.448 37.8405 34.48C37.8405 34.512 37.8085 34.512 37.8085 34.512ZM38.0965 34.672C38.0645 34.672 38.0645 34.672 38.0325 34.672H38.0005C38.0325 34.704 38.0325 34.768 38.0325 34.8C38.0645 34.768 38.0645 34.704 38.0965 34.672ZM35.9525 35.6C35.9525 35.536 35.9845 35.44 36.0805 35.408C36.0485 35.472 36.0165 35.568 35.9525 35.6ZM37.2645 35.92C37.2645 35.888 37.2965 35.856 37.2965 35.792C37.2965 35.856 37.2965 35.888 37.2645 35.92ZM34.6085 37.808C34.6085 37.808 34.5765 37.84 34.5445 37.808V37.744C34.6405 37.584 34.7045 37.424 34.8645 37.296C34.8965 37.232 34.8965 37.168 34.9285 37.136C35.1845 36.72 35.4085 36.304 35.6965 35.952C35.6965 36.048 35.6965 36.112 35.6645 36.176C35.4085 36.56 35.2165 36.976 34.8965 37.328C34.8645 37.52 34.7685 37.68 34.6085 37.808ZM37.0725 36.464C37.0405 36.304 37.1045 36.208 37.1685 36.112C37.1685 36.24 37.1685 36.336 37.0725 36.464ZM35.6965 36.656C35.7285 36.72 35.7605 36.752 35.7605 36.816C35.7605 36.848 35.7605 36.912 35.7285 36.944C35.5045 37.616 35.3125 38.256 35.0885 38.896C35.0565 38.96 35.0245 38.992 35.0245 39.024C34.9285 38.992 34.9285 38.928 34.9285 38.896C34.8965 38.736 34.8965 38.608 34.8325 38.448C34.6725 38.128 34.7045 37.872 34.9605 37.648C35.0885 37.392 35.1845 37.136 35.4085 36.976C35.5045 36.688 35.6645 36.4 35.8885 36.208L35.6965 36.656ZM36.7205 37.36C36.7525 37.232 36.7525 37.104 36.8485 37.008C36.8485 37.136 36.7845 37.264 36.7205 37.36ZM37.1365 37.232C37.1045 37.168 37.1045 37.104 37.1045 37.072C37.1045 37.136 37.1045 37.168 37.1045 37.232H37.1365ZM30.5445 40.848C30.3525 41.008 30.1285 41.136 29.8725 41.232C29.7445 41.296 29.6485 41.232 29.6485 41.072C29.6805 40.688 29.7445 40.304 29.9045 39.984C30.0965 39.632 30.2885 39.28 30.5765 38.992C30.6725 38.896 30.7685 38.8 30.7685 38.672C30.6085 38.736 30.5445 38.864 30.4165 38.96C30.3525 39.056 30.2885 39.184 30.1605 39.248C30.1285 39.376 30.0645 39.472 29.9685 39.536C29.9685 39.408 30.0325 39.28 30.1605 39.216C30.3525 38.768 30.6725 38.448 31.0885 38.192C31.1525 38.096 31.2165 38.032 31.3445 38.032C31.3125 38.128 31.2165 38.16 31.1205 38.224C31.0565 38.352 30.8965 38.416 30.8325 38.608C30.9925 38.576 31.0885 38.48 31.1845 38.384C31.4725 38.16 31.7605 37.968 32.0805 37.808C32.3685 37.68 32.6565 37.584 33.0085 37.584H33.1685C33.2325 37.616 33.2645 37.68 33.2325 37.744C33.1685 37.872 33.1045 38.032 33.0085 38.128C32.7845 38.416 32.5605 38.704 32.3685 38.992C31.8245 39.696 31.2165 40.304 30.5445 40.848ZM36.6565 37.712H36.6245C36.5925 37.712 36.5925 37.712 36.5925 37.68C36.6245 37.648 36.6245 37.616 36.6565 37.584V37.712ZM34.9605 37.648H35.0565C35.0245 37.616 34.9925 37.616 34.9605 37.648ZM30.8965 37.808C30.8965 37.872 30.8325 37.872 30.7685 37.872C30.8005 37.808 30.8645 37.808 30.8965 37.808ZM33.8085 37.872C33.7765 37.904 33.7445 37.936 33.7445 37.936H33.6485C33.6805 37.808 33.7125 37.808 33.8085 37.872ZM30.6725 37.936C30.7045 37.904 30.7365 37.904 30.7365 37.872C30.7365 37.904 30.7365 37.936 30.7045 37.968C30.6405 38.192 30.4485 38.352 30.2565 38.512C30.2245 38.544 30.2245 38.544 30.1925 38.576V38.512C30.1925 38.512 30.2245 38.512 30.2565 38.512L30.1605 38.416C30.2885 38.192 30.4485 38.032 30.6725 37.936ZM42.0005 37.936C41.8725 38.192 41.8725 38.192 41.6485 38.32C41.7445 38.192 41.8405 38.064 42.0005 37.936ZM32.2405 40.016C32.2405 40.016 32.2405 39.984 32.2405 39.952L32.1445 40.048C32.0485 40.08 31.9845 40.176 31.8565 40.176C32.0485 39.888 32.3045 39.632 32.5605 39.376C32.6885 39.152 32.8165 38.96 32.9765 38.8L33.0725 38.736C33.1045 38.608 33.1685 38.512 33.2965 38.416C33.2965 38.384 33.3285 38.352 33.3605 38.352C33.3925 38.224 33.4565 38.128 33.5845 38.032C33.5845 38.096 33.5845 38.128 33.5845 38.192H33.6805C33.6485 38.224 33.6485 38.256 33.6165 38.256C33.6165 38.224 33.6165 38.224 33.5845 38.192C33.5845 38.224 33.5525 38.256 33.5205 38.288H33.5845C33.5845 38.352 33.5205 38.448 33.4565 38.512C33.4565 38.448 33.4565 38.384 33.4565 38.352H33.3605C33.3605 38.384 33.3285 38.416 33.3285 38.448C33.3285 38.48 33.3285 38.544 33.2965 38.576C33.2965 38.608 33.2645 38.64 33.2325 38.672H33.2965C33.2965 38.704 33.2645 38.704 33.2325 38.736V38.672C33.2005 38.704 33.2005 38.736 33.1685 38.736C33.1365 38.768 33.1365 38.768 33.1045 38.768V38.832C33.1045 38.8 33.1365 38.768 33.1685 38.768H33.2325C33.2325 38.864 33.2005 38.928 33.1045 38.992C33.0725 39.024 33.0725 39.056 33.0405 39.056V38.992C33.0405 38.992 33.0725 38.992 33.1045 38.992V38.832C33.0725 38.832 33.0725 38.864 33.0405 38.864C33.0405 38.896 33.0405 38.96 33.0085 38.992C33.0085 39.024 32.9765 39.056 32.9445 39.088H33.0405C33.0085 39.12 33.0085 39.152 32.9765 39.152C32.9445 39.12 32.9445 39.088 32.9445 39.088C32.9125 39.088 32.9125 39.12 32.8805 39.152H32.9445C32.9445 39.184 32.9125 39.216 32.8805 39.216V39.152C32.8485 39.184 32.8485 39.216 32.8165 39.216H32.8485C32.8485 39.216 32.8805 39.216 32.8805 39.248C32.8485 39.408 32.7205 39.536 32.5925 39.632C32.5925 39.664 32.5605 39.664 32.5285 39.696C32.5285 39.664 32.5285 39.664 32.5285 39.632L32.4645 39.696C32.4325 39.728 32.4005 39.76 32.3685 39.792H32.4325C32.4325 39.824 32.4005 39.856 32.3685 39.856C32.3685 39.856 32.3685 39.824 32.3685 39.792L32.3045 39.888C32.3365 39.888 32.3365 39.888 32.3685 39.888L32.3045 39.952C32.2725 39.984 32.2725 40.016 32.2405 40.016ZM34.2565 38.352C34.2565 38.384 34.2565 38.384 34.2245 38.416C33.8085 39.024 33.3925 39.6 32.8805 40.112C32.8165 40.208 32.7205 40.304 32.5925 40.368C32.5925 40.4 32.5605 40.432 32.5285 40.464C32.4965 40.528 32.4325 40.56 32.3685 40.592C32.3685 40.496 32.4325 40.464 32.4965 40.4C32.5285 40.4 32.5285 40.368 32.5605 40.336C32.6245 40.272 32.6565 40.176 32.7205 40.112C33.2005 39.568 33.6485 38.992 34.0645 38.416C34.0965 38.352 34.1285 38.32 34.1925 38.256H34.2565C34.2885 38.288 34.2885 38.32 34.2565 38.352ZM36.3365 38.48C36.3685 38.416 36.3685 38.352 36.4005 38.288C36.4005 38.352 36.4005 38.416 36.3365 38.48ZM30.0965 38.512L30.1605 38.448C30.1605 38.448 30.1605 38.48 30.1605 38.512H30.0965C30.0965 38.544 30.0965 38.576 30.0965 38.576H30.0325C30.0645 38.576 30.0645 38.544 30.0965 38.512ZM30.0325 38.608C30.0325 38.608 30.0325 38.64 30.0325 38.672H30.0965C30.0965 38.704 30.0645 38.736 30.0325 38.736C30.0325 38.704 30.0325 38.704 30.0325 38.672H29.9685C29.9685 38.64 30.0005 38.608 30.0325 38.608ZM30.1925 38.608C30.1605 38.608 30.1285 38.64 30.1285 38.672C30.1285 38.64 30.0965 38.608 30.0965 38.608H30.1925ZM33.3925 38.608C33.3605 38.608 33.3285 38.64 33.3285 38.672C33.3285 38.64 33.3285 38.608 33.3285 38.608H33.3925ZM29.9365 38.672C29.9365 38.704 29.9685 38.736 29.9685 38.736H29.8725C29.9045 38.736 29.9365 38.704 29.9365 38.672ZM34.1925 38.736V38.768H34.2885V38.736H34.2565H34.1925ZM29.8725 38.768C29.8725 38.768 29.8725 38.8 29.8725 38.832H29.8085C29.8405 38.8 29.8405 38.768 29.8725 38.768ZM30.0325 38.768C30.0005 38.768 30.0005 38.8 29.9685 38.832C29.9685 38.8 29.9685 38.768 29.9685 38.768H30.0325ZM41.0085 38.992C40.9125 39.152 40.7845 39.312 40.6885 39.44C40.5605 39.568 40.4645 39.664 40.3045 39.696C40.5285 39.44 40.7205 39.184 41.0085 38.992ZM41.5845 38.992C41.5525 38.992 41.5525 38.992 41.5205 38.992V39.056C41.5525 39.056 41.5845 39.024 41.5845 38.992ZM34.0005 39.088V39.152C34.0325 39.12 34.0645 39.088 34.0645 39.088H34.0005ZM41.5205 39.088C41.4885 39.088 41.4565 39.088 41.4565 39.088V39.152C41.4885 39.12 41.4885 39.088 41.5205 39.088ZM41.3925 39.216C41.3925 39.216 41.4245 39.184 41.4565 39.152H41.3605C41.3925 39.184 41.3925 39.216 41.3925 39.216ZM41.3605 39.248H41.3925V39.216C41.3925 39.216 41.3925 39.216 41.3605 39.216V39.248ZM35.9525 39.6C35.9845 39.472 35.9845 39.344 36.0805 39.248C36.0805 39.376 36.0485 39.504 35.9525 39.6ZM41.0085 39.632C41.2005 39.536 41.2965 39.408 41.3605 39.248C41.3605 39.248 41.3285 39.248 41.2965 39.248L41.0085 39.632ZM29.9365 39.568C29.9365 39.664 29.9045 39.728 29.8085 39.76C29.8405 39.696 29.8725 39.6 29.9365 39.568ZM40.9125 39.728H40.9445C40.9765 39.696 40.9765 39.664 41.0085 39.632L40.9445 39.696C40.9445 39.728 40.9445 39.728 40.9125 39.728ZM32.5285 39.728C32.4965 39.728 32.4645 39.76 32.4645 39.792C32.4645 39.76 32.4645 39.728 32.4645 39.728H32.5285ZM40.3045 40.432C40.5925 40.272 40.7845 40.016 40.9125 39.728C40.6885 39.92 40.4645 40.144 40.3045 40.432ZM32.2405 39.952C32.2405 39.952 32.2725 39.952 32.3045 39.952V39.888C32.2725 39.888 32.2405 39.92 32.2405 39.952ZM39.8565 40.208C39.7285 40.528 39.5045 40.752 39.2165 40.912C39.3765 40.624 39.6005 40.4 39.8565 40.208ZM40.2085 40.496V40.528C40.2405 40.496 40.2725 40.464 40.2725 40.432C40.2405 40.464 40.2405 40.496 40.2085 40.496ZM32.0805 40.816C32.1445 40.752 32.2085 40.72 32.2725 40.688C32.2085 40.752 32.1765 40.816 32.0805 40.816ZM39.0565 41.072C38.9605 41.328 38.8005 41.52 38.5445 41.616C38.6725 41.392 38.8325 41.232 39.0565 41.072ZM35.4725 41.232V41.2C35.5045 41.2 35.5045 41.2 35.4725 41.232ZM38.1285 42.736C38.3845 42.384 38.6405 42.064 38.9605 41.776C38.9605 41.744 38.9925 41.744 39.0245 41.712L39.0885 41.616C39.1205 41.584 39.1525 41.584 39.1525 41.552L39.2485 41.456C39.2485 41.424 39.2805 41.392 39.3125 41.392C39.3445 41.36 39.3445 41.328 39.3765 41.328C39.3765 41.36 39.3445 41.36 39.3125 41.392C39.3125 41.424 39.2805 41.456 39.2485 41.488C39.2485 41.52 39.2165 41.552 39.1845 41.552C39.1845 41.584 39.1525 41.616 39.1205 41.648L39.0565 41.744C39.0245 41.776 38.9925 41.776 38.9925 41.808C38.7365 42.192 38.4485 42.544 38.0965 42.832C38.0965 42.8 38.0965 42.768 38.1285 42.736ZM38.4485 41.744C38.4485 41.744 38.4485 41.776 38.4165 41.776L38.4485 41.744ZM37.2005 43.12C37.4565 42.8 37.7125 42.48 38.0325 42.224C38.0005 42.256 38.0005 42.32 37.9685 42.384C37.6805 42.704 37.4245 43.056 37.1045 43.312C37.1365 43.248 37.1365 43.184 37.2005 43.12ZM35.0245 42.64C35.0565 42.512 35.0565 42.384 35.1525 42.288C35.1845 42.448 35.1205 42.544 35.0245 42.64ZM38.0325 42.896C38.0325 42.864 38.0645 42.864 38.0645 42.832C38.0645 42.864 38.0325 42.896 38.0325 42.896ZM37.9365 42.992C37.9365 43.056 37.9045 43.056 37.8725 43.088C37.7125 43.408 37.4885 43.632 37.2325 43.856C37.3605 43.6 37.6165 43.28 37.8725 43.088L37.9365 42.992C37.9685 42.96 37.9685 42.928 38.0005 42.928C38.0005 42.96 37.9685 42.992 37.9365 42.992ZM45.49 33.872C45.65 33.712 45.778 33.52 45.906 33.328C46.066 32.976 46.29 32.656 46.514 32.336C46.706 32.048 46.962 31.792 47.25 31.632C47.282 31.6 47.282 31.568 47.378 31.472C47.218 31.504 47.154 31.536 47.026 31.568C46.93 31.664 46.834 31.76 46.77 31.856C46.674 31.92 46.642 31.952 46.578 32.08C46.578 31.92 46.674 31.888 46.738 31.856C46.802 31.696 46.898 31.632 47.026 31.568C47.122 31.472 47.186 31.376 47.282 31.248C47.186 31.184 47.09 31.12 46.994 31.024C46.866 30.928 46.738 30.928 46.61 31.024C46.482 31.12 46.354 31.216 46.258 31.344C45.842 31.824 45.426 32.336 45.106 32.88C45.042 33.008 44.978 33.136 44.946 33.296C44.882 33.488 45.01 33.616 45.106 33.776C45.202 33.904 45.33 33.904 45.49 33.872ZM46.642 31.28C46.674 31.216 46.706 31.216 46.77 31.248H46.802C46.802 31.344 46.706 31.408 46.642 31.376H46.61C46.61 31.344 46.61 31.312 46.642 31.28ZM49.65 37.52C49.458 37.424 49.33 37.456 49.17 37.584L47.826 38.544C47.09 39.12 46.322 39.664 45.586 40.208C45.106 40.592 44.594 40.912 44.082 41.296C43.41 41.776 42.706 42.288 42.034 42.8C41.746 42.992 41.49 43.216 41.202 43.408L40.594 43.792C40.562 43.824 40.498 43.856 40.434 43.888C40.37 43.888 40.274 43.856 40.274 43.792C40.274 43.664 40.274 43.536 40.306 43.408C40.466 42.992 40.562 42.544 40.85 42.16C40.914 42.128 40.914 42.096 40.914 42.064C40.946 41.808 41.074 41.616 41.234 41.392C41.266 41.232 41.362 41.04 41.49 40.912C41.49 40.72 41.618 40.56 41.714 40.432C41.778 40.208 41.874 39.984 42.066 39.824H42.13C42.098 39.824 42.098 39.824 42.066 39.792C42.066 39.76 42.098 39.728 42.13 39.664C42.194 39.568 42.226 39.472 42.258 39.376C42.418 39.12 42.578 38.864 42.674 38.608C42.77 38.48 42.834 38.384 42.962 38.288C42.962 38.224 42.994 38.192 43.058 38.128H42.994C42.994 38.096 43.026 38.032 43.058 38C43.186 37.744 43.314 37.488 43.474 37.232C43.698 36.848 43.89 36.464 44.018 36.08C44.178 35.696 44.114 35.568 43.762 35.376C43.634 35.408 43.57 35.504 43.506 35.568C42.994 36.208 42.546 36.88 42.098 37.52C41.682 38.192 41.298 38.864 40.914 39.568C40.53 40.208 40.146 40.88 39.858 41.552C39.794 41.776 39.698 41.968 39.57 42.16C39.346 42.608 39.282 43.12 39.218 43.6C39.154 43.984 39.282 44.272 39.57 44.464L39.73 44.56C39.89 44.72 40.082 44.752 40.338 44.72C40.562 44.688 40.722 44.592 40.914 44.496C41.33 44.272 41.714 44.016 42.098 43.728C43.346 42.8 44.562 41.84 45.81 40.912C46.514 40.336 47.282 39.76 48.018 39.184C48.562 38.768 49.106 38.352 49.618 37.936C49.65 37.904 49.682 37.872 49.682 37.84C49.714 37.744 49.746 37.68 49.746 37.584L49.65 37.52ZM41.49 40.368C41.49 40.432 41.458 40.464 41.458 40.528C41.458 40.464 41.49 40.4 41.49 40.368ZM41.106 41.104C41.106 41.136 41.138 41.136 41.138 41.136C41.106 41.168 41.106 41.168 41.074 41.168C41.074 41.136 41.106 41.136 41.106 41.104ZM40.754 41.808C40.818 41.744 40.818 41.712 40.85 41.648C40.882 41.584 40.882 41.52 40.914 41.456V41.488C40.882 41.52 40.882 41.584 40.85 41.648C40.818 41.712 40.818 41.776 40.754 41.84V41.808ZM40.594 42.224C40.594 42.192 40.594 42.192 40.594 42.192V42.224ZM57.7263 39.024C57.7583 38.96 57.7903 38.896 57.8223 38.832L57.5343 38.672C57.3743 38.544 57.1823 38.544 57.0223 38.608L56.7663 38.704C56.4143 38.896 56.0623 39.088 55.7103 39.28L53.0223 40.848C52.9263 40.912 52.8303 40.976 52.7343 41.04L51.2623 41.936C50.8143 42.192 50.3663 42.448 49.9503 42.704C49.3423 43.12 48.7343 43.408 48.1263 43.76C47.9023 43.856 47.6783 43.952 47.4223 44.08C47.3583 44.112 47.2623 44.112 47.1663 44.144C47.0703 44.016 47.0703 43.888 47.0703 43.76C47.0383 43.376 47.0703 42.992 47.1663 42.608C47.1983 42.512 47.1983 42.416 47.1663 42.32C47.2303 42.256 47.2943 42.192 47.2623 42.096C47.1983 41.968 47.2623 41.872 47.3263 41.776L47.4223 41.552C47.4543 41.488 47.4863 41.424 47.4863 41.328V41.36L47.5823 41.136C47.6143 41.072 47.6143 41.008 47.6463 40.944L47.7423 40.784H47.7103C47.7743 40.688 47.8383 40.56 47.8703 40.464C47.9983 40.112 48.1903 39.792 48.4143 39.536C48.4463 39.504 48.4783 39.44 48.5103 39.408L48.5743 39.248C48.6063 39.216 48.6063 39.184 48.6383 39.12C48.9903 38.64 49.3743 38.16 49.8223 37.744C49.8543 37.712 49.9183 37.68 49.9503 37.648L50.4943 37.36C50.5903 37.296 50.6863 37.232 50.7823 37.264C50.8143 37.328 50.8463 37.36 50.8463 37.424C50.8783 37.616 50.9103 37.84 50.9103 38.032C50.8783 38.416 50.8463 38.8 50.8463 39.152C50.8143 39.248 50.8143 39.312 50.8143 39.408C50.8463 39.536 50.9103 39.6 51.0383 39.664C51.1663 39.696 51.2943 39.632 51.3583 39.504L51.5503 39.216C51.6783 38.8 51.7743 38.352 51.7423 37.936C51.7423 37.584 51.6463 37.264 51.4223 37.008C51.2303 36.816 51.0383 36.624 50.8143 36.464C50.4943 36.272 50.1423 36.24 49.7903 36.4L49.3743 36.592C49.0543 36.816 48.7983 37.072 48.5423 37.328C47.9983 37.84 47.6463 38.48 47.1983 39.056C46.9743 39.568 46.6223 40.048 46.3983 40.592C46.1103 41.36 45.8543 42.128 45.7903 42.96C45.7583 43.344 45.7583 43.728 45.9503 44.08C46.1743 44.496 46.5263 44.752 46.9103 44.944C47.0063 45.008 47.1343 45.04 47.2303 45.04C47.4543 45.04 47.6463 45.04 47.8703 45.008C48.2223 44.944 48.5743 44.816 48.8943 44.688C49.7263 44.336 50.4623 43.824 51.2303 43.344C51.7103 43.056 52.1583 42.704 52.6703 42.416C53.4703 41.904 54.3023 41.392 55.1023 40.88L57.3103 39.504C57.4703 39.408 57.5983 39.344 57.7263 39.248C57.7583 39.248 57.7903 39.184 57.8223 39.12C57.8223 39.088 57.7583 39.056 57.7263 39.024ZM48.8303 37.52L49.0223 37.36C49.2783 37.072 49.3103 37.04 49.5663 36.944L49.4703 37.104C49.5023 37.2 49.5023 37.2 49.3743 37.232C49.3423 37.296 49.2783 37.328 49.2463 37.392H49.0543C49.0543 37.456 49.0223 37.52 49.0223 37.584C48.9263 37.648 48.7983 37.68 48.6383 37.776C48.7343 37.68 48.7663 37.584 48.8303 37.52ZM49.5343 37.68C49.6303 37.552 49.7583 37.456 49.9183 37.36C49.9823 37.296 50.0783 37.264 50.1423 37.232C50.1743 37.232 50.1743 37.2 50.2063 37.2C50.2063 37.168 50.2383 37.2 50.2383 37.2C50.2383 37.2 50.2383 37.232 50.2063 37.232H50.1423C50.0783 37.296 50.0463 37.392 49.9503 37.456C49.4063 37.904 48.9583 38.416 48.5423 38.992C48.4783 39.088 48.4143 39.152 48.3183 39.216C48.3503 39.152 48.3503 39.088 48.4143 39.024C48.7343 38.544 49.0863 38.064 49.5343 37.68ZM48.2543 39.312C48.2543 39.28 48.2543 39.28 48.2863 39.28V39.312C48.2863 39.312 48.2543 39.312 48.2543 39.344V39.312ZM48.5743 39.408C48.5423 39.408 48.5103 39.408 48.5103 39.408V39.536C48.5103 39.504 48.5423 39.44 48.5743 39.408ZM48.4143 39.664L48.5103 39.536C48.4783 39.536 48.4463 39.536 48.4143 39.536V39.664ZM47.9983 39.76L47.9023 39.888C47.9343 39.824 47.9663 39.792 47.9983 39.76ZM55.5823 40.304L55.7743 40.176C55.7423 40.24 55.6463 40.272 55.5823 40.304ZM48.0623 40.336V40.304C48.0623 40.304 48.0623 40.336 48.0303 40.336H48.0623ZM47.8063 40.816C47.7743 40.816 47.7423 40.816 47.7423 40.784C47.7423 40.848 47.7423 40.848 47.7423 40.912L47.8063 40.816ZM54.7183 40.848C54.7183 40.848 54.7183 40.848 54.6863 40.848L54.7183 40.816C54.7503 40.816 54.7503 40.816 54.7823 40.784L54.7183 40.848ZM54.2063 41.2C54.1743 41.2 54.1743 41.2 54.1423 41.232C54.1743 41.2 54.1743 41.2 54.1743 41.168C54.2063 41.168 54.2063 41.168 54.2063 41.168V41.2ZM53.5343 41.552C53.6303 41.52 53.6943 41.488 53.7583 41.424C53.7263 41.52 53.6303 41.552 53.5343 41.552ZM52.7023 42.128C52.7663 42.032 52.8303 41.936 52.9903 41.904C52.9263 42.064 52.7983 42.064 52.7023 42.128ZM68.5063 39.056C68.4423 38.864 68.1543 38.672 67.8983 38.704L67.3863 38.896C66.9383 39.12 66.4583 39.376 65.9783 39.6C65.4663 39.856 64.9863 40.112 64.5063 40.368C64.3783 40.464 64.2183 40.56 64.0583 40.592C63.5463 40.912 62.9703 41.2 62.4263 41.488C62.2343 41.616 62.0103 41.712 61.8183 41.808C61.7223 41.808 61.6263 41.872 61.5623 41.808C61.4983 41.776 61.5303 41.68 61.5303 41.616C61.5623 41.552 61.5943 41.488 61.5943 41.392C61.6903 41.008 61.9143 40.688 62.0743 40.304C62.0743 40.208 62.1063 40.144 62.1383 40.08C62.2023 39.92 62.1703 39.76 62.0743 39.6C61.9463 39.344 61.6903 39.152 61.4663 38.992C61.3063 38.864 61.1463 38.832 60.9543 38.928L60.7623 39.056C60.2823 39.344 59.8343 39.664 59.3543 39.984C58.7143 40.464 58.0423 40.944 57.4023 41.392C57.2103 41.488 57.0503 41.584 56.8903 41.616C56.6983 41.712 56.6343 41.648 56.6663 41.424L56.7303 41.2C56.7623 41.008 56.8263 40.816 56.8583 40.592C56.8903 40.432 56.9543 40.272 57.0823 40.112C57.1783 40.016 57.2103 39.888 57.2423 39.728C57.3383 39.536 57.4343 39.344 57.5623 39.152C57.7543 38.8 57.9783 38.448 58.1063 38.064C58.1703 37.904 58.2023 37.776 58.1703 37.584C58.1383 37.456 58.0103 37.36 57.8823 37.36C57.8183 37.328 57.7543 37.392 57.6903 37.456L57.5943 37.584C56.9863 38.256 56.4743 39.056 56.0263 39.856C55.8343 40.144 55.6743 40.496 55.5783 40.848C55.4823 41.296 55.5143 41.648 55.8023 42C55.8983 42.064 55.9623 42.192 56.0583 42.256C56.3143 42.576 56.6983 42.672 57.1143 42.672C57.2743 42.672 57.4343 42.64 57.5943 42.608C58.0103 42.48 58.3943 42.256 58.7463 42.032C59.1623 41.808 59.5463 41.488 59.9303 41.2C59.9943 41.136 60.0903 41.072 60.1543 41.04C60.2183 40.976 60.3143 41.04 60.3143 41.136V41.296C60.1863 41.712 60.3463 42.032 60.6343 42.352L60.9543 42.672C61.1463 42.864 61.3703 42.928 61.6263 42.928C62.0423 42.96 62.4263 42.896 62.7783 42.672C63.5463 42.256 64.2503 41.808 64.9863 41.296C65.4663 40.976 65.9463 40.592 66.4583 40.336C67.0023 40.016 67.5463 39.696 68.1223 39.408C68.2183 39.344 68.3463 39.312 68.4423 39.28C68.5383 39.248 68.5383 39.152 68.5063 39.056ZM60.9223 39.44C60.8903 39.472 60.8583 39.472 60.8263 39.472L60.7303 39.6C60.6983 39.6 60.6663 39.632 60.6023 39.632C60.5703 39.664 60.5703 39.696 60.5383 39.728H60.6343C60.6023 39.76 60.5703 39.792 60.5383 39.792V39.728C60.5063 39.76 60.4743 39.792 60.4423 39.792C60.4103 39.824 60.3463 39.856 60.3143 39.888H60.4423C60.4423 39.856 60.4423 39.824 60.4423 39.824H60.5383C60.5063 39.824 60.4743 39.856 60.4423 39.888C60.3783 39.92 60.3463 39.92 60.3143 39.92V39.888C60.2823 39.92 60.2823 39.92 60.2503 39.92C60.1863 39.952 60.1543 39.984 60.1223 40.016H60.2503C60.2503 39.984 60.2503 39.952 60.2503 39.952H60.3143C60.2823 39.952 60.2823 39.984 60.2503 40.016C60.1863 40.08 60.1223 40.112 60.0263 40.144V40.08C59.9943 40.112 59.9303 40.112 59.9303 40.112C59.8983 40.144 59.8663 40.176 59.8343 40.24C59.8663 40.24 59.9303 40.24 59.9303 40.24L59.8343 40.304C59.8023 40.336 59.7703 40.336 59.7383 40.336V40.304C59.7383 40.336 59.6743 40.336 59.6103 40.368H59.7383C59.7063 40.432 59.6423 40.496 59.5463 40.496V40.432C59.5143 40.432 59.4823 40.464 59.4503 40.464C59.3863 40.496 59.3543 40.56 59.3223 40.56H59.4823C59.4183 40.592 59.3863 40.624 59.3223 40.624V40.56C59.2903 40.592 59.2903 40.624 59.2903 40.624C59.1943 40.656 59.0983 40.72 59.0663 40.784C59.0023 40.784 58.9063 40.816 58.8743 40.848C58.8103 40.944 58.7463 40.976 58.6503 40.976C58.6823 40.912 58.7783 40.88 58.8423 40.848C59.0023 40.656 59.1943 40.56 59.3863 40.4C59.5143 40.272 59.7063 40.144 59.8983 40.08C60.0903 39.888 60.3463 39.696 60.5703 39.568C60.6343 39.504 60.6983 39.472 60.7943 39.44L60.8583 39.376C60.8583 39.376 60.8903 39.408 60.9223 39.408V39.44ZM67.3543 39.664C67.3543 39.664 67.3223 39.664 67.2903 39.696C67.3223 39.664 67.3223 39.632 67.3223 39.632C67.3543 39.6 67.3863 39.6 67.3863 39.632L67.3543 39.664ZM66.2023 39.728C66.2023 39.76 66.1383 39.792 66.1063 39.792C66.1383 39.792 66.1703 39.76 66.2023 39.728ZM67.0023 39.792C67.0343 39.76 67.0983 39.76 67.1623 39.728C67.0983 39.76 67.0663 39.792 67.0023 39.792ZM66.1063 39.824C66.0743 39.856 66.0423 39.856 65.9783 39.888C66.0103 39.856 66.0743 39.824 66.1063 39.824ZM66.8743 39.888C66.9063 39.824 66.9383 39.824 67.0023 39.824C66.9383 39.856 66.9383 39.888 66.8743 39.888ZM66.5223 40.08C66.5863 39.952 66.7463 39.92 66.8423 39.888C66.7783 39.984 66.6503 40.048 66.5223 40.08ZM65.8823 39.952C65.8503 39.984 65.8183 39.984 65.7543 40.016C65.7863 39.984 65.8503 39.952 65.8823 39.952ZM65.7223 40.016L65.6583 40.08C65.6583 40.048 65.6903 40.048 65.7223 40.016ZM65.8823 40.432C65.7543 40.624 65.5303 40.72 65.3383 40.784C65.2743 40.88 65.2423 40.912 65.1463 40.944C65.0823 41.008 65.0183 41.04 64.9223 41.072C64.9543 40.976 65.0503 40.944 65.1143 40.912C65.1783 40.816 65.2423 40.784 65.3063 40.752C65.4663 40.624 65.6583 40.496 65.8823 40.432C66.0423 40.304 66.1703 40.176 66.3623 40.144C66.2343 40.336 66.1063 40.4 65.8823 40.432ZM59.8343 40.304V40.24C59.8023 40.24 59.7703 40.272 59.7383 40.304H59.8343ZM60.4103 40.528C60.3783 40.56 60.3463 40.56 60.3463 40.592C59.9303 40.912 59.5143 41.2 59.1303 41.488C59.0663 41.552 58.9703 41.616 58.8743 41.616C58.9063 41.552 58.9703 41.456 59.0663 41.424C59.4503 41.104 59.8663 40.784 60.2823 40.528L60.3783 40.432C60.3783 40.432 60.4423 40.432 60.4423 40.464C60.4423 40.464 60.4423 40.496 60.4103 40.528ZM64.8263 40.528C64.7943 40.592 64.7303 40.624 64.6343 40.656C64.6663 40.56 64.7623 40.56 64.8263 40.528ZM59.2903 40.72C59.2903 40.688 59.2903 40.656 59.2903 40.656H59.3223C59.2903 40.656 59.2903 40.688 59.2903 40.72ZM64.3463 40.784C64.3143 40.848 64.2183 40.88 64.1863 40.944C64.2183 40.848 64.2823 40.816 64.3463 40.784ZM58.3943 41.2C58.4263 41.136 58.4903 41.104 58.5543 41.072C58.5223 41.136 58.4583 41.2 58.3943 41.2ZM64.1863 41.552C64.4103 41.328 64.6663 41.136 64.8903 41.072C64.6983 41.296 64.4423 41.424 64.1863 41.552ZM63.9623 41.68C63.9943 41.616 64.0583 41.584 64.1543 41.552C64.0903 41.616 64.0263 41.648 63.9623 41.68ZM76.8243 37.744C76.6963 37.52 76.5043 37.328 76.3123 37.136C75.9603 36.784 75.5763 36.656 75.1283 36.72C74.6483 36.784 74.1683 36.944 73.7523 37.136C73.0803 37.456 72.4403 37.776 71.8323 38.128C71.3523 38.416 70.9043 38.64 70.4563 38.96C69.8803 39.376 69.3043 39.728 68.7923 40.24L68.4723 40.528C68.4403 40.56 68.3763 40.624 68.3123 40.56C68.2483 40.496 68.2483 40.464 68.2483 40.4C68.2483 40.336 68.3123 40.272 68.3123 40.176C68.3123 39.536 68.6003 38.928 68.6963 38.256C68.7283 38 68.7603 37.744 68.6643 37.488C68.6003 37.296 68.4723 37.168 68.3123 37.072C68.2483 37.04 68.1843 37.04 68.1523 37.104L68.0563 37.296C67.8963 37.616 67.8003 37.968 67.7043 38.32C67.4803 39.088 67.1923 39.824 66.9363 40.592C66.6483 41.488 66.4243 42.352 66.1363 43.216C66.0723 43.408 66.1043 43.568 66.2643 43.728C66.3283 43.792 66.4243 43.856 66.4563 43.952C66.5523 44.208 66.7443 44.272 66.9683 44.368C67.1283 44.432 67.2563 44.4 67.3843 44.368C67.5123 44.336 67.4803 44.208 67.5123 44.144C67.5123 44.144 67.5443 44.144 67.5763 44.112C67.5763 44.08 67.6083 44.048 67.6403 44.016L67.7043 43.952C67.8643 43.568 68.1203 43.28 68.4083 42.992C68.4723 42.864 68.5683 42.736 68.6643 42.672C68.6963 42.704 68.6963 42.768 68.6963 42.832C68.7923 42.704 68.8883 42.608 68.9523 42.512H68.7923C68.9523 42.288 69.1123 42.064 69.3683 41.936C69.3683 41.904 69.4003 41.904 69.4003 41.872C69.4323 41.84 69.4643 41.808 69.4643 41.776C69.4963 41.776 69.5283 41.744 69.5603 41.712C69.5923 41.616 69.6563 41.584 69.7523 41.552C69.7843 41.52 69.8163 41.488 69.8163 41.456L69.8803 41.392C69.8803 41.424 69.8803 41.424 69.9123 41.456C69.9123 41.424 69.9123 41.424 69.8803 41.392H69.9123C69.9443 41.232 70.0723 41.136 70.2323 41.072L70.2963 40.976C70.3603 40.88 70.4563 40.784 70.5843 40.752L70.6483 40.656C70.7123 40.624 70.7443 40.592 70.8083 40.592C70.8083 40.56 70.8403 40.528 70.8723 40.496H70.8403C70.9043 40.432 70.9683 40.368 71.0643 40.336L71.1283 40.272C71.1923 40.176 71.2883 40.144 71.3523 40.08C71.4163 40.016 71.5123 39.984 71.5763 39.92C71.6083 39.824 71.7043 39.792 71.7683 39.76V39.792C71.7683 39.824 71.8003 39.824 71.8003 39.856C71.8003 39.824 71.8323 39.824 71.8643 39.792V39.76C71.9603 39.728 72.0563 39.664 72.1523 39.632C72.1523 39.632 72.1523 39.632 72.1523 39.6L72.2163 39.536C72.3443 39.44 72.5363 39.376 72.5683 39.248C72.6003 39.152 72.6963 39.152 72.7603 39.12C72.8883 39.056 73.0163 38.992 73.1123 38.928C73.3363 38.768 73.5603 38.608 73.8163 38.48C74.2963 38.256 74.7763 38 75.2883 37.808C75.4483 37.744 75.6083 37.712 75.8003 37.648C76.0563 37.552 76.2483 37.616 76.5043 37.872C76.5363 37.904 76.5363 37.904 76.5683 37.904C76.6643 37.904 76.6963 38 76.7603 37.936C76.8243 37.872 76.8563 37.808 76.8243 37.744ZM74.3603 37.296C74.3923 37.296 74.2963 37.36 74.1683 37.36C74.2003 37.328 74.2643 37.296 74.3603 37.296ZM69.5923 40.176C69.6563 40.048 69.7523 39.984 69.8803 39.952C69.9123 39.856 69.9763 39.792 70.0723 39.792C70.1043 39.664 70.2003 39.632 70.2643 39.6C70.3283 39.536 70.4243 39.472 70.4883 39.44C70.5843 39.344 70.7123 39.248 70.8403 39.184C70.9363 39.088 71.0643 38.992 71.2243 38.96C71.3843 38.8 71.6083 38.64 71.8643 38.544C72.3763 38.224 72.8883 37.904 73.4643 37.68C73.4963 37.616 73.5603 37.616 73.6243 37.616C73.7203 37.488 73.8483 37.456 74.0083 37.456C74.0403 37.392 74.1043 37.392 74.1363 37.392C74.1683 37.392 74.1683 37.424 74.1683 37.456C74.1043 37.456 74.0723 37.456 74.0083 37.456V37.52C73.9123 37.584 73.8163 37.68 73.6563 37.616V37.68C73.5923 37.712 73.5603 37.712 73.4963 37.712C73.4963 37.744 73.4963 37.744 73.4963 37.776L73.3683 37.872V37.84C73.2723 37.904 73.2403 38 73.1443 38.032C73.1123 38.064 73.0483 38.096 72.9843 38.096C72.9523 38.16 72.9203 38.16 72.8563 38.192L72.6963 38.256C72.6323 38.384 72.5043 38.448 72.3443 38.48V38.416C72.2803 38.448 72.2483 38.48 72.2163 38.48L72.3443 38.512C72.3123 38.544 72.2483 38.576 72.2163 38.576C72.1843 38.544 72.1843 38.544 72.1843 38.512C72.1523 38.544 72.0883 38.544 72.0563 38.576H72.1843C72.1843 38.64 72.1203 38.64 72.0563 38.672C72.0243 38.704 71.9603 38.736 71.9283 38.736C71.8963 38.704 71.8963 38.704 71.8963 38.672V38.736C71.8323 38.864 71.7043 38.928 71.5443 38.992C71.5123 39.024 71.4803 39.056 71.4163 39.056C71.3523 39.152 71.2883 39.184 71.1923 39.216C71.1603 39.28 71.0963 39.28 71.0643 39.312C71.0323 39.28 71.0323 39.248 71.0323 39.216L70.9043 39.248C70.9043 39.28 70.9043 39.28 70.8723 39.312H71.0323C71.0003 39.376 70.9363 39.44 70.8403 39.472C70.8083 39.504 70.7443 39.536 70.6803 39.536C70.6803 39.504 70.6803 39.472 70.6803 39.472H70.5523C70.5203 39.536 70.4883 39.568 70.4563 39.632H70.6163C70.5843 39.664 70.5523 39.696 70.4883 39.696C70.4883 39.664 70.4563 39.632 70.4563 39.632C70.4243 39.632 70.3603 39.632 70.3283 39.664C70.2963 39.696 70.2643 39.728 70.2643 39.792H70.3923C70.3603 39.792 70.2963 39.824 70.2643 39.856C70.2643 39.824 70.2643 39.792 70.2643 39.792H70.1043C70.0723 39.824 70.0403 39.888 70.0403 39.952C70.1043 39.952 70.1363 39.952 70.2003 39.952L70.0403 40.016C70.0403 39.984 70.0403 39.952 70.0403 39.952H69.8803C69.8483 39.984 69.8483 40.048 69.8163 40.112H69.9763C69.9443 40.176 69.8803 40.24 69.7843 40.24C69.7843 40.24 69.7523 40.208 69.7523 40.176C69.7203 40.176 69.6563 40.176 69.6243 40.208C69.5923 40.208 69.5603 40.24 69.5603 40.24C69.5603 40.208 69.5923 40.208 69.5923 40.176ZM74.7763 37.808C73.3363 38.288 72.1203 39.248 70.9683 40.144C69.8483 41.008 68.9203 42.032 68.0563 43.088C67.9283 43.248 67.8323 43.44 67.6403 43.568H67.6083V43.536C67.6083 43.408 67.7043 43.312 67.7683 43.248C68.7603 42.256 69.5283 41.136 70.6163 40.24C71.6403 39.376 72.7923 38.704 74.0083 38.032C74.3603 37.84 74.6803 37.712 75.0643 37.616C75.0003 37.712 74.8723 37.776 74.7763 37.808ZM71.9283 38.608V38.64C71.9603 38.64 72.0243 38.64 72.0563 38.672C72.0563 38.64 72.0563 38.608 72.0243 38.576C71.9923 38.608 71.9603 38.608 71.9283 38.608ZM71.3843 38.992H71.5443C71.5443 38.96 71.5443 38.928 71.5443 38.896L71.3843 38.992ZM71.2563 38.992C71.2563 39.024 71.2563 39.056 71.2563 39.056H71.4163C71.4163 39.024 71.3843 38.992 71.3843 38.992H71.2563ZM71.0323 39.216H71.1923C71.1923 39.184 71.1923 39.152 71.1923 39.12L71.0323 39.216ZM70.6803 39.472C70.7443 39.472 70.7763 39.472 70.8403 39.472V39.376C70.7763 39.408 70.7123 39.44 70.6803 39.472ZM71.5763 40.016V39.92C71.5443 39.952 71.5763 39.952 71.5763 40.016ZM71.5763 40.016L71.6083 40.048C71.6083 40.016 71.5763 40.016 71.5763 40.016ZM69.5283 40.272C69.5283 40.304 69.4963 40.368 69.4963 40.4H69.3363C69.3683 40.336 69.4323 40.272 69.5283 40.272ZM71.1603 40.336H71.0643C71.0643 40.368 71.0963 40.4 71.0963 40.4L71.1603 40.336ZM71.0323 40.496C71.0323 40.464 71.0643 40.464 71.0963 40.432V40.4C71.0643 40.432 71.0323 40.464 71.0003 40.496H71.0323ZM69.2403 40.496C69.2083 40.592 69.1443 40.624 69.0483 40.656C69.1123 40.592 69.1763 40.528 69.2403 40.496ZM70.8723 40.592L71.0003 40.496C70.9683 40.496 70.9043 40.496 70.8723 40.496V40.592ZM70.8083 40.656C70.8403 40.624 70.8403 40.592 70.8723 40.592C70.8403 40.592 70.8083 40.592 70.8083 40.592V40.656ZM70.6483 40.72C70.6483 40.752 70.6483 40.752 70.6483 40.752L70.8083 40.656C70.7443 40.656 70.7123 40.656 70.6483 40.656V40.72ZM70.6803 40.752H70.6483H70.6803ZM70.5843 40.816L70.6483 40.752C70.6163 40.752 70.6163 40.752 70.5843 40.752V40.816ZM70.5843 40.816L70.5203 40.912C70.5523 40.88 70.5843 40.848 70.5843 40.816ZM70.4563 40.976C70.4883 40.944 70.5203 40.944 70.5203 40.912C70.4883 40.912 70.4883 40.944 70.4563 40.976ZM70.3283 41.072C70.3603 41.04 70.3923 41.008 70.4563 40.976H70.2963C70.2963 41.008 70.3283 41.04 70.3283 41.072ZM68.7603 41.008C68.7283 41.072 68.6643 41.104 68.5683 41.136C68.6323 41.072 68.6963 41.008 68.7603 41.008ZM70.2963 41.072H70.2323C70.2323 41.104 70.2643 41.104 70.2643 41.136C70.2643 41.104 70.2963 41.104 70.2963 41.072ZM70.1363 41.328C70.1363 41.296 70.1683 41.264 70.1683 41.232L70.1043 41.328H70.1363ZM69.8483 41.552C69.8803 41.52 69.8803 41.488 69.9123 41.456H69.8163C69.8483 41.488 69.8483 41.52 69.8483 41.552ZM69.7843 41.616C69.7843 41.584 69.8163 41.584 69.8483 41.552H69.7523C69.7523 41.584 69.7843 41.584 69.7843 41.616ZM69.7203 41.712C69.7203 41.68 69.7523 41.648 69.7843 41.616C69.7523 41.648 69.7203 41.68 69.6883 41.712H69.7203ZM69.5603 41.776C69.6243 41.744 69.6563 41.744 69.6883 41.712C69.6563 41.712 69.5923 41.712 69.5603 41.712V41.776ZM69.4963 41.872L69.5603 41.776C69.5283 41.776 69.4963 41.776 69.4963 41.776V41.872ZM69.4323 41.936L69.4963 41.872C69.4643 41.872 69.4323 41.872 69.4323 41.872V41.936ZM69.3683 42C69.4003 42 69.4003 41.968 69.4323 41.936C69.4003 41.936 69.3683 41.936 69.3683 41.936V42ZM69.3683 42.032C69.3363 42.032 69.3043 42.064 69.3043 42.096C69.3043 42.064 69.3363 42.064 69.3683 42.032ZM69.1763 42.256C69.1763 42.224 69.2083 42.224 69.2403 42.192C69.2403 42.16 69.2723 42.128 69.3043 42.096L69.2083 42.192C69.2083 42.192 69.1763 42.224 69.1443 42.256L69.0803 42.352C69.0803 42.352 69.0483 42.384 69.0163 42.416L69.1123 42.352C69.1123 42.32 69.1443 42.288 69.1763 42.256ZM69.0163 42.416C69.0163 42.448 68.9843 42.48 68.9523 42.512H68.9843C68.9843 42.48 69.0163 42.448 69.0163 42.416ZM68.6963 42.832L68.6323 42.896C68.6643 42.864 68.6963 42.864 68.6963 42.832ZM68.3123 43.312L68.3443 43.28H68.3123L68.2483 43.376C68.2803 43.344 68.2803 43.312 68.3123 43.312ZM68.1843 43.472C68.1843 43.44 68.2163 43.408 68.2483 43.376L68.1523 43.472C68.1523 43.504 68.1203 43.504 68.1203 43.536C68.1523 43.536 68.1523 43.504 68.1843 43.472ZM68.1203 43.536L68.0883 43.568C68.1203 43.568 68.1203 43.536 68.1203 43.536ZM68.0883 43.568L68.0243 43.632C68.0243 43.664 67.9923 43.664 67.9923 43.696L68.0563 43.632C68.0883 43.6 68.0883 43.6 68.0883 43.568ZM67.9923 43.696L67.9283 43.76C67.8963 43.792 67.8963 43.824 67.8643 43.824C67.8963 43.824 67.9283 43.792 67.9283 43.792L67.9923 43.696ZM67.8323 43.888C67.8323 43.888 67.8643 43.856 67.8643 43.824C67.8643 43.856 67.8323 43.856 67.8323 43.888ZM67.8323 43.888C67.8003 43.888 67.8003 43.92 67.7683 43.952C67.8003 43.92 67.8323 43.92 67.8323 43.888ZM67.7683 43.952H67.7043C67.7043 43.984 67.7043 43.984 67.7043 44.016L67.7683 43.952ZM67.6403 44.112C67.6723 44.08 67.7043 44.048 67.7043 44.016C67.6723 44.016 67.6723 44.016 67.6403 44.016V44.112ZM67.5763 44.112H67.6403C67.6083 44.08 67.5763 44.08 67.5763 44.112ZM87.652 37.808C87.524 37.648 87.364 37.648 87.172 37.68C87.012 37.744 86.884 37.808 86.724 37.904C86.468 38.032 86.212 38.16 85.988 38.288C85.06 38.8 84.164 39.376 83.268 39.952C82.116 40.688 80.996 41.456 79.844 42.224C79.108 42.704 78.372 43.216 77.604 43.696C77.188 43.984 76.74 44.24 76.26 44.464C76.068 44.56 75.844 44.656 75.62 44.688C75.492 44.72 75.396 44.688 75.364 44.528C75.332 44.336 75.332 44.112 75.364 43.92C75.396 43.568 75.46 43.248 75.556 42.928C75.62 42.64 75.652 42.384 75.812 42.128V42.032C75.844 41.968 75.844 41.904 75.876 41.84C76.132 41.232 76.484 40.624 76.836 40.016C76.9 39.888 76.996 39.76 77.092 39.664C77.22 39.504 77.348 39.408 77.508 39.408C78.116 39.312 78.596 38.992 79.108 38.672C79.62 38.32 80.068 37.872 80.484 37.424C81.028 36.848 80.996 36.464 80.548 36.016C80.26 35.728 79.94 35.696 79.556 35.824C79.332 35.92 79.076 36.048 78.852 36.176C78.404 36.528 77.956 36.88 77.572 37.296C77.444 37.488 77.284 37.648 77.092 37.776C76.804 37.968 76.58 38.224 76.452 38.544C76.42 38.672 76.356 38.768 76.292 38.864C75.844 39.504 75.428 40.144 75.108 40.816C74.724 41.616 74.404 42.416 74.276 43.28C74.148 44.016 74.308 44.624 74.788 45.136C75.14 45.488 75.556 45.616 76.068 45.584C76.484 45.552 76.868 45.424 77.252 45.232C77.924 44.88 78.596 44.496 79.236 44.048C79.62 43.792 80.004 43.536 80.388 43.248H80.42C80.676 43.024 80.932 42.8 81.188 42.608C81.732 42.16 82.308 41.776 82.852 41.36C83.46 40.944 84.132 40.592 84.708 40.144C85.028 39.952 85.38 39.76 85.7 39.536C86.404 39.056 87.14 38.608 87.94 38.32C87.972 38.064 87.78 37.936 87.652 37.808ZM78.724 36.688L78.82 36.592C78.98 36.4 79.172 36.304 79.396 36.208C79.396 36.208 79.396 36.24 79.428 36.272C79.396 36.304 79.396 36.336 79.396 36.368C79.332 36.432 79.236 36.464 79.14 36.528C79.076 36.592 78.98 36.656 78.884 36.688L78.788 36.752C78.756 36.784 78.724 36.816 78.724 36.848V36.752C78.692 36.752 78.66 36.752 78.628 36.752L78.724 36.688ZM79.812 36.592C79.396 36.88 79.044 37.168 78.628 37.456C78.916 37.04 79.396 36.688 79.812 36.592ZM78.788 36.752C78.788 36.72 78.82 36.72 78.82 36.688C78.82 36.688 78.852 36.688 78.884 36.688L78.82 36.592C78.82 36.624 78.82 36.656 78.788 36.688H78.724C78.724 36.72 78.724 36.72 78.724 36.752H78.788ZM78.628 36.784C78.628 36.784 78.628 36.816 78.628 36.848H78.532C78.564 36.816 78.596 36.784 78.628 36.784ZM78.788 37.584V37.552C78.82 37.552 78.852 37.52 78.852 37.488H78.884C79.076 37.2 79.396 37.008 79.716 36.88C79.748 36.848 79.78 36.848 79.812 36.88C79.844 36.912 79.844 36.976 79.812 37.008C79.588 37.232 79.396 37.456 79.172 37.648C79.044 37.776 78.884 37.872 78.724 38C78.564 38.16 78.372 38.256 78.148 38.288C78.308 38 78.532 37.776 78.788 37.584ZM78.82 37.552H78.788C78.788 37.552 78.82 37.584 78.852 37.584L78.82 37.552ZM79.78 37.968C79.78 37.936 79.812 37.904 79.844 37.904C79.844 37.936 79.812 37.936 79.78 37.968ZM78.98 38.192C78.884 38.288 78.756 38.384 78.596 38.352C78.756 38.192 78.948 38.096 79.108 37.968C79.108 38.064 79.076 38.16 78.98 38.192ZM79.588 38.128C79.492 38.288 79.332 38.416 79.14 38.448C79.14 38.48 79.108 38.512 79.076 38.512C79.108 38.512 79.108 38.48 79.14 38.448C79.268 38.288 79.428 38.192 79.588 38.096C79.588 38.096 79.62 38.064 79.652 38.064C79.652 38.096 79.62 38.096 79.588 38.128ZM86.756 38.128C86.788 38.128 86.82 38.128 86.82 38.16L86.788 38.192H86.724C86.724 38.192 86.756 38.16 86.756 38.128ZM86.692 38.224C86.66 38.256 86.596 38.288 86.564 38.288C86.596 38.224 86.66 38.224 86.692 38.224ZM86.532 38.288C86.5 38.352 86.436 38.352 86.372 38.352L86.532 38.288ZM79.3 42.992C79.396 42.896 79.524 42.8 79.652 42.736C79.748 42.64 79.844 42.576 79.972 42.512C80.132 42.384 80.26 42.256 80.42 42.192C80.644 42 80.9 41.84 81.124 41.712C81.22 41.584 81.348 41.52 81.476 41.456C81.572 41.36 81.7 41.264 81.828 41.232C81.924 41.136 82.052 41.04 82.18 41.008C82.372 40.816 82.564 40.688 82.788 40.592C82.884 40.496 83.012 40.4 83.14 40.368C83.236 40.272 83.3 40.208 83.396 40.208C83.588 40.016 83.78 39.888 84.004 39.792C84.1 39.696 84.164 39.664 84.292 39.632C84.356 39.536 84.452 39.504 84.548 39.472C84.772 39.248 85.028 39.12 85.316 38.992C85.38 38.896 85.476 38.864 85.604 38.832C85.636 38.736 85.732 38.704 85.828 38.672C85.924 38.576 85.988 38.544 86.116 38.512C86.18 38.416 86.276 38.384 86.34 38.352C86.34 38.384 86.34 38.416 86.372 38.448C86.308 38.512 86.244 38.544 86.18 38.608L86.116 38.544C86.116 38.576 86.116 38.576 86.084 38.608C86.052 38.672 85.988 38.704 85.924 38.768C85.828 38.832 85.732 38.864 85.668 38.928L85.38 39.088C85.316 39.152 85.22 39.184 85.124 39.248H85.156C85.06 39.28 84.964 39.344 84.868 39.408H84.9C84.804 39.44 84.708 39.504 84.612 39.568C84.612 39.536 84.58 39.536 84.548 39.504V39.568C84.484 39.632 84.42 39.664 84.356 39.728L84.292 39.664C84.292 39.696 84.292 39.696 84.26 39.728C84.228 39.792 84.164 39.824 84.1 39.888L84.004 39.984C83.908 40.016 83.844 40.08 83.748 40.112H83.652C83.62 40.176 83.556 40.24 83.492 40.272C83.46 40.272 83.46 40.24 83.428 40.208C83.428 40.24 83.428 40.272 83.396 40.304H83.492C83.46 40.304 83.428 40.336 83.396 40.368C83.332 40.4 83.3 40.432 83.236 40.432C83.204 40.432 83.204 40.4 83.172 40.4V40.432C83.172 40.432 83.204 40.432 83.236 40.464C83.204 40.464 83.172 40.496 83.14 40.528C83.076 40.592 82.98 40.656 82.884 40.688L82.788 40.784C82.692 40.816 82.628 40.88 82.532 40.912L82.436 41.008C82.372 41.04 82.34 41.072 82.276 41.072C82.244 41.072 82.244 41.04 82.212 41.04V41.072C82.212 41.072 82.244 41.072 82.276 41.104C82.244 41.104 82.212 41.136 82.18 41.168L82.084 41.264C82.02 41.264 81.988 41.296 81.924 41.328L81.828 41.424C81.764 41.488 81.668 41.552 81.572 41.584C81.54 41.584 81.508 41.616 81.476 41.648C81.412 41.744 81.316 41.808 81.22 41.808L81.124 41.904C81.092 41.904 81.06 41.936 81.06 41.968V41.936H81.028V41.968C80.964 42.064 80.868 42.096 80.772 42.128H80.74V42.16L80.708 42.192L80.676 42.16V42.224C80.612 42.288 80.516 42.352 80.42 42.384C80.388 42.384 80.356 42.416 80.356 42.448C80.356 42.416 80.356 42.384 80.356 42.384L80.26 42.448C80.292 42.448 80.292 42.448 80.324 42.448L80.228 42.544C80.196 42.544 80.132 42.576 80.068 42.608C80.036 42.64 80.036 42.672 80.004 42.672V42.608C79.972 42.64 79.94 42.672 79.908 42.672C79.908 42.704 79.908 42.704 79.908 42.704H79.972C79.972 42.704 79.94 42.736 79.908 42.768V42.704C79.876 42.736 79.844 42.736 79.812 42.768L79.684 42.8C79.684 42.832 79.652 42.832 79.652 42.864C79.62 42.864 79.588 42.896 79.556 42.928H79.652C79.62 42.96 79.588 42.992 79.556 42.992V42.928C79.524 42.96 79.492 42.992 79.46 43.024H79.332C79.3 43.088 79.236 43.12 79.204 43.184C79.14 43.184 79.044 43.216 78.98 43.248C79.044 43.12 79.172 43.056 79.3 42.992ZM87.172 38.448C87.204 38.384 87.268 38.384 87.3 38.384C87.268 38.384 87.204 38.416 87.172 38.448ZM86.916 38.608L86.724 38.704C86.692 38.768 86.628 38.8 86.532 38.864C85.988 39.216 85.412 39.568 84.868 39.888C84.804 39.952 84.74 39.952 84.676 39.984C84.484 40.176 84.292 40.304 84.068 40.4C83.364 40.912 82.692 41.392 81.956 41.84C81.604 42.096 81.284 42.384 80.932 42.64C80.452 42.96 80.004 43.312 79.524 43.632C79.364 43.728 79.236 43.856 79.044 43.888C78.98 43.984 78.884 44.048 78.788 44.048C78.724 44.144 78.628 44.176 78.532 44.208C78.596 44.144 78.692 44.08 78.788 44.048C78.852 43.952 78.916 43.888 79.044 43.888C79.108 43.76 79.268 43.664 79.396 43.568C80.132 43.056 80.868 42.512 81.604 41.968L81.924 41.776C82.436 41.36 83.012 40.976 83.588 40.592C83.716 40.496 83.876 40.432 84.004 40.336C84.196 40.176 84.42 40.048 84.644 39.952C85.22 39.504 85.86 39.152 86.5 38.768C86.564 38.704 86.66 38.704 86.724 38.672C86.788 38.608 86.852 38.608 86.916 38.608C86.98 38.512 87.044 38.448 87.14 38.448C87.108 38.544 87.012 38.576 86.916 38.608ZM78.82 38.672C78.884 38.608 78.948 38.544 79.044 38.544C79.012 38.64 78.916 38.672 78.82 38.672ZM84.004 39.888C84.036 39.888 84.068 39.888 84.1 39.888L84.036 39.824C84.036 39.856 84.036 39.856 84.004 39.888ZM82.788 40.688C82.82 40.688 82.852 40.688 82.884 40.688L82.82 40.624C82.82 40.656 82.82 40.656 82.788 40.688ZM82.084 41.168H82.18C82.18 41.136 82.18 41.136 82.18 41.104L82.084 41.168ZM81.828 41.328C81.86 41.328 81.892 41.328 81.924 41.328L81.86 41.264C81.86 41.296 81.86 41.328 81.828 41.328ZM81.508 41.52V41.552C81.508 41.552 81.54 41.552 81.572 41.584C81.54 41.552 81.54 41.52 81.508 41.52ZM81.476 41.584V41.648C81.508 41.616 81.508 41.616 81.476 41.584ZM81.22 41.808C81.188 41.808 81.188 41.776 81.156 41.776C81.188 41.808 81.188 41.808 81.22 41.808ZM81.06 41.872C81.092 41.872 81.092 41.872 81.124 41.904V41.84C81.092 41.84 81.092 41.872 81.06 41.872ZM80.356 42.384C80.388 42.384 80.388 42.384 80.42 42.384V42.288C80.42 42.32 80.388 42.352 80.356 42.384ZM80.004 42.608H80.068C80.068 42.608 80.036 42.576 80.036 42.544C80.036 42.576 80.004 42.608 80.004 42.608ZM78.948 43.248C78.916 43.344 78.82 43.408 78.724 43.408C78.788 43.312 78.852 43.28 78.948 43.248ZM78.596 43.504C78.532 43.6 78.468 43.632 78.372 43.632C78.436 43.568 78.5 43.504 78.596 43.504ZM78.276 43.728C78.276 43.696 78.308 43.664 78.34 43.664C78.308 43.696 78.276 43.696 78.276 43.728Z" fill="#373737"/>
</svg>
