<svg width="18" height="16" viewBox="0 0 18 16" fill="none" xmlns="http://www.w3.org/2000/svg">
<path d="M12.5156 1.33594C11.7017 1.33594 10.9554 1.59564 10.2976 2.10785C9.66703 2.59892 9.24718 3.22437 9 3.67918C8.75282 3.22434 8.33297 2.59892 7.70235 2.10785C7.04458 1.59564 6.29833 1.33594 5.48438 1.33594C3.21293 1.33594 1.5 3.20665 1.5 5.68738C1.5 8.36744 3.637 10.2011 6.87214 12.977C7.42151 13.4484 8.04422 13.9828 8.69145 14.5526C8.77676 14.6279 8.88633 14.6693 9 14.6693C9.11367 14.6693 9.22324 14.6279 9.30856 14.5527C9.95584 13.9827 10.5785 13.4484 11.1282 12.9767C14.363 10.2011 16.5 8.36744 16.5 5.68738C16.5 3.20665 14.7871 1.33594 12.5156 1.33594Z" stroke="#373737" stroke-width="1.5"/>
</svg>
