<svg width="17" height="17" viewBox="0 0 17 17" fill="none" xmlns="http://www.w3.org/2000/svg">
<path fill-rule="evenodd" clip-rule="evenodd" d="M8.89987 0C13.3789 0 16.9994 3.62053 16.9994 8.06221C16.9994 12.5412 13.3789 16.1617 8.89987 16.1617C7.48152 16.1617 6.10049 15.7885 4.94342 15.154L0.539062 16.535L1.92009 12.2053C1.21091 11.0109 0.800338 9.59253 0.800338 8.06221C0.800338 3.62053 4.42087 0 8.89987 0ZM7.03362 7.46501C7.03362 7.46501 7.63082 8.43546 8.60127 9.21928C9.57172 9.96578 10.0943 10.1151 10.0943 10.1151C10.0943 10.1151 10.9528 9.03266 11.0647 9.03266C11.1767 8.99533 11.9232 9.33126 12.2591 9.51788C12.5577 9.66718 13.0056 9.92846 13.0056 10.0404C13.0056 10.1151 12.9683 10.7869 12.7444 11.0482C12.5204 11.2722 11.8859 11.8694 11.2887 11.7947C8.37732 11.5708 5.68992 8.92068 5.20469 6.97978C5.13004 6.64386 5.16737 5.33748 5.42864 5.00155C5.72724 4.66563 5.91387 4.44168 6.28712 4.40435C6.66037 4.36703 6.88432 4.40435 6.9963 4.66563C7.1456 4.9269 7.70547 6.19596 7.7428 6.34526C7.78012 6.49456 6.9963 7.24106 7.03362 7.46501ZM5.87654 14.1089C6.77235 14.5568 7.81745 14.818 8.89987 14.818C12.6324 14.818 15.6184 11.7947 15.6184 8.06221C15.6184 4.36703 12.6324 1.3437 8.89987 1.3437C5.16737 1.3437 2.14404 4.36703 2.14404 8.06221C2.14404 9.51788 2.62927 10.8616 3.37577 11.944L2.62927 14.5194L5.20469 13.7356L5.87654 14.1089Z" fill="#94C05B"/>
<path fill-rule="evenodd" clip-rule="evenodd" d="M5.8757 14.1089C10.2801 16.3111 15.6175 13.1385 15.6175 8.06226C15.6175 4.36708 12.6315 1.34375 8.89903 1.34375C3.41225 1.34375 0.276947 7.53971 3.37493 11.9441L2.62842 14.5195L5.20385 13.7357L5.8757 14.1089ZM11.2878 11.7948C8.37648 11.5708 5.68908 8.92073 5.20385 6.97983C5.01723 6.19601 5.24118 4.51638 6.28628 4.4044C6.65953 4.36708 6.88348 4.4044 6.99545 4.66568C7.14475 4.92695 7.70463 6.19601 7.74195 6.34531C7.77928 6.49461 6.99545 7.24111 7.03278 7.46506C7.44335 8.17423 9.01101 9.85386 10.0934 10.1151C11.1385 8.80876 10.8773 8.80876 12.2583 9.51793C12.5569 9.66723 13.0048 9.92851 13.0048 10.0405C13.0048 11.1602 11.997 11.8694 11.2878 11.7948Z" fill="white"/>
</svg>
