<svg width="40" height="54" viewBox="0 0 40 54" fill="none" xmlns="http://www.w3.org/2000/svg">
<path fill-rule="evenodd" clip-rule="evenodd" d="M25.5 13.5V1H1V53H39V13.5H25.5ZM40 13V54H0V0H26L40 13ZM37.9919 12.5L26.5 1.82893V12.5H37.9919Z" fill="#373737"/>
<path d="M16.6215 25.7902C16.3692 25.4385 16.056 25.2101 15.682 25.105C15.4386 25.035 14.9163 25 14.1148 25H12V32H13.3179V29.3595H14.1772C14.7738 29.3595 15.2294 29.326 15.5441 29.2592C15.7756 29.205 16.0034 29.0945 16.2275 28.9273C16.4516 28.7602 16.6364 28.5302 16.7818 28.2373C16.9273 27.9445 17 27.5832 17 27.1535C16.9999 26.5964 16.8737 26.142 16.6215 25.7902ZM15.4928 27.7169C15.3934 27.8729 15.2561 27.9875 15.081 28.0607C14.9058 28.134 14.5586 28.1706 14.0391 28.1706H13.3179V26.1842H13.9545C14.4295 26.1842 14.7456 26.2001 14.9028 26.232C15.1165 26.2733 15.2932 26.3768 15.4326 26.5423C15.5722 26.7079 15.6419 26.918 15.6419 27.1726C15.642 27.3795 15.5922 27.5609 15.4928 27.7169Z" fill="#94C05B"/>
<path d="M23.7657 26.9124C23.6095 26.4651 23.3816 26.0871 23.0822 25.7783C22.7828 25.4695 22.4231 25.2547 22.0033 25.1337C21.6909 25.0445 21.2368 25 20.6412 25H18V32H20.7193C21.2531 32 21.6794 31.9507 21.9984 31.8519C22.4248 31.7183 22.7633 31.532 23.0138 31.2933C23.3458 30.9781 23.6013 30.5659 23.7803 30.0566C23.9268 29.6395 24 29.143 24 28.5668C24 27.9111 23.9219 27.3596 23.7657 26.9124ZM22.3596 29.7869C22.262 30.1005 22.1359 30.3257 21.9813 30.4625C21.8267 30.5994 21.6322 30.6965 21.3979 30.7537C21.2189 30.7983 20.9276 30.8206 20.524 30.8206H19.4451V26.1842H20.0944C20.6834 26.1842 21.079 26.2065 21.2807 26.2511C21.5508 26.3083 21.7738 26.4182 21.9495 26.5806C22.1253 26.7429 22.262 26.9689 22.3596 27.2586C22.4573 27.5482 22.5061 27.9636 22.5061 28.5048C22.5061 29.046 22.4573 29.4733 22.3596 29.7869Z" fill="#94C05B"/>
<path d="M29 26.1842V25H25V32H26.1781V29.0253H28.6139V27.8411H26.1781V26.1842H29Z" fill="#94C05B"/>
</svg>
