<svg width="24" height="25" viewBox="0 0 24 25" fill="none" xmlns="http://www.w3.org/2000/svg">
<path d="M10 13.5C10.4295 14.0741 10.9774 14.5491 11.6066 14.8929C12.2357 15.2367 12.9315 15.4411 13.6467 15.4923C14.3618 15.5435 15.0796 15.4403 15.7513 15.1897C16.4231 14.9392 17.0331 14.547 17.54 14.04L20.54 11.04C21.4508 10.097 21.9548 8.83394 21.9434 7.52296C21.932 6.21198 21.4061 4.95791 20.4791 4.03087C19.5521 3.10383 18.298 2.57799 16.987 2.5666C15.676 2.5552 14.413 3.05918 13.47 3.96997L11.75 5.67997" stroke="#94C05B" stroke-width="2" stroke-linecap="round" stroke-linejoin="round"/>
<path d="M13.9982 11.5012C13.5688 10.9271 13.0209 10.452 12.3917 10.1083C11.7625 9.7645 11.0667 9.56009 10.3516 9.50887C9.63645 9.45765 8.91866 9.56083 8.2469 9.81142C7.57514 10.062 6.96513 10.4541 6.45825 10.9612L3.45825 13.9612C2.54746 14.9042 2.04348 16.1672 2.05488 17.4782C2.06627 18.7892 2.59211 20.0433 3.51915 20.9703C4.44619 21.8973 5.70026 22.4232 7.01124 22.4346C8.32222 22.446 9.58524 21.942 10.5282 21.0312L12.2382 19.3212" stroke="#94C05B" stroke-width="2" stroke-linecap="round" stroke-linejoin="round"/>
</svg>
